<?xml version="1.0" encoding="UTF-8" standalone="no"?>
<!DOCTYPE svg PUBLIC "-//W3C//DTD SVG 1.1//EN" "http://www.w3.org/Graphics/SVG/1.1/DTD/svg11.dtd">
<svg width="100%" height="100%" viewBox="0 0 258 223" version="1.1" xmlns="http://www.w3.org/2000/svg" xmlns:xlink="http://www.w3.org/1999/xlink" xml:space="preserve" xmlns:serif="http://www.serif.com/" style="fill-rule:evenodd;clip-rule:evenodd;stroke-linejoin:round;stroke-miterlimit:2;">
    <g transform="matrix(1,0,0,1,-611.381,-441.915)">
        <g transform="matrix(1,0,0,1,0,11.811)">
            <ellipse cx="738.189" cy="555.118" rx="124.016" ry="97.219" style="fill:rgb(46,132,90);"/>
        </g>
        <g transform="matrix(8.33072e-16,-0.848735,-4.32599,3.58573e-15,3370.76,1185.01)">
            <path d="M739.399,590.551C709.272,592.323 684.812,599.651 684.812,608.268C684.812,616.884 709.272,624.213 739.399,625.984C696.36,625.984 661.417,618.046 661.417,608.268C661.417,598.49 696.36,590.551 739.399,590.551Z" style="fill:white;"/>
        </g>
        <g transform="matrix(1,0,0,1,1.69387,2.45348)">
            <circle cx="654.478" cy="484.252" r="44.791" style="fill:rgb(46,132,90);"/>
        </g>
        <g transform="matrix(0.644496,0,0,0.644496,234.364,174.607)">
            <circle cx="654.478" cy="484.252" r="44.791" style="fill:white;"/>
        </g>
        <g transform="matrix(0.580679,0,0,0.580679,276.131,205.511)">
            <circle cx="654.478" cy="484.252" r="44.791"/>
        </g>
        <g transform="matrix(0.380801,0,0,0.380801,415.898,294.603)">
            <circle cx="654.478" cy="484.252" r="44.791" style="fill:white;"/>
        </g>
        <g transform="matrix(1,0,0,1,169.84,2.45348)">
            <circle cx="654.478" cy="484.252" r="44.791" style="fill:rgb(46,132,90);"/>
        </g>
        <g transform="matrix(0.644496,0,0,0.644496,402.51,174.607)">
            <circle cx="654.478" cy="484.252" r="44.791" style="fill:white;"/>
        </g>
        <g transform="matrix(0.580679,0,0,0.580679,444.277,205.511)">
            <circle cx="654.478" cy="484.252" r="44.791"/>
        </g>
        <g transform="matrix(0.380801,0,0,0.380801,584.045,294.603)">
            <circle cx="654.478" cy="484.252" r="44.791" style="fill:white;"/>
        </g>
    </g>
</svg>
