<?xml version="1.0" encoding="UTF-8" standalone="no"?>
<!DOCTYPE svg PUBLIC "-//W3C//DTD SVG 1.1//EN" "http://www.w3.org/Graphics/SVG/1.1/DTD/svg11.dtd">
<svg width="100%" height="100%" viewBox="0 0 138 84" version="1.1" xmlns="http://www.w3.org/2000/svg" xmlns:xlink="http://www.w3.org/1999/xlink" xml:space="preserve" xmlns:serif="http://www.serif.com/" style="fill-rule:evenodd;clip-rule:evenodd;stroke-linejoin:round;stroke-miterlimit:2;">
    <g transform="matrix(1,0,0,1,-758.242,-2137.25)">
        <g id="arrow.svg" transform="matrix(4.16667,0,0,4.16667,826.992,2178.92)">
            <g transform="matrix(1,0,0,1,-16.5,-10)">
                <clipPath id="_clip1">
                    <rect x="0" y="0" width="33" height="20"/>
                </clipPath>
                <g clip-path="url(#_clip1)">
                    <g transform="matrix(1,0,0,0.536923,-943.583,-532.208)">
                        <path d="M958.536,992.404C958.915,991.648 959.445,991.218 960,991.218C960.555,991.218 961.085,991.648 961.464,992.404L975.881,1021.24C976.423,1022.32 976.569,1023.9 976.251,1025.26C975.933,1026.62 975.213,1027.5 974.417,1027.5L945.583,1027.5C944.787,1027.5 944.067,1026.62 943.749,1025.26C943.431,1023.9 943.577,1022.32 944.119,1021.24L958.536,992.404Z" style="fill:rgb(181,181,181);"/>
                    </g>
                </g>
            </g>
        </g>
    </g>
</svg>
