<?xml version="1.0" encoding="UTF-8" standalone="no"?>
<!DOCTYPE svg PUBLIC "-//W3C//DTD SVG 1.1//EN" "http://www.w3.org/Graphics/SVG/1.1/DTD/svg11.dtd">
<svg width="100%" height="100%" viewBox="0 0 32 32" version="1.1" xmlns="http://www.w3.org/2000/svg" xmlns:xlink="http://www.w3.org/1999/xlink" xml:space="preserve" xmlns:serif="http://www.serif.com/" style="fill-rule:evenodd;clip-rule:evenodd;stroke-linejoin:round;stroke-miterlimit:2;">
    <g transform="matrix(1,0,0,1,-1731.07,-528.641)">
        <g transform="matrix(1,0,0,1,790.563,0.883016)">
            <g transform="matrix(1.14286,0,0,1.14286,-140.631,-73.3853)">
                <path d="M968.037,543.185c0.819,0.775 4.288,2.616 3.535,6.644c-0.747,3.971 -4.51,4.149 -4.51,4.149c0,0 -1.762,0.188 -4.793,-0.543c-0.828,-0.182 -1.594,-0.247 -2.269,-0.253c-0.675,0.006 -1.444,0.071 -2.269,0.253c-3.034,0.731 -4.793,0.543 -4.793,0.543c-0,0 -3.763,-0.178 -4.51,-4.149c-0.756,-4.028 2.716,-5.869 3.535,-6.644c0.656,-0.619 2.475,-1.844 3.853,-4.131c0.928,-1.509 2.509,-2.531 4.184,-2.497c1.675,-0.034 3.256,0.988 4.184,2.497c1.381,2.287 3.197,3.512 3.853,4.131Zm-4.117,1.615c-0.32,-0.302 -1.206,-0.9 -1.879,-2.015c-0.453,-0.736 -1.224,-1.235 -2.041,-1.218c-0.817,-0.017 -1.588,0.482 -2.041,1.218c-0.672,1.115 -1.559,1.713 -1.879,2.015c-0.4,0.378 -2.093,1.275 -1.724,3.24c0.364,1.937 2.199,2.024 2.199,2.024c0,0 0.858,0.092 2.338,-0.265c0.403,-0.088 0.778,-0.121 1.107,-0.124c0.329,0.003 0.702,0.036 1.106,0.124c1.479,0.357 2.338,0.265 2.338,0.265c0,0 1.836,-0.087 2.2,-2.024c0.367,-1.965 -1.325,-2.862 -1.724,-3.24Zm-13.32,-3.962c-2.393,0.331 -3.843,-1.728 -3.856,-3.818c-0.012,-2.197 1.163,-4.066 3.063,-4.238c1.978,-0.178 3.178,1.859 3.365,3.647c0.213,2.022 -0.506,4.125 -2.572,4.409Zm18.8,0c-2.066,-0.284 -2.785,-2.387 -2.572,-4.409c0.187,-1.788 1.387,-3.825 3.365,-3.647c1.9,0.172 3.075,2.041 3.063,4.238c-0.013,2.09 -1.463,4.149 -3.856,3.818Zm-13.044,-6.512c-2.268,0.215 -3.828,-1.722 -3.75,-4.153c0.069,-2.328 1.475,-4.075 3.216,-4.169c1.959,-0.103 3.2,1.713 3.253,3.978c0.047,2.056 -0.678,4.15 -2.719,4.344Zm7.288,-0c-2.041,-0.194 -2.769,-2.288 -2.719,-4.344c0.053,-2.265 1.297,-4.081 3.253,-3.978c1.741,0.094 3.147,1.841 3.216,4.169c0.078,2.431 -1.482,4.368 -3.75,4.153Z" style="fill:url(#_Linear1);"/>
            </g>
        </g>
        <g transform="matrix(1,0,0,1,790.563,0.883016)">
            <g transform="matrix(3.31275,0,0,0.50503,701.911,507.234)">
                <rect x="72.025" y="40.637" width="9.66" height="63.363" style="fill:none;"/>
            </g>
        </g>
    </g>
    <defs>
        <linearGradient id="_Linear1" x1="0" y1="0" x2="1" y2="0" gradientUnits="userSpaceOnUse" gradientTransform="matrix(26.512,0,0,28,946.744,540)"><stop offset="0" style="stop-color:rgb(137,178,227);stop-opacity:1"/><stop offset="1" style="stop-color:rgb(173,201,235);stop-opacity:1"/></linearGradient>
    </defs>
</svg>
