<?xml version="1.0" encoding="UTF-8" standalone="no"?>
<!DOCTYPE svg PUBLIC "-//W3C//DTD SVG 1.1//EN" "http://www.w3.org/Graphics/SVG/1.1/DTD/svg11.dtd">
<svg width="100%" height="100%" viewBox="0 0 32 32" version="1.1" xmlns="http://www.w3.org/2000/svg" xmlns:xlink="http://www.w3.org/1999/xlink" xml:space="preserve" xmlns:serif="http://www.serif.com/" style="fill-rule:evenodd;clip-rule:evenodd;stroke-linejoin:round;stroke-miterlimit:2;">
    <g transform="matrix(1,0,0,1,-1731.07,-344.641)">
        <g transform="matrix(1,0,0,1,787.075,0)">
            <g transform="matrix(1.14286,0,0,1.14286,-137.143,-256.502)">
                <path d="M968.037,543.185C968.856,543.96 972.325,545.801 971.572,549.829C970.825,553.8 967.062,553.978 967.062,553.978C967.062,553.978 965.3,554.166 962.269,553.435C961.441,553.253 960.675,553.188 960,553.182C959.325,553.188 958.556,553.253 957.731,553.435C954.697,554.166 952.938,553.978 952.938,553.978C952.938,553.978 949.175,553.8 948.428,549.829C947.672,545.801 951.144,543.96 951.963,543.185C952.619,542.566 954.438,541.341 955.816,539.054C956.744,537.545 958.325,536.523 960,536.557C961.675,536.523 963.256,537.545 964.184,539.054C965.565,541.341 967.381,542.566 968.037,543.185ZM963.92,544.8C963.6,544.498 962.714,543.9 962.041,542.785C961.588,542.049 960.817,541.55 960,541.567C959.183,541.55 958.412,542.049 957.959,542.785C957.287,543.9 956.4,544.498 956.08,544.8C955.68,545.178 953.987,546.075 954.356,548.04C954.72,549.977 956.555,550.064 956.555,550.064C956.555,550.064 957.413,550.156 958.893,549.799C959.296,549.711 959.671,549.678 960,549.675C960.329,549.678 960.702,549.711 961.106,549.799C962.585,550.156 963.444,550.064 963.444,550.064C963.444,550.064 965.28,549.977 965.644,548.04C966.011,546.075 964.319,545.178 963.92,544.8ZM950.6,540.838C948.207,541.169 946.757,539.11 946.744,537.02C946.732,534.823 947.907,532.954 949.807,532.782C951.785,532.604 952.985,534.641 953.172,536.429C953.385,538.451 952.666,540.554 950.6,540.838ZM969.4,540.838C967.334,540.554 966.615,538.451 966.828,536.429C967.015,534.641 968.215,532.604 970.193,532.782C972.093,532.954 973.268,534.823 973.256,537.02C973.243,539.11 971.793,541.169 969.4,540.838ZM956.356,534.326C954.088,534.541 952.528,532.604 952.606,530.173C952.675,527.845 954.081,526.098 955.822,526.004C957.781,525.901 959.022,527.717 959.075,529.982C959.122,532.038 958.397,534.132 956.356,534.326ZM963.644,534.326C961.603,534.132 960.875,532.038 960.925,529.982C960.978,527.717 962.222,525.901 964.178,526.004C965.919,526.098 967.325,527.845 967.394,530.173C967.472,532.604 965.912,534.541 963.644,534.326Z" style="fill:rgb(210,210,210);"/>
            </g>
        </g>
        <g transform="matrix(1,0,0,1,787.075,0)">
            <g transform="matrix(1.06667,0,0,1.06667,-818.133,-46.8261)">
                <rect x="1652" y="367" width="30" height="30" style="fill:none;"/>
            </g>
        </g>
    </g>
</svg>
