<?xml version="1.0" encoding="UTF-8" standalone="no"?>
<!DOCTYPE svg PUBLIC "-//W3C//DTD SVG 1.1//EN" "http://www.w3.org/Graphics/SVG/1.1/DTD/svg11.dtd">
<svg width="100%" height="100%" viewBox="0 0 22 32" version="1.1" xmlns="http://www.w3.org/2000/svg" xmlns:xlink="http://www.w3.org/1999/xlink" xml:space="preserve" xmlns:serif="http://www.serif.com/" style="fill-rule:evenodd;clip-rule:evenodd;stroke-linejoin:round;stroke-miterlimit:2;">
    <g transform="matrix(1,0,0,1,-469.384,-262.922)">
        <g transform="matrix(0.375,0,0,1,0,0)">
            <g transform="matrix(0.451048,0,0,0.169143,748.838,169.894)">
                <g>
                    <g transform="matrix(0.184755,0,0,0.184755,1114.86,550)">
                        <path d="M342.444,322.924C323.57,325.117 309.176,340.445 307.838,359.775C307.261,368.104 307.442,368.669 326.321,417.25C369.273,527.78 379.679,554.382 381.429,558.126C385.669,567.193 391.631,575.723 399.08,583.379C404.796,589.254 408.566,592.413 414.942,596.672C426.148,604.156 431.709,606.225 475.314,619.136C517.79,631.713 540.996,640.072 560.993,649.997C586.899,662.855 604.974,677.481 616.407,694.835C624.61,707.287 631.875,729.616 635.036,752.093C636.272,760.879 636.28,780.301 635.051,788.244C632.384,805.483 627.057,819.929 618.908,832.018C614.574,838.447 616.082,837.371 622.383,829.536C640.215,807.365 658.38,769.472 667.649,735.11C678.866,693.523 680.392,648.866 672.04,606.599C655.775,524.29 603.814,453.257 530.632,413.289C526.034,410.777 508.52,401.597 484.776,389.252C481.173,387.378 476.26,384.813 473.858,383.552C471.456,382.29 466.543,379.725 462.94,377.852C459.337,375.979 448.965,370.575 439.891,365.844C430.817,361.112 420.664,355.818 417.328,354.079C407.159,348.777 400.336,345.215 395.249,342.552C371.721,330.235 361.762,325.256 358.923,324.392C355.945,323.486 348.38,322.323 346.482,322.479C346.082,322.512 344.265,322.712 342.444,322.924Z" style="fill:url(#_Radial1);"/>
                    </g>
                    <g transform="matrix(0.184755,0,0,0.184755,1114.86,550)">
                        <path d="M393.737,735.544C392.433,736.316 390.603,737.434 389.669,738.027C388.734,738.621 386.66,739.91 385.059,740.893C379.182,744.5 363.552,754.131 350.121,762.422C341.294,767.871 339.984,768.683 328.771,775.642C324.767,778.126 320.509,780.744 319.308,781.46C318.107,782.176 312.976,785.336 307.905,788.482C302.834,791.627 293.991,797.087 288.253,800.614C282.515,804.14 272.252,810.471 265.447,814.682C258.641,818.892 249.688,824.413 245.552,826.95C241.415,829.486 237.594,831.936 237.06,832.394C236.267,833.074 199.475,855.865 181.014,867.112C166.993,875.653 150.773,881.366 134.169,883.61C126.439,884.654 111.811,884.658 104.103,883.616C83.202,880.794 63.948,872.999 47.458,860.687C40.989,855.857 28.812,843.689 24.156,837.403C13.185,822.592 6.088,806.705 2.413,788.729C1.567,784.592 0.767,781.099 0.635,780.965C0.292,780.618 0.912,786.867 2.032,795.037C3.196,803.534 5.676,815.824 8.348,826.335C29.023,907.68 87.856,973.842 167.5,1005.32C190.434,1014.38 213.577,1020.09 238.758,1022.89C248.22,1023.95 275.003,1024.37 284.878,1023.62C330.165,1020.19 369.597,1006.86 410.049,981.295C413.652,979.018 420.421,974.75 425.091,971.809C429.762,968.869 435.657,965.131 438.193,963.504C440.728,961.876 443.785,959.953 444.986,959.231C446.187,958.508 448.589,956.999 450.324,955.876C452.059,954.754 459.483,950.058 466.822,945.441L496.17,926.904L506.247,920.539L506.61,920.31L507.72,919.609L508.248,919.275L515.667,914.589L541.307,898.394C573.977,877.865 583.719,870.658 598.897,855.79C605.225,849.593 614.765,839.013 615.239,837.67C615.335,837.397 617.031,834.781 619.007,831.857C627.039,819.972 632.395,805.413 635.051,788.244C636.28,780.301 636.272,760.879 635.036,752.093C632.647,735.106 627.219,715.838 621.367,703.569C611.77,683.451 591.326,665.171 561.957,650.449C553.848,646.384 545.474,642.664 544.539,642.713C544.096,642.736 516.766,659.441 483.806,679.837C450.846,700.233 422.24,717.936 420.239,719.178C418.237,720.421 414.798,722.522 412.596,723.846L393.737,735.544Z" style="fill:url(#_Radial2);fill-rule:nonzero;"/>
                    </g>
                    <g transform="matrix(0.184755,0,0,0.184755,1114.86,550)">
                        <path d="M0.141,637.697L0.282,779.752L2.121,788.001C7.87,813.792 17.831,832.387 35.148,849.658C43.293,857.782 49.522,862.68 58.349,867.903C77.026,878.956 97.128,884.409 119.146,884.399C142.207,884.387 162.156,878.635 182.713,866.07C186.182,863.95 199.775,855.581 212.919,847.472L236.817,832.729L236.817,495.643L236.81,341.457C236.805,243.089 236.625,184.67 236.314,180.087C234.354,151.286 222.309,124.809 202.055,104.782C195.839,98.636 190.528,94.531 174.706,83.643C166.833,78.224 152.421,68.299 142.68,61.586C132.939,54.873 116.89,43.814 107.015,37.009C97.14,30.206 83.056,20.499 75.717,15.439C60.427,4.897 59.231,4.163 54.609,2.51C48.597,0.359 42.226,-0.431 36.17,0.223C18.516,2.13 4.385,14.876 0.711,32.204C0.14,34.9 0.034,70.779 0.027,265.516L0.019,495.643L0,495.643L0.141,637.697Z" style="fill:url(#_Linear3);fill-rule:nonzero;"/>
                    </g>
                    <g transform="matrix(1,0,0,1,-787.075,0)">
                        <clipPath id="_clip4">
                            <path d="M1902.04,694.298L1901.98,694.063L1901.96,667.818L1901.93,641.572L1901.93,641.572L1901.94,599.055C1901.94,563.077 1901.96,556.448 1902.06,555.95C1902.74,552.748 1905.35,550.393 1908.61,550.041C1909.73,549.92 1910.91,550.066 1912.02,550.464C1912.87,550.769 1913.1,550.905 1915.92,552.852C1917.28,553.787 1919.88,555.581 1921.7,556.838C1923.53,558.095 1926.49,560.138 1928.29,561.378C1930.09,562.619 1932.75,564.452 1934.21,565.453C1937.13,567.465 1938.11,568.223 1939.26,569.359C1943,573.059 1945.23,577.951 1945.59,583.272C1945.65,584.119 1945.68,594.912 1945.68,613.086L1945.68,641.572L1945.68,703.821C1945.71,703.804 1945.72,703.794 1945.73,703.789C1945.83,703.704 1946.53,703.252 1947.3,702.783C1948.06,702.314 1949.72,701.294 1950.97,700.517C1952.23,699.739 1954.13,698.569 1955.19,697.917C1956.25,697.266 1957.88,696.257 1958.82,695.676C1959.76,695.095 1960.7,694.511 1960.92,694.379C1961.15,694.246 1961.93,693.763 1962.67,693.304C1964.74,692.018 1964.99,691.868 1966.62,690.861C1969.1,689.329 1971.99,687.55 1973.07,686.884C1973.37,686.702 1973.75,686.464 1973.92,686.354C1974.1,686.245 1974.43,686.038 1974.68,685.895L1978.16,683.734C1978.57,683.49 1979.2,683.101 1979.57,682.872C1979.94,682.642 1985.23,679.372 1991.32,675.603C1997.41,671.835 2002.46,668.749 2002.54,668.744C2002.58,668.742 2002.69,668.778 2002.87,668.844C1999.7,667.496 1995.77,666.172 1989.75,664.388C1981.69,662.003 1980.66,661.621 1978.59,660.238C1977.41,659.451 1976.72,658.868 1975.66,657.782C1974.29,656.368 1973.18,654.792 1972.4,653.117C1972.08,652.425 1970.16,647.51 1962.22,627.089C1958.73,618.113 1958.7,618.009 1958.81,616.47C1959.05,612.899 1961.71,610.067 1965.2,609.662C1965.54,609.623 1965.87,609.586 1965.94,609.58C1966.3,609.551 1967.69,609.766 1968.24,609.933C1968.77,610.093 1970.61,611.013 1974.96,613.288C1975.89,613.78 1977.15,614.438 1979.03,615.418C1979.65,615.739 1981.53,616.717 1983.2,617.591C1984.88,618.466 1986.8,619.464 1987.46,619.81C1988.13,620.156 1989.04,620.63 1989.48,620.863C1989.92,621.096 1990.83,621.57 1991.5,621.916C1995.88,624.197 1999.12,625.893 1999.97,626.357C2013.49,633.741 2023.09,646.865 2026.09,662.072C2027.64,669.881 2027.36,678.132 2025.28,685.815C2023.57,692.164 2020.21,699.165 2016.92,703.261C2015.76,704.708 2015.48,704.907 2016.28,703.719C2016.39,703.558 2016.49,703.393 2016.6,703.227C2016.5,703.384 2016.4,703.538 2016.3,703.69C2015.93,704.23 2015.62,704.713 2015.6,704.764C2015.51,705.012 2013.75,706.967 2012.58,708.111C2009.78,710.858 2007.98,712.19 2001.94,715.983L1997.2,718.975L1995.83,719.841L1995.73,719.902L1995.53,720.032L1995.46,720.074L1993.6,721.25L1988.18,724.675C1986.82,725.528 1985.45,726.396 1985.13,726.603C1984.81,726.81 1984.37,727.089 1984.14,727.223C1983.92,727.356 1983.36,727.711 1982.89,728.012C1982.42,728.313 1981.33,729.003 1980.47,729.547C1979.61,730.09 1978.36,730.878 1977.69,731.299C1970.22,736.022 1962.93,738.485 1954.56,739.119C1952.74,739.257 1947.79,739.18 1946.04,738.984C1941.39,738.467 1937.11,737.412 1932.88,735.738C1918.16,729.922 1907.29,717.698 1903.47,702.669C1902.98,700.728 1902.52,698.457 1902.31,696.887C1902.12,695.512 1902.01,694.431 1902.04,694.298ZM1942.38,705.892L1941.27,706.575C1938.84,708.073 1936.33,709.619 1935.69,710.011C1937.55,708.872 1940.25,707.211 1942.38,705.892ZM1935.67,710.024C1934.69,710.62 1933.72,711.133 1932.75,711.566C1933.66,711.169 1934.54,710.713 1935.37,710.203C1935.47,710.145 1935.57,710.085 1935.67,710.024ZM1927.95,713.05C1926.66,713.283 1925.33,713.396 1923.94,713.397C1924.98,713.396 1926.01,713.348 1926.72,713.251C1927.13,713.196 1927.54,713.128 1927.95,713.05ZM1923.92,713.397C1922.49,713.396 1921.1,713.27 1919.75,713.018C1920.22,713.11 1920.69,713.188 1921.16,713.252C1921.87,713.348 1922.89,713.396 1923.92,713.397ZM1913.7,710.903C1913.37,710.728 1913.04,710.543 1912.71,710.349C1911.54,709.656 1910.61,708.993 1909.63,708.118C1910.03,708.478 1910.4,708.79 1910.7,709.016C1911.65,709.727 1912.65,710.357 1913.7,710.903ZM1907.66,706.183C1906.95,705.408 1906.31,704.613 1905.74,703.784C1905.95,704.097 1906.17,704.407 1906.39,704.714C1906.69,705.11 1907.14,705.632 1907.66,706.183ZM1903.46,699.426C1903.2,698.762 1902.98,698.071 1902.77,697.348C1902.97,698.057 1903.2,698.749 1903.46,699.426ZM2008.42,671.642C2010.55,672.935 2012.36,674.346 2013.8,675.847C2012.36,674.333 2010.57,672.939 2008.42,671.642ZM2017.7,682.413C2018.38,684.418 2018.95,686.786 2019.26,688.953C2018.93,686.664 2018.38,684.384 2017.7,682.413Z"/>
                        </clipPath>
                        <g clip-path="url(#_clip4)">
                            <rect x="1887.08" y="540" width="155" height="220" style="fill:rgb(186,186,186);fill-opacity:0.69;"/>
                        </g>
                    </g>
                </g>
            </g>
        </g>
    </g>
    <defs>
        <radialGradient id="_Radial1" cx="0" cy="0" r="1" gradientUnits="userSpaceOnUse" gradientTransform="matrix(-346.463,-399.84,287.703,-249.295,654.126,722.251)"><stop offset="0" style="stop-color:rgb(0,202,204);stop-opacity:1"/><stop offset="1" style="stop-color:rgb(4,143,206);stop-opacity:1"/></radialGradient>
        <radialGradient id="_Radial2" cx="0" cy="0" r="1" gradientUnits="userSpaceOnUse" gradientTransform="matrix(526.002,-225.395,375.628,876.6,88.8183,915.135)"><stop offset="0" style="stop-color:rgb(0,187,236);stop-opacity:1"/><stop offset="1" style="stop-color:rgb(39,86,169);stop-opacity:1"/></radialGradient>
        <linearGradient id="_Linear3" x1="0" y1="0" x2="1" y2="0" gradientUnits="userSpaceOnUse" gradientTransform="matrix(5.41538e-14,884.399,-884.399,5.41538e-14,118.409,0)"><stop offset="0" style="stop-color:rgb(0,187,236);stop-opacity:1"/><stop offset="1" style="stop-color:rgb(39,86,169);stop-opacity:1"/></linearGradient>
    </defs>
</svg>
