<?xml version="1.0" encoding="UTF-8" standalone="no"?>
<!DOCTYPE svg PUBLIC "-//W3C//DTD SVG 1.1//EN" "http://www.w3.org/Graphics/SVG/1.1/DTD/svg11.dtd">
<svg width="100%" height="100%" viewBox="0 0 32 32" version="1.1" xmlns="http://www.w3.org/2000/svg" xmlns:xlink="http://www.w3.org/1999/xlink" xml:space="preserve" xmlns:serif="http://www.serif.com/" style="fill-rule:evenodd;clip-rule:evenodd;stroke-linejoin:round;stroke-miterlimit:2;">
    <g transform="matrix(1,0,0,1,-3842.28,-344.641)">
        <g transform="matrix(1,0,0,1,2785.07,0)">
            <g transform="matrix(0.03125,0,0,0.03125,1062.61,344.641)">
                <path d="M2.032,795.037C1.012,787.592 0.282,779.752 0.282,779.752C0.282,779.752 0.14,34.9 0.711,32.204C4.385,14.876 18.516,2.13 36.169,0.223C42.226,-0.431 48.597,0.359 54.609,2.51C59.231,4.163 195.839,98.636 202.055,104.782C222.309,124.809 234.354,151.286 236.314,180.087C236.625,184.67 236.805,243.089 236.81,341.457L236.817,495.643L236.817,832.565C236.948,832.477 237.03,832.42 237.06,832.394C237.594,831.936 544.096,642.736 544.539,642.713C544.787,642.7 545.561,642.954 546.715,643.411C529.487,636.058 508.16,628.862 475.314,619.136C431.709,606.225 426.148,604.156 414.942,596.672C408.566,592.413 404.796,589.254 399.08,583.379C391.631,575.723 385.669,567.193 381.429,558.126C379.679,554.382 369.273,527.78 326.321,417.25C307.442,368.669 307.261,368.104 307.838,359.775C309.176,340.445 323.57,325.117 342.444,322.924C344.265,322.712 346.082,322.512 346.482,322.479C348.38,322.323 355.945,323.486 358.923,324.392C361.762,325.256 526.034,410.777 530.632,413.289C603.814,453.257 655.775,524.29 672.04,606.599C680.392,648.866 678.866,693.523 667.649,735.11C658.38,769.472 640.215,807.365 622.383,829.536C616.082,837.371 605.225,849.593 598.897,855.79C583.719,870.658 413.652,979.018 410.049,981.295C369.597,1006.86 330.165,1020.19 284.878,1023.62C275.003,1024.37 248.22,1023.95 238.758,1022.89C213.577,1020.09 190.434,1014.38 167.5,1005.32C87.856,973.842 29.023,907.68 8.348,826.335C5.676,815.824 3.196,803.534 2.032,795.037Z" style="fill:rgb(91,35,35);"/>
            </g>
        </g>
        <g transform="matrix(1,0,0,1,2785.07,0)">
            <g transform="matrix(1.06667,0,0,1.06667,-704.932,-46.8261)">
                <rect x="1652" y="367" width="30" height="30" style="fill:none;"/>
            </g>
        </g>
    </g>
</svg>
