<?xml version="1.0" encoding="UTF-8" standalone="no"?>
<!DOCTYPE svg PUBLIC "-//W3C//DTD SVG 1.1//EN" "http://www.w3.org/Graphics/SVG/1.1/DTD/svg11.dtd">
<svg width="100%" height="100%" viewBox="0 0 208 200" version="1.1" xmlns="http://www.w3.org/2000/svg" xmlns:xlink="http://www.w3.org/1999/xlink" xml:space="preserve" xmlns:serif="http://www.serif.com/" style="fill-rule:evenodd;clip-rule:evenodd;stroke-linejoin:round;stroke-miterlimit:2;">
    <path d="M206.413,74.484C201.928,60.679 186.574,53.293 172.131,57.986C157.687,62.679 141.381,82.657 112.888,96.067C117.748,63.511 130.075,41.73 130.075,27.505C130.075,12.314 118.309,0 103.792,0C89.276,0 77.507,12.314 77.507,27.505C77.507,42.696 91.465,64.38 95.419,95.616C65.955,80.933 49.042,62.48 35.522,58.082C21.074,53.389 5.728,60.775 1.24,74.58C-3.248,88.385 4.829,103.385 19.277,108.087C33.725,112.789 58.66,106.208 89.59,112.1C66.521,135.587 43.74,145.967 35.385,157.478C26.453,169.748 28.734,186.627 40.482,195.16C52.23,203.693 68.986,200.647 77.913,188.358C86.84,176.069 88.295,150.32 103.452,122.726C118.66,151.914 121.492,176.797 129.849,188.299C138.784,200.587 155.542,203.631 167.285,195.101C179.029,186.57 181.311,169.689 172.393,157.398C163.475,145.107 139.415,135.769 117.857,112.823C150.322,107.384 174.865,112.367 188.376,107.982C202.824,103.298 210.898,88.291 206.413,74.484Z" style="fill:rgb(28,66,119);fill-rule:nonzero;"/>
    <g transform="matrix(0.3,0,0,-0.3,72.6782,140)">
        <path d="M206.413,74.484C201.928,60.679 186.574,53.293 172.131,57.986C157.687,62.679 141.381,82.657 112.888,96.067C117.748,63.511 130.075,41.73 130.075,27.505C130.075,12.314 118.309,0 103.792,0C89.276,0 77.507,12.314 77.507,27.505C77.507,42.696 91.465,64.38 95.419,95.616C65.955,80.933 49.042,62.48 35.522,58.082C21.074,53.389 5.728,60.775 1.24,74.58C-3.248,88.385 4.829,103.385 19.277,108.087C33.725,112.789 58.66,106.208 89.59,112.1C66.521,135.587 43.74,145.967 35.385,157.478C26.453,169.748 28.734,186.627 40.482,195.16C52.23,203.693 68.986,200.647 77.913,188.358C86.84,176.069 88.295,150.32 103.452,122.726C118.66,151.914 121.492,176.797 129.849,188.299C138.784,200.587 155.542,203.631 167.285,195.101C179.029,186.57 181.311,169.689 172.393,157.398C163.475,145.107 139.415,135.769 117.857,112.823C150.322,107.384 174.865,112.367 188.376,107.982C202.824,103.298 210.898,88.291 206.413,74.484Z" style="fill:rgb(159,182,214);fill-rule:nonzero;"/>
    </g>
</svg>
