<?xml version="1.0" encoding="UTF-8" standalone="no"?>
<!DOCTYPE svg PUBLIC "-//W3C//DTD SVG 1.1//EN" "http://www.w3.org/Graphics/SVG/1.1/DTD/svg11.dtd">
<svg width="100%" height="100%" viewBox="0 0 35 38" version="1.1" xmlns="http://www.w3.org/2000/svg" xmlns:xlink="http://www.w3.org/1999/xlink" xml:space="preserve" xmlns:serif="http://www.serif.com/" style="fill-rule:evenodd;clip-rule:evenodd;stroke-linejoin:round;stroke-miterlimit:2;">
    <g transform="matrix(1,0,0,1,-661.995,-837.391)">
        <g transform="matrix(1,0,0,1,-38.6564,-24.4299)">
            <path d="M734.929,896.806C733.301,897.441 731.145,898.071 728.459,898.698C725.774,899.324 723.096,899.638 720.427,899.638C714.242,899.638 709.4,897.957 705.901,894.596C702.401,891.235 700.652,886.593 700.652,880.668C700.652,875.02 702.417,870.467 705.949,867.008C709.481,863.55 714.405,861.82 720.72,861.82C723.112,861.82 725.391,862.036 727.556,862.467C729.721,862.899 732.129,863.757 734.782,865.043L734.782,873.564L733.733,873.564C733.277,873.222 732.61,872.738 731.731,872.111C730.852,871.484 730.005,870.951 729.192,870.512C728.248,869.991 727.145,869.543 725.883,869.169C724.622,868.795 723.283,868.608 721.867,868.608C720.207,868.608 718.702,868.852 717.351,869.34C716,869.828 714.787,870.577 713.713,871.586C712.688,872.563 711.878,873.804 711.284,875.309C710.69,876.815 710.393,878.552 710.393,880.522C710.393,884.542 711.459,887.618 713.591,889.75C715.723,891.882 718.873,892.948 723.039,892.948C723.397,892.948 723.792,892.94 724.223,892.924C724.655,892.908 725.049,892.883 725.407,892.851L725.407,885.722L718.156,885.722L718.156,878.861L734.929,878.861L734.929,896.806Z" style="fill:rgb(0,111,250);"/>
        </g>
    </g>
</svg>
