<?xml version="1.0" encoding="UTF-8" standalone="no"?>
<!DOCTYPE svg PUBLIC "-//W3C//DTD SVG 1.1//EN" "http://www.w3.org/Graphics/SVG/1.1/DTD/svg11.dtd">
<svg width="100%" height="100%" viewBox="0 0 32 32" version="1.1" xmlns="http://www.w3.org/2000/svg" xmlns:xlink="http://www.w3.org/1999/xlink" xml:space="preserve" xmlns:serif="http://www.serif.com/" style="fill-rule:evenodd;clip-rule:evenodd;stroke-linejoin:round;stroke-miterlimit:2;">
    <g transform="matrix(1,0,0,1,-235.889,-262.922)">
        <g transform="matrix(0.375,0,0,1,0,0)">
            <g transform="matrix(0.436376,0,0,0.163641,159.315,176.639)">
                <g>
                    <g transform="matrix(1,0,0,1,1075.5,525.048)">
                        <path d="M41.817,100C41.817,93.65 42.917,87.558 44.833,81.85L11.167,56.683C4.406,70.12 0.895,84.958 0.917,100C0.917,115.567 4.6,130.25 11.15,143.283L44.783,118.075C42.822,112.25 41.82,106.146 41.817,100" style="fill:rgb(241,219,153);fill-rule:nonzero;"/>
                    </g>
                    <g transform="matrix(1,0,0,1,1075.5,525.048)">
                        <path d="M100.917,42.225C115,42.225 127.725,47.108 137.725,55.108L166.817,26.667C149.092,11.558 126.367,2.225 100.917,2.225C61.4,2.225 27.433,24.35 11.167,56.683L44.833,81.85C52.583,58.8 74.683,42.225 100.917,42.225" style="fill:rgb(242,168,161);fill-rule:nonzero;"/>
                    </g>
                    <g transform="matrix(1,0,0,1,1075.5,525.048)">
                        <path d="M100.917,157.775C74.675,157.775 52.542,141.125 44.783,118.075L11.15,143.283C27.408,175.617 61.392,197.775 100.917,197.775C125.3,197.775 148.583,189.3 166.067,173.408L134.117,149.225C125.108,154.783 113.758,157.775 100.908,157.775" style="fill:rgb(142,214,161);fill-rule:nonzero;"/>
                    </g>
                    <g transform="matrix(1,0,0,1,1075.5,525.048)">
                        <path d="M196.367,100C196.367,94.225 195.45,88 194.092,82.225L100.908,82.225L100.908,120L154.542,120C151.867,132.883 144.558,142.783 134.117,149.225L166.067,173.408C184.425,156.725 196.367,131.875 196.367,100" style="fill:rgb(129,166,227);fill-rule:nonzero;"/>
                    </g>
                </g>
            </g>
        </g>
    </g>
</svg>
