<?xml version="1.0" encoding="UTF-8" standalone="no"?>
<!DOCTYPE svg PUBLIC "-//W3C//DTD SVG 1.1//EN" "http://www.w3.org/Graphics/SVG/1.1/DTD/svg11.dtd">
<svg width="100%" height="100%" viewBox="0 0 32 32" version="1.1" xmlns="http://www.w3.org/2000/svg" xmlns:xlink="http://www.w3.org/1999/xlink" xml:space="preserve" xmlns:serif="http://www.serif.com/" style="fill-rule:evenodd;clip-rule:evenodd;stroke-linejoin:round;stroke-miterlimit:2;">
    <g transform="matrix(1,0,0,1,-3615.02,-344.641)">
        <g transform="matrix(1,0,0,1,2785.07,0)">
            <g id="path12" transform="matrix(0.458903,0,0,0.447111,830.384,345.032)">
                <path d="M33.979,30.655L68.081,30.655L68.287,31.744C68.611,33.458 68.781,35.485 68.781,37.68C68.781,45.05 66.733,54.149 60.244,60.645C53.958,67.185 45.936,70.695 35.3,70.695C15.594,70.695 -0.951,54.616 -0.951,34.91C-0.951,15.204 15.594,-0.875 35.3,-0.875C46.198,-0.875 53.96,3.402 59.793,8.975L60.8,9.938L52.289,18.449L51.376,17.593C47.556,14.01 42.38,11.225 35.29,11.225C22.17,11.225 11.901,21.79 11.901,34.91C11.901,48.03 22.17,58.595 35.29,58.595C43.804,58.595 48.659,55.193 51.765,52.086C53.975,49.877 55.482,46.811 56.239,42.746L33.979,42.756L33.979,30.655Z" style="fill:rgb(91,35,35);"/>
            </g>
        </g>
        <g transform="matrix(1,0,0,1,2785.07,0)">
            <g transform="matrix(1.06667,0,0,1.06667,-932.185,-46.8261)">
                <rect x="1652" y="367" width="30" height="30" style="fill:none;"/>
            </g>
        </g>
    </g>
</svg>
