<?xml version="1.0" encoding="UTF-8" standalone="no"?>
<!DOCTYPE svg PUBLIC "-//W3C//DTD SVG 1.1//EN" "http://www.w3.org/Graphics/SVG/1.1/DTD/svg11.dtd">
<svg width="100%" height="100%" viewBox="0 0 237 237" version="1.1" xmlns="http://www.w3.org/2000/svg" xmlns:xlink="http://www.w3.org/1999/xlink" xml:space="preserve" xmlns:serif="http://www.serif.com/" style="fill-rule:evenodd;clip-rule:evenodd;stroke-linecap:round;stroke-linejoin:round;stroke-miterlimit:1.5;">
    <g id="_-71d5cbff" serif:id="#71d5cbff" transform="matrix(0.75759,0,0,0.75759,20.3988,34.3689)">
        <g transform="matrix(1.26155,0,0,1.26155,-23.5578,-48.2319)">
            <path d="M86,91l-22,52c-37.059,-12.579 -64.366,-46.017 -64.526,-82.034c0.018,-1.836 1.01,-3.525 2.605,-4.435c1.595,-0.909 3.553,-0.903 5.143,0.016c48.481,28.761 53.044,-0.295 78.778,34.453Z" style="fill:rgb(113,213,203);stroke:rgb(69,100,100);stroke-width:1.05px;"/>
        </g>
        <g transform="matrix(-1.09133,-0.632873,-0.632873,1.09133,320.366,40.1657)">
            <path d="M86,91l-22,52c-37.059,-12.579 -64.366,-46.017 -64.526,-82.034c0.018,-1.836 1.01,-3.525 2.605,-4.435c1.595,-0.909 3.553,-0.903 5.143,0.016c48.481,28.761 53.044,-0.295 78.778,34.453Z" style="fill:rgb(113,213,203);stroke:rgb(69,100,100);stroke-width:1.05px;"/>
        </g>
        <g transform="matrix(1.26155,0,0,1.26155,-23.5578,-52.8265)">
            <path d="M109.291,184.258c-27.887,-2.903 -49.659,-26.508 -49.659,-55.158c0,-30.608 24.85,-55.458 55.458,-55.458c30.608,-0 55.458,24.85 55.458,55.458c0,2.899 -0.223,5.747 -0.653,8.526c-0.392,32.314 -21.412,59.7 -50.491,69.589c-4.087,1.409 -8.621,0.26 -11.544,-2.925c-2.923,-3.186 -3.68,-7.801 -1.926,-11.753c1.187,-2.659 2.31,-5.423 3.357,-8.279Z" style="fill:rgb(113,213,203);stroke:rgb(69,100,100);stroke-width:1.05px;"/>
        </g>
        <g transform="matrix(1.26155,0,0,1.26155,-23.5578,-48.2319)">
            <circle cx="74" cy="113" r="4.702" style="fill:rgb(69,100,100);"/>
        </g>
        <g transform="matrix(1.26155,0,0,1.26155,42.4194,-52.9018)">
            <circle cx="74" cy="113" r="4.702" style="fill:rgb(69,100,100);"/>
        </g>
        <g transform="matrix(2.14656,0,0,2.14656,-51.2016,-112.832)">
            <circle cx="74" cy="113" r="4.702" style="fill:rgb(69,100,100);"/>
        </g>
        <g transform="matrix(1.21857,0.326514,-0.326514,1.21857,-4.75442,-104.817)">
            <path d="M147.5,60c16.833,0 30.5,4.257 30.5,9.5c0,5.243 -13.667,9.5 -30.5,9.5c-16.833,0 -30.5,-4.257 -30.5,-9.5c0,-5.243 13.667,-9.5 30.5,-9.5Zm0,4.75c8.417,0 15.25,2.128 15.25,4.75c0,2.622 -6.833,4.75 -15.25,4.75c-8.417,0 -15.25,-2.128 -15.25,-4.75c0,-2.622 6.833,-4.75 15.25,-4.75Z" style="fill:rgb(113,213,203);stroke:rgb(69,100,100);stroke-width:1.05px;"/>
        </g>
    </g>
</svg>
