<?xml version="1.0" encoding="UTF-8" ?>
<!DOCTYPE svg PUBLIC "-//W3C//DTD SVG 1.1//EN" "http://www.w3.org/Graphics/SVG/1.1/DTD/svg11.dtd">
<svg width="237pt" height="237pt" viewBox="0 0 237 237" version="1.1" xmlns="http://www.w3.org/2000/svg">
<g id="#373b3fff">
<path fill="#373b3f" opacity="1.00" d=" M 104.22 121.19 C 110.93 121.67 101.30 125.98 104.22 121.19 Z" />
</g>
<g id="#3d4e51ff">
<path fill="#3d4e51" opacity="1.00" d=" M 99.04 120.05 L 99.83 119.72 C 102.84 120.07 110.65 119.57 108.52 124.53 C 108.15 131.61 95.25 125.30 99.04 120.05 M 104.22 121.19 C 101.30 125.98 110.93 121.67 104.22 121.19 Z" />
</g>
<g id="#456464ff">
<path fill="#456464" opacity="1.00" d=" M 0.00 56.05 C 5.03 56.12 11.51 54.41 13.95 60.06 C 10.02 56.88 4.81 56.97 0.00 56.99 L 0.00 56.05 Z" />
<path fill="#456464" opacity="1.00" d=" M 118.22 56.99 C 137.48 53.19 159.06 60.02 170.81 76.22 C 168.66 84.00 158.12 85.90 151.17 83.27 C 154.67 87.00 158.20 91.74 158.92 97.87 C 164.25 107.45 173.94 98.72 181.55 101.87 C 198.35 111.63 218.10 112.75 237.00 111.16 L 237.00 113.12 C 231.94 113.56 226.17 111.72 221.72 114.93 L 220.89 115.27 C 218.02 115.24 215.18 115.31 212.33 115.12 L 211.53 114.91 C 207.68 112.30 203.51 110.02 198.75 109.99 C 198.32 109.92 197.44 109.79 197.01 109.73 C 196.42 109.60 195.25 109.35 194.66 109.22 C 194.00 109.19 192.67 109.12 192.00 109.09 C 188.91 107.33 185.94 105.36 182.80 103.67 C 181.86 102.52 180.28 102.33 179.00 103.01 C 178.58 102.92 177.74 102.76 177.31 102.68 C 169.99 102.28 164.97 107.88 158.96 100.67 C 158.78 100.37 158.41 99.76 158.22 99.46 C 158.08 99.12 157.80 98.45 157.66 98.12 C 157.52 97.80 157.25 97.17 157.11 96.85 L 156.83 96.22 C 156.68 95.91 156.39 95.31 156.24 95.00 L 155.92 94.39 C 155.75 94.10 155.39 93.51 155.21 93.22 C 151.76 89.96 144.80 79.34 154.27 81.86 C 159.09 85.56 173.93 79.00 166.00 73.80 C 165.75 73.60 165.25 73.18 165.00 72.98 C 164.79 72.75 164.36 72.29 164.15 72.06 C 163.96 71.79 163.58 71.25 163.39 70.98 C 154.84 62.03 141.16 56.90 128.45 57.51 C 123.93 55.51 114.23 57.68 116.59 64.23 C 116.98 64.57 117.77 65.26 118.16 65.61 C 118.61 67.57 118.70 69.60 118.28 71.57 C 117.71 71.64 116.56 71.78 115.99 71.85 C 115.30 71.95 113.92 72.15 113.23 72.25 C 109.71 71.96 106.12 71.63 102.74 72.82 L 101.84 73.01 C 100.54 72.28 98.95 72.66 98.09 73.85 C 95.75 75.52 93.39 77.15 90.98 78.71 C 90.57 78.80 89.75 78.98 89.34 79.07 C 87.73 78.97 86.01 79.38 85.17 80.89 C 82.15 82.45 79.62 88.95 75.87 86.21 C 87.52 76.92 101.26 68.90 116.96 70.00 C 116.55 65.68 112.76 59.41 118.22 56.99 Z" />
<path fill="#456464" opacity="1.00" d=" M 16.21 62.80 C 23.79 63.36 28.81 69.73 36.07 70.85 C 34.42 70.96 32.77 71.17 31.14 71.47 C 30.70 71.30 29.83 70.97 29.40 70.81 C 27.19 68.61 24.68 66.75 21.87 65.37 C 21.31 65.43 20.19 65.54 19.63 65.60 C 19.21 65.54 18.36 65.41 17.94 65.34 C 17.36 64.49 16.79 63.65 16.21 62.80 Z" />
<path fill="#456464" opacity="1.00" d=" M 36.95 71.05 C 50.28 69.41 68.71 71.42 74.48 85.46 C 74.12 85.27 73.40 84.88 73.04 84.69 C 72.75 84.25 72.15 83.38 71.86 82.95 C 71.58 82.70 71.03 82.21 70.76 81.96 C 70.45 81.77 69.83 81.40 69.52 81.22 C 69.45 79.83 68.23 78.87 66.87 79.10 L 66.13 78.82 C 63.58 75.50 60.18 72.94 55.90 72.80 L 55.06 72.62 C 52.56 71.18 50.18 71.06 47.94 72.26 C 44.25 72.13 40.55 71.96 36.85 71.99 L 36.95 71.05 Z" />
<path fill="#456464" opacity="1.00" d=" M -0.00 80.16 C 0.87 81.02 1.88 81.67 3.03 82.13 L 3.29 82.95 C 3.38 83.50 3.56 84.59 3.64 85.14 C 3.75 85.54 3.97 86.34 4.07 86.74 C 4.65 89.70 5.43 92.88 8.31 94.46 C 9.95 96.41 11.44 98.50 12.57 100.79 C 12.69 101.13 12.93 101.80 13.05 102.14 L 13.32 102.84 C 13.05 104.17 13.77 105.53 15.16 105.78 C 15.10 107.74 16.44 109.20 18.02 110.14 C 18.00 111.50 18.66 112.10 20.01 111.93 C 20.13 112.31 20.37 113.07 20.50 113.46 C 20.65 113.79 20.97 114.45 21.12 114.78 C 21.34 115.06 21.76 115.62 21.97 115.90 C 22.22 116.15 22.72 116.64 22.97 116.88 C 23.24 117.11 23.80 117.58 24.07 117.81 L 24.66 118.31 C 24.81 118.68 25.10 119.43 25.25 119.80 C 12.14 111.24 8.24 94.30 0.00 82.03 L 0.00 80.16 Z" />
<path fill="#456464" opacity="1.00" d=" M 99.90 118.84 C 103.45 119.18 107.35 118.72 110.15 121.34 C 110.12 121.78 110.06 122.65 110.03 123.09 C 109.96 123.50 109.83 124.32 109.76 124.74 C 109.65 125.10 109.44 125.84 109.34 126.20 C 109.20 126.57 108.92 127.29 108.78 127.65 C 108.58 127.97 108.17 128.59 107.97 128.91 C 107.70 129.20 107.14 129.78 106.86 130.07 C 106.45 130.10 105.62 130.16 105.21 130.20 L 104.45 129.91 C 102.65 128.47 100.74 127.19 98.70 126.12 C 96.75 124.36 97.08 121.85 98.28 119.77 L 99.04 120.05 C 95.25 125.30 108.15 131.61 108.52 124.53 C 110.65 119.57 102.84 120.07 99.83 119.72 L 99.90 118.84 Z" />
<path fill="#456464" opacity="1.00" d=" M 25.92 120.20 C 26.31 120.20 27.10 120.19 27.49 120.19 C 27.84 120.33 28.54 120.63 28.89 120.78 L 29.60 121.14 C 29.89 122.87 31.29 124.12 33.04 124.22 C 33.39 124.36 34.09 124.63 34.45 124.77 C 34.28 126.23 35.59 127.42 37.03 127.01 L 37.86 127.03 C 38.35 127.25 39.33 127.68 39.83 127.90 C 40.38 128.15 41.48 128.65 42.03 128.90 C 42.55 130.80 44.17 132.09 46.14 132.17 C 46.81 133.35 47.77 133.65 49.01 133.05 C 49.44 133.10 50.31 133.19 50.74 133.24 C 54.32 136.26 61.66 130.14 63.06 135.53 C 63.08 135.99 63.11 136.91 63.13 137.37 C 63.06 137.83 62.91 138.75 62.84 139.21 C 61.34 131.70 51.04 136.44 45.57 133.57 C 38.86 129.34 31.09 126.54 25.92 120.20 Z" />
<path fill="#456464" opacity="1.00" d=" M 233.05 133.18 C 234.49 133.01 235.96 132.51 237.00 131.46 L 237.00 133.07 C 235.89 134.08 234.40 134.46 232.96 134.67 C 232.98 134.30 233.03 133.55 233.05 133.18 Z" />
<path fill="#456464" opacity="1.00" d=" M 229.18 136.13 C 229.74 135.86 230.86 135.31 231.42 135.04 L 232.25 135.08 C 221.47 145.17 207.60 155.40 192.97 157.82 L 193.14 156.98 L 194.01 157.04 C 194.53 156.79 195.58 156.30 196.11 156.06 C 196.55 156.02 197.43 155.95 197.87 155.91 C 199.07 156.64 200.06 156.42 200.83 155.26 C 203.49 154.67 205.63 153.11 207.10 150.83 C 208.36 150.06 209.65 149.35 210.95 148.66 C 211.28 148.54 211.95 148.30 212.28 148.18 L 213.00 147.99 C 214.42 148.31 215.77 147.19 215.57 145.71 C 215.89 145.52 216.54 145.13 216.86 144.94 C 217.16 144.73 217.75 144.30 218.04 144.08 C 218.35 143.88 218.95 143.48 219.25 143.28 L 219.88 142.89 C 220.20 142.72 220.83 142.36 221.14 142.19 L 221.79 141.85 C 222.10 141.68 222.72 141.34 223.03 141.17 L 223.65 140.82 C 223.94 140.64 224.52 140.27 224.82 140.09 C 225.10 139.88 225.67 139.47 225.96 139.27 C 227.65 139.11 229.13 137.92 229.18 136.13 Z" />
<path fill="#456464" opacity="1.00" d=" M 63.31 141.00 L 63.85 141.23 C 63.97 141.67 64.22 142.54 64.34 142.98 C 64.18 143.74 63.87 145.26 63.71 146.02 C 62.64 144.53 62.59 142.65 63.31 141.00 Z" />
<path fill="#456464" opacity="1.00" d=" M 63.87 146.87 L 64.59 147.21 C 64.70 147.61 64.92 148.42 65.03 148.82 C 64.92 150.47 65.58 152.17 67.22 152.79 C 67.46 153.07 67.94 153.63 68.18 153.91 C 68.45 154.96 68.74 156.00 69.06 157.04 C 65.27 154.93 63.75 151.07 63.87 146.87 Z" />
<path fill="#456464" opacity="1.00" d=" M 69.57 157.54 C 70.12 157.58 71.21 157.67 71.75 157.71 C 71.87 158.15 72.09 159.04 72.21 159.48 C 72.52 161.54 74.02 163.90 76.42 163.47 C 76.86 164.40 77.33 165.32 77.84 166.22 C 73.57 165.01 71.05 161.53 69.57 157.54 Z" />
<path fill="#456464" opacity="1.00" d=" M 157.83 159.08 C 168.17 158.81 179.97 167.76 189.85 158.30 L 190.62 158.00 C 191.03 158.06 191.85 158.18 192.25 158.24 C 183.11 167.55 170.20 163.47 159.17 161.06 C 155.56 168.34 150.50 176.31 143.26 180.08 L 143.29 179.31 C 143.72 178.93 144.57 178.19 144.99 177.82 C 145.24 177.60 145.73 177.16 145.98 176.94 C 146.19 176.72 146.63 176.27 146.84 176.05 C 147.04 175.80 147.44 175.30 147.64 175.05 C 148.79 173.40 149.93 171.74 151.08 170.10 C 151.34 169.83 151.86 169.29 152.12 169.02 C 153.49 169.12 154.16 168.48 154.13 167.11 C 154.35 166.79 154.79 166.15 155.01 165.83 C 155.29 165.37 155.84 164.47 156.12 164.02 C 156.27 163.67 156.57 162.97 156.71 162.63 C 156.80 162.25 156.97 161.50 157.06 161.13 C 157.15 160.78 157.35 160.08 157.44 159.73 L 157.83 159.08 Z" />
<path fill="#456464" opacity="1.00" d=" M 77.84 166.22 C 78.71 166.75 79.57 167.31 80.40 167.91 C 80.59 168.19 80.98 168.75 81.17 169.04 C 81.18 169.47 81.20 170.34 81.21 170.77 C 79.02 170.33 78.09 168.23 77.84 166.22 Z" />
<path fill="#456464" opacity="1.00" d=" M 81.89 171.16 L 82.69 171.14 L 83.47 171.24 C 83.83 171.35 84.55 171.57 84.92 171.68 C 86.13 172.15 87.35 172.62 88.56 173.10 C 88.89 173.27 89.53 173.61 89.85 173.78 C 91.52 176.54 94.30 177.93 97.50 177.94 L 98.35 178.09 C 99.42 179.75 101.47 179.54 103.05 178.87 C 104.28 179.15 105.49 179.12 106.70 178.78 L 107.52 179.13 C 107.68 179.55 107.99 180.40 108.14 180.82 C 98.02 181.66 89.59 176.96 81.89 171.16 Z" />
<path fill="#456464" opacity="1.00" d=" M 108.14 180.82 C 108.47 181.41 109.13 182.59 109.45 183.17 C 109.42 184.61 109.36 187.48 109.33 188.91 C 110.48 190.50 111.28 192.67 113.32 193.31 C 116.59 194.40 119.81 194.27 122.99 192.92 L 123.81 192.72 C 124.15 192.55 124.82 192.20 125.15 192.02 C 125.40 191.76 125.90 191.22 126.14 190.96 C 126.45 190.75 127.06 190.34 127.37 190.14 C 127.76 190.05 128.55 189.87 128.94 189.78 C 123.32 201.15 102.10 194.69 108.14 180.82 Z" />
<path fill="#456464" opacity="1.00" d=" M 140.21 182.24 C 140.59 182.17 141.35 182.02 141.74 181.95 C 139.60 186.72 133.95 187.74 129.40 189.12 L 129.30 188.32 L 130.03 187.95 C 130.37 187.78 131.05 187.43 131.40 187.26 C 131.76 187.11 132.49 186.82 132.86 186.68 C 133.20 186.53 133.88 186.23 134.22 186.08 L 134.91 185.76 C 135.22 185.59 135.86 185.25 136.18 185.08 L 136.79 184.70 C 137.08 184.50 137.66 184.11 137.95 183.91 C 138.22 183.70 138.77 183.28 139.05 183.07 C 139.34 182.86 139.92 182.45 140.21 182.24 Z" />
</g>
<g id="#48716fff">
<path fill="#48716f" opacity="1.00" d=" M 0.00 56.99 C 4.81 56.97 10.02 56.88 13.95 60.06 C 14.70 60.98 15.45 61.89 16.21 62.80 C 16.79 63.65 17.36 64.49 17.94 65.34 C 17.53 65.28 16.72 65.15 16.31 65.09 L 15.56 64.87 C 15.11 63.09 13.87 61.64 12.07 61.15 C 10.98 60.29 9.91 59.41 8.74 58.67 C 5.84 58.27 2.93 57.96 0.00 57.94 L 0.00 56.99 Z" />
<path fill="#48716f" opacity="1.00" d=" M 116.59 64.23 C 114.23 57.68 123.93 55.51 128.45 57.51 C 141.16 56.90 154.84 62.03 163.39 70.98 C 150.75 62.74 136.37 55.96 120.91 58.80 C 120.38 59.13 119.34 59.80 118.81 60.14 C 118.58 60.43 118.11 61.01 117.88 61.31 L 117.57 62.03 C 117.33 62.58 116.83 63.68 116.59 64.23 Z" />
<path fill="#48716f" opacity="1.00" d=" M 116.59 64.23 C 116.98 64.57 117.77 65.26 118.16 65.61 C 117.77 65.26 116.98 64.57 116.59 64.23 Z" />
<path fill="#48716f" opacity="1.00" d=" M 19.63 65.60 C 20.19 65.54 21.31 65.43 21.87 65.37 C 21.31 65.43 20.19 65.54 19.63 65.60 Z" />
<path fill="#48716f" opacity="1.00" d=" M 21.87 65.37 C 24.68 66.75 27.19 68.61 29.40 70.81 L 28.51 70.95 L 27.64 70.88 C 26.43 69.54 24.89 67.48 22.81 68.35 C 22.57 67.61 22.11 66.12 21.87 65.37 Z" />
<path fill="#48716f" opacity="1.00" d=" M 118.16 65.61 C 120.92 67.85 122.14 69.82 118.28 71.57 C 118.70 69.60 118.61 67.57 118.16 65.61 Z" />
<path fill="#48716f" opacity="1.00" d=" M 31.14 71.47 C 32.77 71.17 34.42 70.96 36.07 70.85 L 36.95 71.05 L 36.85 71.99 C 35.24 72.19 33.62 72.19 32.00 72.16 L 31.11 72.06 L 31.14 71.47 Z" />
<path fill="#48716f" opacity="1.00" d=" M 115.99 71.85 C 116.56 71.78 117.71 71.64 118.28 71.57 C 117.71 71.64 116.56 71.78 115.99 71.85 Z" />
<path fill="#48716f" opacity="1.00" d=" M 163.39 70.98 C 163.58 71.25 163.96 71.79 164.15 72.06 C 163.96 71.79 163.58 71.25 163.39 70.98 Z" />
<path fill="#48716f" opacity="1.00" d=" M 47.94 72.26 C 50.18 71.06 52.56 71.18 55.06 72.62 C 52.79 73.92 50.41 73.80 47.94 72.26 Z" />
<path fill="#48716f" opacity="1.00" d=" M 102.74 72.82 C 106.12 71.63 109.71 71.96 113.23 72.25 C 109.82 73.29 106.25 73.06 102.74 72.82 Z" />
<path fill="#48716f" opacity="1.00" d=" M 164.15 72.06 C 164.36 72.29 164.79 72.75 165.00 72.98 C 164.79 72.75 164.36 72.29 164.15 72.06 Z" />
<path fill="#48716f" opacity="1.00" d=" M 55.90 72.80 C 60.18 72.94 63.58 75.50 66.13 78.82 L 65.38 79.02 L 64.64 78.81 C 64.32 78.65 63.66 78.32 63.34 78.16 C 61.18 75.96 58.79 73.95 55.90 72.80 Z" />
<path fill="#48716f" opacity="1.00" d=" M 98.09 73.85 C 98.95 72.66 100.54 72.28 101.84 73.01 C 101.07 74.36 99.36 74.63 98.09 73.85 Z" />
<path fill="#48716f" opacity="1.00" d=" M 165.00 72.98 C 165.25 73.18 165.75 73.60 166.00 73.80 C 165.75 73.60 165.25 73.18 165.00 72.98 Z" />
<path fill="#48716f" opacity="1.00" d=" M 90.98 78.71 C 93.39 77.15 95.75 75.52 98.09 73.85 C 96.97 75.33 95.89 76.84 94.73 78.28 C 94.38 78.41 93.68 78.66 93.33 78.79 L 92.57 78.93 C 92.17 78.87 91.38 78.76 90.98 78.71 Z" />
<path fill="#48716f" opacity="1.00" d=" M 166.00 73.80 C 173.93 79.00 159.09 85.56 154.27 81.86 C 144.80 79.34 151.76 89.96 155.21 93.22 C 152.62 89.91 142.86 84.12 149.50 80.29 C 155.11 81.95 169.15 83.26 166.00 73.80 Z" />
<path fill="#48716f" opacity="1.00" d=" M 0.00 78.21 C 1.73 78.76 3.01 80.27 3.03 82.13 C 1.88 81.67 0.87 81.02 -0.00 80.16 L 0.00 78.21 Z" />
<path fill="#48716f" opacity="1.00" d=" M 66.87 79.10 C 68.23 78.87 69.45 79.83 69.52 81.22 C 69.14 81.23 68.37 81.26 67.99 81.27 L 67.32 80.87 C 67.20 80.43 66.98 79.54 66.87 79.10 Z" />
<path fill="#48716f" opacity="1.00" d=" M 85.17 80.89 C 86.01 79.38 87.73 78.97 89.34 79.07 C 88.95 79.57 88.17 80.57 87.78 81.06 L 87.00 81.24 C 86.55 81.15 85.63 80.98 85.17 80.89 Z" />
<path fill="#48716f" opacity="1.00" d=" M 69.52 81.22 C 69.83 81.40 70.45 81.77 70.76 81.96 C 70.45 81.77 69.83 81.40 69.52 81.22 Z" />
<path fill="#48716f" opacity="1.00" d=" M 75.87 86.21 C 79.62 88.95 82.15 82.45 85.17 80.89 C 84.88 81.38 84.28 82.36 83.99 82.85 C 83.78 83.13 83.38 83.68 83.18 83.96 C 82.96 84.22 82.53 84.74 82.32 85.00 C 81.32 86.10 80.34 87.22 79.25 88.23 C 76.18 89.97 74.37 87.05 73.04 84.69 C 73.40 84.88 74.12 85.27 74.48 85.46 C 74.82 85.65 75.52 86.03 75.87 86.21 Z" />
<path fill="#48716f" opacity="1.00" d=" M 70.76 81.96 C 71.03 82.21 71.58 82.70 71.86 82.95 C 71.58 82.70 71.03 82.21 70.76 81.96 Z" />
<path fill="#48716f" opacity="1.00" d=" M 3.29 82.95 C 3.38 83.50 3.56 84.59 3.64 85.14 C 3.56 84.59 3.38 83.50 3.29 82.95 Z" />
<path fill="#48716f" opacity="1.00" d=" M 71.86 82.95 C 72.15 83.38 72.75 84.25 73.04 84.69 C 72.75 84.25 72.15 83.38 71.86 82.95 Z" />
<path fill="#48716f" opacity="1.00" d=" M 4.07 86.74 C 4.71 87.59 5.35 88.45 5.98 89.30 L 6.30 89.99 C 6.45 90.30 6.76 90.92 6.91 91.23 L 7.19 91.86 C 7.32 92.18 7.58 92.81 7.70 93.12 C 7.86 93.46 8.16 94.13 8.31 94.46 C 5.43 92.88 4.65 89.70 4.07 86.74 Z" />
<path fill="#48716f" opacity="1.00" d=" M 155.21 93.22 C 155.39 93.51 155.75 94.10 155.92 94.39 C 155.75 94.10 155.39 93.51 155.21 93.22 Z" />
<path fill="#48716f" opacity="1.00" d=" M 156.24 95.00 C 156.39 95.31 156.68 95.91 156.83 96.22 C 156.68 95.91 156.39 95.31 156.24 95.00 Z" />
<path fill="#48716f" opacity="1.00" d=" M 157.11 96.85 C 157.25 97.17 157.52 97.80 157.66 98.12 C 157.52 97.80 157.25 97.17 157.11 96.85 Z" />
<path fill="#48716f" opacity="1.00" d=" M 158.22 99.46 C 158.41 99.76 158.78 100.37 158.96 100.67 C 158.78 100.37 158.41 99.76 158.22 99.46 Z" />
<path fill="#48716f" opacity="1.00" d=" M 12.57 100.79 C 12.69 101.13 12.93 101.80 13.05 102.14 C 12.93 101.80 12.69 101.13 12.57 100.79 Z" />
<path fill="#48716f" opacity="1.00" d=" M 158.96 100.67 C 164.97 107.88 169.99 102.28 177.31 102.68 C 176.21 102.96 175.13 103.28 174.06 103.65 L 173.30 103.94 C 167.90 108.06 162.48 106.44 158.96 100.67 Z" />
<path fill="#48716f" opacity="1.00" d=" M 13.32 102.84 C 13.69 102.94 14.45 103.13 14.83 103.23 L 15.23 103.91 C 15.21 104.37 15.18 105.31 15.16 105.78 C 13.77 105.53 13.05 104.17 13.32 102.84 Z" />
<path fill="#48716f" opacity="1.00" d=" M 179.00 103.01 C 180.28 102.33 181.86 102.52 182.80 103.67 C 181.59 104.65 179.84 104.27 179.00 103.01 Z" />
<path fill="#48716f" opacity="1.00" d=" M 182.80 103.67 C 185.94 105.36 188.91 107.33 192.00 109.09 C 191.36 109.06 190.07 108.98 189.43 108.95 L 188.63 108.82 C 188.27 108.70 187.55 108.47 187.19 108.35 L 186.50 107.96 C 185.23 106.56 184.02 105.11 182.80 103.67 Z" />
<path fill="#48716f" opacity="1.00" d=" M 15.16 105.78 C 15.58 105.83 16.42 105.94 16.83 105.99 C 17.45 107.30 17.60 108.76 18.02 110.14 C 16.44 109.20 15.10 107.74 15.16 105.78 Z" />
<path fill="#48716f" opacity="1.00" d=" M 194.66 109.22 C 195.25 109.35 196.42 109.60 197.01 109.73 C 196.42 109.60 195.25 109.35 194.66 109.22 Z" />
<path fill="#48716f" opacity="1.00" d=" M 18.02 110.14 C 18.44 110.20 19.26 110.32 19.67 110.37 L 20.02 111.11 L 20.01 111.93 C 18.66 112.10 18.00 111.50 18.02 110.14 Z" />
<path fill="#48716f" opacity="1.00" d=" M 198.75 109.99 C 203.51 110.02 207.68 112.30 211.53 114.91 C 207.10 113.73 202.88 111.95 198.75 109.99 Z" />
<path fill="#48716f" opacity="1.00" d=" M 221.72 114.93 C 226.17 111.72 231.94 113.56 237.00 113.12 L 237.00 115.05 C 231.94 114.22 226.81 114.56 221.72 114.93 Z" />
<path fill="#48716f" opacity="1.00" d=" M 20.50 113.46 C 20.65 113.79 20.97 114.45 21.12 114.78 C 20.97 114.45 20.65 113.79 20.50 113.46 Z" />
<path fill="#48716f" opacity="1.00" d=" M 21.12 114.78 C 21.34 115.06 21.76 115.62 21.97 115.90 C 21.76 115.62 21.34 115.06 21.12 114.78 Z" />
<path fill="#48716f" opacity="1.00" d=" M 212.33 115.12 C 215.18 115.31 218.02 115.24 220.89 115.27 C 218.23 116.95 215.15 115.71 212.33 115.12 Z" />
<path fill="#48716f" opacity="1.00" d=" M 21.97 115.90 C 22.22 116.15 22.72 116.64 22.97 116.88 C 22.72 116.64 22.22 116.15 21.97 115.90 Z" />
<path fill="#48716f" opacity="1.00" d=" M 22.97 116.88 C 23.24 117.11 23.80 117.58 24.07 117.81 C 23.80 117.58 23.24 117.11 22.97 116.88 Z" />
<path fill="#48716f" opacity="1.00" d=" M 24.66 118.31 C 25.99 117.86 27.50 118.68 27.49 120.19 C 27.10 120.19 26.31 120.20 25.92 120.20 L 25.25 119.80 C 25.10 119.43 24.81 118.68 24.66 118.31 Z" />
<path fill="#48716f" opacity="1.00" d=" M 98.33 118.96 L 99.06 118.54 L 99.90 118.84 L 99.83 119.72 L 99.04 120.05 L 98.28 119.77 L 98.33 118.96 Z" />
<path fill="#48716f" opacity="1.00" d=" M 27.49 120.19 C 27.84 120.33 28.54 120.63 28.89 120.78 C 28.54 120.63 27.84 120.33 27.49 120.19 Z" />
<path fill="#48716f" opacity="1.00" d=" M 29.60 121.14 C 31.35 121.25 32.75 122.50 33.04 124.22 C 31.29 124.12 29.89 122.87 29.60 121.14 Z" />
<path fill="#48716f" opacity="1.00" d=" M 110.15 121.34 C 111.72 122.01 111.68 122.60 110.03 123.09 C 110.06 122.65 110.12 121.78 110.15 121.34 Z" />
<path fill="#48716f" opacity="1.00" d=" M 33.04 124.22 C 33.39 124.36 34.09 124.63 34.45 124.77 C 34.09 124.63 33.39 124.36 33.04 124.22 Z" />
<path fill="#48716f" opacity="1.00" d=" M 34.45 124.77 C 34.83 124.78 35.61 124.80 36.00 124.81 C 36.25 125.36 36.77 126.46 37.03 127.01 C 35.59 127.42 34.28 126.23 34.45 124.77 Z" />
<path fill="#48716f" opacity="1.00" d=" M 109.34 126.20 C 109.44 125.84 109.65 125.10 109.76 124.74 C 109.65 125.10 109.44 125.84 109.34 126.20 Z" />
<path fill="#48716f" opacity="1.00" d=" M 98.70 126.12 C 100.74 127.19 102.65 128.47 104.45 129.91 C 102.15 129.29 99.90 128.30 98.70 126.12 Z" />
<path fill="#48716f" opacity="1.00" d=" M 37.86 127.03 C 38.35 127.25 39.33 127.68 39.83 127.90 C 39.33 127.68 38.35 127.25 37.86 127.03 Z" />
<path fill="#48716f" opacity="1.00" d=" M 107.97 128.91 C 108.17 128.59 108.58 127.97 108.78 127.65 C 108.58 127.97 108.17 128.59 107.97 128.91 Z" />
<path fill="#48716f" opacity="1.00" d=" M 42.03 128.90 C 43.96 129.05 45.66 130.23 46.14 132.17 C 44.17 132.09 42.55 130.80 42.03 128.90 Z" />
<path fill="#48716f" opacity="1.00" d=" M 105.21 130.20 C 105.62 130.16 106.45 130.10 106.86 130.07 C 106.39 131.67 105.84 131.72 105.21 130.20 Z" />
<path fill="#48716f" opacity="1.00" d=" M 50.74 133.24 C 54.66 134.14 64.32 127.41 63.06 135.53 C 61.66 130.14 54.32 136.26 50.74 133.24 Z" />
<path fill="#48716f" opacity="1.00" d=" M 233.05 133.18 C 233.93 131.80 235.19 130.40 237.00 130.49 L 237.00 131.46 C 235.96 132.51 234.49 133.01 233.05 133.18 Z" />
<path fill="#48716f" opacity="1.00" d=" M 46.14 132.17 C 47.39 131.49 48.34 131.79 49.01 133.05 C 47.77 133.65 46.81 133.35 46.14 132.17 Z" />
<path fill="#48716f" opacity="1.00" d=" M 231.42 135.04 C 231.06 133.64 231.60 133.02 233.05 133.18 C 233.03 133.55 232.98 134.30 232.96 134.67 L 232.25 135.08 L 231.42 135.04 Z" />
<path fill="#48716f" opacity="1.00" d=" M 225.96 139.27 C 226.22 137.61 227.43 136.22 229.18 136.13 C 229.13 137.92 227.65 139.11 225.96 139.27 Z" />
<path fill="#48716f" opacity="1.00" d=" M 63.13 137.37 C 64.74 138.06 64.52 139.96 63.85 141.23 L 63.31 141.00 C 63.19 140.55 62.96 139.66 62.84 139.21 C 62.91 138.75 63.06 137.83 63.13 137.37 Z" />
<path fill="#48716f" opacity="1.00" d=" M 224.82 140.09 C 225.10 139.88 225.67 139.47 225.96 139.27 C 225.67 139.47 225.10 139.88 224.82 140.09 Z" />
<path fill="#48716f" opacity="1.00" d=" M 223.65 140.82 C 223.94 140.64 224.52 140.27 224.82 140.09 C 224.52 140.27 223.94 140.64 223.65 140.82 Z" />
<path fill="#48716f" opacity="1.00" d=" M 221.79 141.85 C 222.10 141.68 222.72 141.34 223.03 141.17 C 222.72 141.34 222.10 141.68 221.79 141.85 Z" />
<path fill="#48716f" opacity="1.00" d=" M 219.88 142.89 C 220.20 142.72 220.83 142.36 221.14 142.19 C 220.83 142.36 220.20 142.72 219.88 142.89 Z" />
<path fill="#48716f" opacity="1.00" d=" M 64.34 142.98 L 65.20 143.11 L 65.33 143.95 C 65.14 144.76 64.78 146.39 64.59 147.21 L 63.87 146.87 L 63.71 146.02 C 63.87 145.26 64.18 143.74 64.34 142.98 Z" />
<path fill="#48716f" opacity="1.00" d=" M 218.04 144.08 C 218.35 143.88 218.95 143.48 219.25 143.28 C 218.95 143.48 218.35 143.88 218.04 144.08 Z" />
<path fill="#48716f" opacity="1.00" d=" M 216.86 144.94 C 217.16 144.73 217.75 144.30 218.04 144.08 C 217.75 144.30 217.16 144.73 216.86 144.94 Z" />
<path fill="#48716f" opacity="1.00" d=" M 215.57 145.71 C 215.89 145.52 216.54 145.13 216.86 144.94 C 216.54 145.13 215.89 145.52 215.57 145.71 Z" />
<path fill="#48716f" opacity="1.00" d=" M 213.96 145.86 C 214.36 145.82 215.16 145.75 215.57 145.71 C 215.77 147.19 214.42 148.31 213.00 147.99 C 213.24 147.45 213.72 146.39 213.96 145.86 Z" />
<path fill="#48716f" opacity="1.00" d=" M 210.95 148.66 C 211.28 148.54 211.95 148.30 212.28 148.18 C 211.95 148.30 211.28 148.54 210.95 148.66 Z" />
<path fill="#48716f" opacity="1.00" d=" M 65.03 148.82 C 65.52 149.15 66.50 149.81 66.99 150.14 L 67.22 150.86 C 67.22 151.34 67.22 152.31 67.22 152.79 C 65.58 152.17 64.92 150.47 65.03 148.82 Z" />
<path fill="#48716f" opacity="1.00" d=" M 200.83 155.26 C 202.79 153.61 204.84 152.06 207.10 150.83 C 205.63 153.11 203.49 154.67 200.83 155.26 Z" />
<path fill="#48716f" opacity="1.00" d=" M 67.22 152.79 C 67.46 153.07 67.94 153.63 68.18 153.91 C 67.94 153.63 67.46 153.07 67.22 152.79 Z" />
<path fill="#48716f" opacity="1.00" d=" M 68.18 153.91 C 68.53 153.98 69.23 154.14 69.58 154.22 C 69.65 155.60 70.38 156.29 71.77 156.31 L 72.06 157.07 L 71.75 157.71 C 71.21 157.67 70.12 157.58 69.57 157.54 L 69.06 157.04 C 68.74 156.00 68.45 154.96 68.18 153.91 Z" />
<path fill="#48716f" opacity="1.00" d=" M 197.87 155.91 C 198.65 154.75 199.64 154.54 200.83 155.26 C 200.06 156.42 199.07 156.64 197.87 155.91 Z" />
<path fill="#48716f" opacity="1.00" d=" M 194.01 157.04 C 194.53 156.79 195.58 156.30 196.11 156.06 C 195.58 156.30 194.53 156.79 194.01 157.04 Z" />
<path fill="#48716f" opacity="1.00" d=" M 157.83 159.08 C 166.52 155.18 179.41 167.66 189.85 158.30 C 179.97 167.76 168.17 158.81 157.83 159.08 Z" />
<path fill="#48716f" opacity="1.00" d=" M 190.62 158.00 C 191.03 156.64 191.87 156.31 193.14 156.98 L 192.97 157.82 L 192.25 158.24 C 191.85 158.18 191.03 158.06 190.62 158.00 Z" />
<path fill="#48716f" opacity="1.00" d=" M 72.21 159.48 C 72.54 159.61 73.22 159.88 73.56 160.01 C 74.44 160.93 75.33 161.84 76.23 162.75 L 76.42 163.47 C 74.02 163.90 72.52 161.54 72.21 159.48 Z" />
<path fill="#48716f" opacity="1.00" d=" M 157.06 161.13 C 157.15 160.78 157.35 160.08 157.44 159.73 C 157.35 160.08 157.15 160.78 157.06 161.13 Z" />
<path fill="#48716f" opacity="1.00" d=" M 156.12 164.02 C 156.27 163.67 156.57 162.97 156.71 162.63 C 156.57 162.97 156.27 163.67 156.12 164.02 Z" />
<path fill="#48716f" opacity="1.00" d=" M 155.01 165.83 C 155.29 165.37 155.84 164.47 156.12 164.02 C 155.84 164.47 155.29 165.37 155.01 165.83 Z" />
<path fill="#48716f" opacity="1.00" d=" M 154.13 167.11 C 154.35 166.79 154.79 166.15 155.01 165.83 C 154.79 166.15 154.35 166.79 154.13 167.11 Z" />
<path fill="#48716f" opacity="1.00" d=" M 152.12 169.02 C 152.09 167.64 152.76 167.00 154.13 167.11 C 154.16 168.48 153.49 169.12 152.12 169.02 Z" />
<path fill="#48716f" opacity="1.00" d=" M 80.40 167.91 C 80.59 168.19 80.98 168.75 81.17 169.04 C 80.98 168.75 80.59 168.19 80.40 167.91 Z" />
<path fill="#48716f" opacity="1.00" d=" M 81.17 169.04 C 82.48 169.14 82.99 169.84 82.69 171.14 L 81.89 171.16 L 81.21 170.77 C 81.20 170.34 81.18 169.47 81.17 169.04 Z" />
<path fill="#48716f" opacity="1.00" d=" M 151.08 170.10 C 151.34 169.83 151.86 169.29 152.12 169.02 C 151.86 169.29 151.34 169.83 151.08 170.10 Z" />
<path fill="#48716f" opacity="1.00" d=" M 83.47 171.24 C 83.83 171.35 84.55 171.57 84.92 171.68 C 84.55 171.57 83.83 171.35 83.47 171.24 Z" />
<path fill="#48716f" opacity="1.00" d=" M 88.56 173.10 C 88.89 173.27 89.53 173.61 89.85 173.78 C 89.53 173.61 88.89 173.27 88.56 173.10 Z" />
<path fill="#48716f" opacity="1.00" d=" M 89.85 173.78 C 92.39 175.17 94.92 176.60 97.50 177.94 C 94.30 177.93 91.52 176.54 89.85 173.78 Z" />
<path fill="#48716f" opacity="1.00" d=" M 146.84 176.05 C 147.04 175.80 147.44 175.30 147.64 175.05 C 147.44 175.30 147.04 175.80 146.84 176.05 Z" />
<path fill="#48716f" opacity="1.00" d=" M 145.98 176.94 C 146.19 176.72 146.63 176.27 146.84 176.05 C 146.63 176.27 146.19 176.72 145.98 176.94 Z" />
<path fill="#48716f" opacity="1.00" d=" M 144.99 177.82 C 145.24 177.60 145.73 177.16 145.98 176.94 C 145.73 177.16 145.24 177.60 144.99 177.82 Z" />
<path fill="#48716f" opacity="1.00" d=" M 98.35 178.09 C 99.58 177.94 100.80 177.89 102.04 177.94 L 102.85 178.27 L 103.05 178.87 C 101.47 179.54 99.42 179.75 98.35 178.09 Z" />
<path fill="#48716f" opacity="1.00" d=" M 140.21 182.24 C 140.26 180.55 141.58 179.22 143.29 179.31 L 143.26 180.08 C 142.88 180.55 142.12 181.48 141.74 181.95 C 141.35 182.02 140.59 182.17 140.21 182.24 Z" />
<path fill="#48716f" opacity="1.00" d=" M 139.05 183.07 C 139.34 182.86 139.92 182.45 140.21 182.24 C 139.92 182.45 139.34 182.86 139.05 183.07 Z" />
<path fill="#48716f" opacity="1.00" d=" M 109.45 183.17 C 109.42 184.61 109.36 187.48 109.33 188.91 C 109.36 187.48 109.42 184.61 109.45 183.17 Z" />
<path fill="#48716f" opacity="1.00" d=" M 137.95 183.91 C 138.22 183.70 138.77 183.28 139.05 183.07 C 138.77 183.28 138.22 183.70 137.95 183.91 Z" />
<path fill="#48716f" opacity="1.00" d=" M 136.79 184.70 C 137.08 184.50 137.66 184.11 137.95 183.91 C 137.66 184.11 137.08 184.50 136.79 184.70 Z" />
<path fill="#48716f" opacity="1.00" d=" M 134.91 185.76 C 135.22 185.59 135.86 185.25 136.18 185.08 C 135.86 185.25 135.22 185.59 134.91 185.76 Z" />
<path fill="#48716f" opacity="1.00" d=" M 132.86 186.68 C 133.20 186.53 133.88 186.23 134.22 186.08 C 133.88 186.23 133.20 186.53 132.86 186.68 Z" />
<path fill="#48716f" opacity="1.00" d=" M 130.03 187.95 C 130.37 187.78 131.05 187.43 131.40 187.26 C 131.05 187.43 130.37 187.78 130.03 187.95 Z" />
<path fill="#48716f" opacity="1.00" d=" M 127.37 190.14 C 127.25 188.74 127.90 188.14 129.30 188.32 L 129.40 189.12 L 128.94 189.78 C 128.55 189.87 127.76 190.05 127.37 190.14 Z" />
<path fill="#48716f" opacity="1.00" d=" M 126.14 190.96 C 126.45 190.75 127.06 190.34 127.37 190.14 C 127.06 190.34 126.45 190.75 126.14 190.96 Z" />
<path fill="#48716f" opacity="1.00" d=" M 125.15 192.02 C 125.40 191.76 125.90 191.22 126.14 190.96 C 125.90 191.22 125.40 191.76 125.15 192.02 Z" />
<path fill="#48716f" opacity="1.00" d=" M 123.81 192.72 C 124.15 192.55 124.82 192.20 125.15 192.02 C 124.82 192.20 124.15 192.55 123.81 192.72 Z" />
<path fill="#48716f" opacity="1.00" d=" M 113.32 193.31 C 116.55 193.35 119.76 193.11 122.99 192.92 C 119.81 194.27 116.59 194.40 113.32 193.31 Z" />
</g>
<g id="#4e7c7aff">
<path fill="#4e7c7a" opacity="1.00" d=" M 0.00 57.94 C 2.93 57.96 5.84 58.27 8.74 58.67 C 5.83 58.72 2.91 58.84 0.00 58.91 L 0.00 57.94 Z" />
<path fill="#4e7c7a" opacity="1.00" d=" M 120.91 58.80 C 136.37 55.96 150.75 62.74 163.39 70.98 C 163.58 71.25 163.96 71.79 164.15 72.06 C 164.36 72.29 164.79 72.75 165.00 72.98 C 165.25 73.18 165.75 73.60 166.00 73.80 C 169.15 83.26 155.11 81.95 149.50 80.29 C 142.86 84.12 152.62 89.91 155.21 93.22 C 155.39 93.51 155.75 94.10 155.92 94.39 L 156.24 95.00 C 156.39 95.31 156.68 95.91 156.83 96.22 L 157.11 96.85 C 157.25 97.17 157.52 97.80 157.66 98.12 C 157.80 98.45 158.08 99.12 158.22 99.46 C 158.41 99.76 158.78 100.37 158.96 100.67 C 162.48 106.44 167.90 108.06 173.30 103.94 C 160.01 117.74 153.88 89.88 144.13 82.92 C 147.06 70.61 160.39 85.66 164.98 77.07 C 162.78 64.00 145.73 71.90 142.59 61.12 C 135.50 59.49 128.05 60.25 120.91 58.80 Z" />
<path fill="#4e7c7a" opacity="1.00" d=" M 117.88 61.31 C 118.11 61.01 118.58 60.43 118.81 60.14 C 118.58 60.43 118.11 61.01 117.88 61.31 Z" />
<path fill="#4e7c7a" opacity="1.00" d=" M 12.07 61.15 C 13.87 61.64 15.11 63.09 15.56 64.87 C 13.55 64.75 11.95 63.21 12.07 61.15 Z" />
<path fill="#4e7c7a" opacity="1.00" d=" M 116.59 64.23 C 116.83 63.68 117.33 62.58 117.57 62.03 C 119.27 65.17 122.07 67.38 125.16 69.06 C 117.02 76.81 103.37 71.00 94.73 78.28 C 95.89 76.84 96.97 75.33 98.09 73.85 C 99.36 74.63 101.07 74.36 101.84 73.01 L 102.74 72.82 C 106.25 73.06 109.82 73.29 113.23 72.25 C 113.92 72.15 115.30 71.95 115.99 71.85 C 116.56 71.78 117.71 71.64 118.28 71.57 C 122.14 69.82 120.92 67.85 118.16 65.61 C 117.77 65.26 116.98 64.57 116.59 64.23 Z" />
<path fill="#4e7c7a" opacity="1.00" d=" M 16.31 65.09 C 16.72 65.15 17.53 65.28 17.94 65.34 C 18.36 65.41 19.21 65.54 19.63 65.60 C 20.19 65.54 21.31 65.43 21.87 65.37 C 22.11 66.12 22.57 67.61 22.81 68.35 C 20.69 67.16 18.51 66.11 16.31 65.09 Z" />
<path fill="#4e7c7a" opacity="1.00" d=" M 22.81 68.35 C 24.89 67.48 26.43 69.54 27.64 70.88 C 25.63 71.12 23.89 69.96 22.81 68.35 Z" />
<path fill="#4e7c7a" opacity="1.00" d=" M 135.13 68.12 C 150.71 64.54 136.05 77.11 135.13 68.12 Z" />
<path fill="#4e7c7a" opacity="1.00" d=" M 28.51 70.95 L 29.40 70.81 C 29.83 70.97 30.70 71.30 31.14 71.47 L 31.11 72.06 C 29.70 72.74 28.83 72.37 28.51 70.95 Z" />
<path fill="#4e7c7a" opacity="1.00" d=" M 32.00 72.16 C 33.62 72.19 35.24 72.19 36.85 71.99 C 40.55 71.96 44.25 72.13 47.94 72.26 C 50.41 73.80 52.79 73.92 55.06 72.62 L 55.90 72.80 C 58.79 73.95 61.18 75.96 63.34 78.16 C 54.02 72.08 42.48 73.75 32.00 72.16 Z" />
<path fill="#4e7c7a" opacity="1.00" d=" M 0.00 76.34 C 5.51 78.17 4.64 84.76 5.98 89.30 C 5.35 88.45 4.71 87.59 4.07 86.74 C 3.97 86.34 3.75 85.54 3.64 85.14 C 3.56 84.59 3.38 83.50 3.29 82.95 L 3.03 82.13 C 3.01 80.27 1.73 78.76 0.00 78.21 L 0.00 76.34 Z" />
<path fill="#4e7c7a" opacity="1.00" d=" M 63.34 78.16 C 63.66 78.32 64.32 78.65 64.64 78.81 C 64.32 78.65 63.66 78.32 63.34 78.16 Z" />
<path fill="#4e7c7a" opacity="1.00" d=" M 93.33 78.79 C 93.68 78.66 94.38 78.41 94.73 78.28 C 94.38 78.41 93.68 78.66 93.33 78.79 Z" />
<path fill="#4e7c7a" opacity="1.00" d=" M 65.38 79.02 L 66.13 78.82 L 66.87 79.10 C 66.98 79.54 67.20 80.43 67.32 80.87 C 65.99 80.97 65.34 80.35 65.38 79.02 Z" />
<path fill="#4e7c7a" opacity="1.00" d=" M 89.34 79.07 C 89.75 78.98 90.57 78.80 90.98 78.71 C 91.38 78.76 92.17 78.87 92.57 78.93 C 91.59 80.65 89.60 81.02 87.78 81.06 C 88.17 80.57 88.95 79.57 89.34 79.07 Z" />
<path fill="#4e7c7a" opacity="1.00" d=" M 67.99 81.27 C 68.37 81.26 69.14 81.23 69.52 81.22 C 69.83 81.40 70.45 81.77 70.76 81.96 C 71.03 82.21 71.58 82.70 71.86 82.95 C 72.15 83.38 72.75 84.25 73.04 84.69 C 74.37 87.05 76.18 89.97 79.25 88.23 C 74.49 93.32 70.87 83.90 67.99 81.27 Z" />
<path fill="#4e7c7a" opacity="1.00" d=" M 85.17 80.89 C 85.63 80.98 86.55 81.15 87.00 81.24 C 86.73 82.64 85.25 83.18 83.99 82.85 C 84.28 82.36 84.88 81.38 85.17 80.89 Z" />
<path fill="#4e7c7a" opacity="1.00" d=" M 83.18 83.96 C 83.38 83.68 83.78 83.13 83.99 82.85 C 83.78 83.13 83.38 83.68 83.18 83.96 Z" />
<path fill="#4e7c7a" opacity="1.00" d=" M 82.32 85.00 C 82.53 84.74 82.96 84.22 83.18 83.96 C 82.96 84.22 82.53 84.74 82.32 85.00 Z" />
<path fill="#4e7c7a" opacity="1.00" d=" M 6.30 89.99 C 6.45 90.30 6.76 90.92 6.91 91.23 C 6.76 90.92 6.45 90.30 6.30 89.99 Z" />
<path fill="#4e7c7a" opacity="1.00" d=" M 7.19 91.86 C 7.32 92.18 7.58 92.81 7.70 93.12 C 7.58 92.81 7.32 92.18 7.19 91.86 Z" />
<path fill="#4e7c7a" opacity="1.00" d=" M 7.70 93.12 C 11.51 95.34 13.48 99.22 14.83 103.23 C 14.45 103.13 13.69 102.94 13.32 102.84 L 13.05 102.14 C 12.93 101.80 12.69 101.13 12.57 100.79 C 11.44 98.50 9.95 96.41 8.31 94.46 C 8.16 94.13 7.86 93.46 7.70 93.12 Z" />
<path fill="#4e7c7a" opacity="1.00" d=" M 174.06 103.65 C 175.13 103.28 176.21 102.96 177.31 102.68 C 177.74 102.76 178.58 102.92 179.00 103.01 C 179.84 104.27 181.59 104.65 182.80 103.67 C 184.02 105.11 185.23 106.56 186.50 107.96 C 182.62 105.84 178.34 104.64 174.06 103.65 Z" />
<path fill="#4e7c7a" opacity="1.00" d=" M 15.23 103.91 C 16.48 104.04 17.01 104.73 16.83 105.99 C 16.42 105.94 15.58 105.83 15.16 105.78 C 15.18 105.31 15.21 104.37 15.23 103.91 Z" />
<path fill="#4e7c7a" opacity="1.00" d=" M 16.83 105.99 C 18.56 106.80 19.92 108.36 19.67 110.37 C 19.26 110.32 18.44 110.20 18.02 110.14 C 17.60 108.76 17.45 107.30 16.83 105.99 Z" />
<path fill="#4e7c7a" opacity="1.00" d=" M 187.19 108.35 C 187.55 108.47 188.27 108.70 188.63 108.82 C 188.27 108.70 187.55 108.47 187.19 108.35 Z" />
<path fill="#4e7c7a" opacity="1.00" d=" M 189.43 108.95 C 190.07 108.98 191.36 109.06 192.00 109.09 C 192.67 109.12 194.00 109.19 194.66 109.22 C 195.25 109.35 196.42 109.60 197.01 109.73 C 197.44 109.79 198.32 109.92 198.75 109.99 C 202.88 111.95 207.10 113.73 211.53 114.91 L 212.33 115.12 C 215.15 115.71 218.23 116.95 220.89 115.27 L 221.72 114.93 C 226.81 114.56 231.94 114.22 237.00 115.05 L 237.00 116.03 C 220.30 119.05 204.71 115.23 189.43 108.95 Z" />
<path fill="#4e7c7a" opacity="1.00" d=" M 20.02 111.11 C 24.10 117.04 31.54 119.19 36.00 124.81 C 35.61 124.80 34.83 124.78 34.45 124.77 C 34.09 124.63 33.39 124.36 33.04 124.22 C 32.75 122.50 31.35 121.25 29.60 121.14 L 28.89 120.78 C 28.54 120.63 27.84 120.33 27.49 120.19 C 27.50 118.68 25.99 117.86 24.66 118.31 L 24.07 117.81 C 23.80 117.58 23.24 117.11 22.97 116.88 C 22.72 116.64 22.22 116.15 21.97 115.90 C 21.76 115.62 21.34 115.06 21.12 114.78 C 20.97 114.45 20.65 113.79 20.50 113.46 C 20.37 113.07 20.13 112.31 20.01 111.93 L 20.02 111.11 Z" />
<path fill="#4e7c7a" opacity="1.00" d=" M 99.06 118.54 C 104.10 115.29 115.97 118.96 110.76 126.64 C 109.13 139.46 88.93 125.46 98.33 118.96 L 98.28 119.77 C 97.08 121.85 96.75 124.36 98.70 126.12 C 99.90 128.30 102.15 129.29 104.45 129.91 L 105.21 130.20 C 105.84 131.72 106.39 131.67 106.86 130.07 C 107.14 129.78 107.70 129.20 107.97 128.91 C 108.17 128.59 108.58 127.97 108.78 127.65 C 108.92 127.29 109.20 126.57 109.34 126.20 C 109.44 125.84 109.65 125.10 109.76 124.74 C 109.83 124.32 109.96 123.50 110.03 123.09 C 111.68 122.60 111.72 122.01 110.15 121.34 C 107.35 118.72 103.45 119.18 99.90 118.84 L 99.06 118.54 Z" />
<path fill="#4e7c7a" opacity="1.00" d=" M 36.00 124.81 C 43.72 126.48 50.05 135.33 58.49 130.81 C 64.07 120.61 64.91 138.89 65.20 143.11 L 64.34 142.98 C 64.22 142.54 63.97 141.67 63.85 141.23 C 64.52 139.96 64.74 138.06 63.13 137.37 C 63.11 136.91 63.08 135.99 63.06 135.53 C 64.32 127.41 54.66 134.14 50.74 133.24 C 50.31 133.19 49.44 133.10 49.01 133.05 C 48.34 131.79 47.39 131.49 46.14 132.17 C 45.66 130.23 43.96 129.05 42.03 128.90 C 41.48 128.65 40.38 128.15 39.83 127.90 C 39.33 127.68 38.35 127.25 37.86 127.03 L 37.03 127.01 C 36.77 126.46 36.25 125.36 36.00 124.81 Z" />
<path fill="#4e7c7a" opacity="1.00" d=" M 213.96 145.86 C 221.46 140.38 228.40 133.29 237.00 129.60 L 237.00 130.49 C 235.19 130.40 233.93 131.80 233.05 133.18 C 231.60 133.02 231.06 133.64 231.42 135.04 C 230.86 135.31 229.74 135.86 229.18 136.13 C 227.43 136.22 226.22 137.61 225.96 139.27 C 225.67 139.47 225.10 139.88 224.82 140.09 C 224.52 140.27 223.94 140.64 223.65 140.82 L 223.03 141.17 C 222.72 141.34 222.10 141.68 221.79 141.85 L 221.14 142.19 C 220.83 142.36 220.20 142.72 219.88 142.89 L 219.25 143.28 C 218.95 143.48 218.35 143.88 218.04 144.08 C 217.75 144.30 217.16 144.73 216.86 144.94 C 216.54 145.13 215.89 145.52 215.57 145.71 C 215.16 145.75 214.36 145.82 213.96 145.86 Z" />
<path fill="#4e7c7a" opacity="1.00" d=" M 65.33 143.95 C 66.10 145.94 66.62 148.03 66.99 150.14 C 66.50 149.81 65.52 149.15 65.03 148.82 C 64.92 148.42 64.70 147.61 64.59 147.21 C 64.78 146.39 65.14 144.76 65.33 143.95 Z" />
<path fill="#4e7c7a" opacity="1.00" d=" M 158.36 155.20 C 176.67 166.00 196.86 154.75 213.96 145.86 C 213.72 146.39 213.24 147.45 213.00 147.99 L 212.28 148.18 C 211.95 148.30 211.28 148.54 210.95 148.66 C 209.65 149.35 208.36 150.06 207.10 150.83 C 204.84 152.06 202.79 153.61 200.83 155.26 C 199.64 154.54 198.65 154.75 197.87 155.91 C 197.43 155.95 196.55 156.02 196.11 156.06 C 195.58 156.30 194.53 156.79 194.01 157.04 L 193.14 156.98 C 191.87 156.31 191.03 156.64 190.62 158.00 L 189.85 158.30 C 179.41 167.66 166.52 155.18 157.83 159.08 L 157.44 159.73 C 157.35 160.08 157.15 160.78 157.06 161.13 C 156.97 161.50 156.80 162.25 156.71 162.63 C 156.57 162.97 156.27 163.67 156.12 164.02 C 155.84 164.47 155.29 165.37 155.01 165.83 C 154.79 166.15 154.35 166.79 154.13 167.11 C 152.76 167.00 152.09 167.64 152.12 169.02 C 151.86 169.29 151.34 169.83 151.08 170.10 C 149.93 171.74 148.79 173.40 147.64 175.05 C 147.44 175.30 147.04 175.80 146.84 176.05 C 146.63 176.27 146.19 176.72 145.98 176.94 C 145.73 177.16 145.24 177.60 144.99 177.82 C 144.57 178.19 143.72 178.93 143.29 179.31 C 141.58 179.22 140.26 180.55 140.21 182.24 C 139.92 182.45 139.34 182.86 139.05 183.07 C 138.77 183.28 138.22 183.70 137.95 183.91 C 137.66 184.11 137.08 184.50 136.79 184.70 L 136.18 185.08 C 135.86 185.25 135.22 185.59 134.91 185.76 L 134.22 186.08 C 133.88 186.23 133.20 186.53 132.86 186.68 C 132.49 186.82 131.76 187.11 131.40 187.26 C 131.05 187.43 130.37 187.78 130.03 187.95 L 129.30 188.32 C 127.90 188.14 127.25 188.74 127.37 190.14 C 127.06 190.34 126.45 190.75 126.14 190.96 C 125.90 191.22 125.40 191.76 125.15 192.02 C 124.82 192.20 124.15 192.55 123.81 192.72 L 122.99 192.92 C 119.76 193.11 116.55 193.35 113.32 193.31 C 111.28 192.67 110.48 190.50 109.33 188.91 C 109.36 187.48 109.42 184.61 109.45 183.17 C 109.13 182.59 108.47 181.41 108.14 180.82 C 107.99 180.40 107.68 179.55 107.52 179.13 C 114.45 180.75 107.41 194.97 117.88 191.99 C 135.49 186.65 150.78 172.48 158.36 155.20 Z" />
<path fill="#4e7c7a" opacity="1.00" d=" M 67.22 150.86 C 68.78 151.22 69.76 152.62 69.58 154.22 C 69.23 154.14 68.53 153.98 68.18 153.91 C 67.94 153.63 67.46 153.07 67.22 152.79 C 67.22 152.31 67.22 151.34 67.22 150.86 Z" />
<path fill="#4e7c7a" opacity="1.00" d=" M 69.58 154.22 C 70.96 154.23 71.68 154.93 71.77 156.31 C 70.38 156.29 69.65 155.60 69.58 154.22 Z" />
<path fill="#4e7c7a" opacity="1.00" d=" M 72.06 157.07 C 73.42 157.37 74.23 158.72 73.56 160.01 C 73.22 159.88 72.54 159.61 72.21 159.48 C 72.09 159.04 71.87 158.15 71.75 157.71 L 72.06 157.07 Z" />
<path fill="#4e7c7a" opacity="1.00" d=" M 76.23 162.75 C 78.52 164.53 80.85 166.24 83.20 167.94 C 88.94 172.20 95.58 174.97 102.04 177.94 C 100.80 177.89 99.58 177.94 98.35 178.09 L 97.50 177.94 C 94.92 176.60 92.39 175.17 89.85 173.78 C 89.53 173.61 88.89 173.27 88.56 173.10 C 87.35 172.62 86.13 172.15 84.92 171.68 C 84.55 171.57 83.83 171.35 83.47 171.24 L 82.69 171.14 C 82.99 169.84 82.48 169.14 81.17 169.04 C 80.98 168.75 80.59 168.19 80.40 167.91 C 79.57 167.31 78.71 166.75 77.84 166.22 C 77.33 165.32 76.86 164.40 76.42 163.47 L 76.23 162.75 Z" />
<path fill="#4e7c7a" opacity="1.00" d=" M 102.85 178.27 C 104.05 177.38 105.89 177.33 106.70 178.78 C 105.49 179.12 104.28 179.15 103.05 178.87 L 102.85 178.27 Z" />
</g>
<g id="#56928eff">
<path fill="#56928e" opacity="1.00" d=" M 0.00 58.91 C 2.91 58.84 5.83 58.72 8.74 58.67 C 9.91 59.41 10.98 60.29 12.07 61.15 C 11.95 63.21 13.55 64.75 15.56 64.87 L 16.31 65.09 C 18.51 66.11 20.69 67.16 22.81 68.35 C 23.89 69.96 25.63 71.12 27.64 70.88 L 28.51 70.95 C 28.83 72.37 29.70 72.74 31.11 72.06 L 32.00 72.16 C 42.48 73.75 54.02 72.08 63.34 78.16 C 63.66 78.32 64.32 78.65 64.64 78.81 L 65.38 79.02 C 65.34 80.35 65.99 80.97 67.32 80.87 L 67.99 81.27 C 70.87 83.90 74.49 93.32 79.25 88.23 C 80.34 87.22 81.32 86.10 82.32 85.00 C 82.53 84.74 82.96 84.22 83.18 83.96 C 83.38 83.68 83.78 83.13 83.99 82.85 C 85.25 83.18 86.73 82.64 87.00 81.24 L 87.78 81.06 C 89.60 81.02 91.59 80.65 92.57 78.93 L 93.33 78.79 C 93.68 78.66 94.38 78.41 94.73 78.28 C 103.37 71.00 117.02 76.81 125.16 69.06 C 122.07 67.38 119.27 65.17 117.57 62.03 L 117.88 61.31 C 118.11 61.01 118.58 60.43 118.81 60.14 C 119.34 59.80 120.38 59.13 120.91 58.80 C 128.05 60.25 135.50 59.49 142.59 61.12 C 145.73 71.90 162.78 64.00 164.98 77.07 C 160.39 85.66 147.06 70.61 144.13 82.92 C 153.88 89.88 160.01 117.74 173.30 103.94 L 174.06 103.65 C 178.34 104.64 182.62 105.84 186.50 107.96 L 187.19 108.35 C 187.55 108.47 188.27 108.70 188.63 108.82 L 189.43 108.95 C 204.71 115.23 220.30 119.05 237.00 116.03 L 237.00 118.02 C 216.57 119.65 197.57 115.19 179.19 106.59 C 172.45 102.51 171.06 112.14 166.18 112.75 C 152.40 101.83 147.13 81.20 129.80 75.08 C 110.99 71.41 90.80 78.06 77.43 91.69 C 72.41 93.38 70.50 87.73 68.71 84.30 C 53.31 68.46 27.53 80.05 11.96 64.09 C 9.65 59.65 4.11 61.44 0.00 60.91 L 0.00 58.91 M 121.31 60.11 C 115.81 65.28 128.25 67.46 129.07 62.05 C 126.75 60.71 124.02 59.74 121.31 60.11 M 135.13 68.12 C 136.05 77.11 150.71 64.54 135.13 68.12 M 156.35 73.19 C 151.98 76.13 159.05 81.17 161.86 77.71 C 162.94 74.59 159.12 71.97 156.35 73.19 Z" />
<path fill="#56928e" opacity="1.00" d=" M 0.00 73.52 C 8.52 77.45 4.89 90.10 12.34 95.72 C 21.07 112.25 35.85 125.35 53.81 130.87 C 63.30 129.80 56.51 113.94 62.76 112.18 C 64.87 132.20 66.01 154.23 83.20 167.94 C 80.85 166.24 78.52 164.53 76.23 162.75 C 75.33 161.84 74.44 160.93 73.56 160.01 C 74.23 158.72 73.42 157.37 72.06 157.07 L 71.77 156.31 C 71.68 154.93 70.96 154.23 69.58 154.22 C 69.76 152.62 68.78 151.22 67.22 150.86 L 66.99 150.14 C 66.62 148.03 66.10 145.94 65.33 143.95 L 65.20 143.11 C 64.91 138.89 64.07 120.61 58.49 130.81 C 50.05 135.33 43.72 126.48 36.00 124.81 C 31.54 119.19 24.10 117.04 20.02 111.11 L 19.67 110.37 C 19.92 108.36 18.56 106.80 16.83 105.99 C 17.01 104.73 16.48 104.04 15.23 103.91 L 14.83 103.23 C 13.48 99.22 11.51 95.34 7.70 93.12 C 7.58 92.81 7.32 92.18 7.19 91.86 L 6.91 91.23 C 6.76 90.92 6.45 90.30 6.30 89.99 L 5.98 89.30 C 4.64 84.76 5.51 78.17 0.00 76.34 L 0.00 73.52 Z" />
<path fill="#56928e" opacity="1.00" d=" M 69.25 95.04 C 73.74 94.75 71.94 101.14 69.78 103.04 C 65.47 103.38 66.29 96.63 69.25 95.04 Z" />
<path fill="#56928e" opacity="1.00" d=" M 76.41 112.16 C 81.65 114.75 72.19 117.95 76.41 112.16 Z" />
<path fill="#56928e" opacity="1.00" d=" M 98.75 117.29 C 106.93 113.19 118.33 119.97 111.53 128.42 C 107.23 142.69 85.13 122.16 98.75 117.29 M 99.06 118.54 L 98.33 118.96 C 88.93 125.46 109.13 139.46 110.76 126.64 C 115.97 118.96 104.10 115.29 99.06 118.54 Z" />
<path fill="#56928e" opacity="1.00" d=" M 166.08 118.79 C 169.94 122.58 168.85 132.77 166.99 138.28 C 164.09 133.20 164.11 124.85 166.08 118.79 Z" />
<path fill="#56928e" opacity="1.00" d=" M 179.86 157.90 C 202.34 155.23 218.56 138.49 237.00 127.74 L 237.00 129.60 C 228.40 133.29 221.46 140.38 213.96 145.86 C 196.86 154.75 176.67 166.00 158.36 155.20 C 150.78 172.48 135.49 186.65 117.88 191.99 C 107.41 194.97 114.45 180.75 107.52 179.13 L 106.70 178.78 C 105.89 177.33 104.05 177.38 102.85 178.27 L 102.04 177.94 C 95.58 174.97 88.94 172.20 83.20 167.94 C 91.52 170.62 98.50 176.53 107.47 177.30 C 115.36 178.22 108.56 191.72 116.96 191.06 C 135.37 185.37 150.69 170.28 158.37 152.27 C 165.67 153.03 171.68 161.24 179.86 157.90 Z" />
</g>
<g id="#5fa9a3ff">
<path fill="#5fa9a3" opacity="1.00" d=" M 121.31 60.11 C 124.02 59.74 126.75 60.71 129.07 62.05 C 128.25 67.46 115.81 65.28 121.31 60.11 Z" />
<path fill="#5fa9a3" opacity="1.00" d=" M 0.00 60.91 C 4.11 61.44 9.65 59.65 11.96 64.09 C 27.53 80.05 53.31 68.46 68.71 84.30 C 70.50 87.73 72.41 93.38 77.43 91.69 C 90.80 78.06 110.99 71.41 129.80 75.08 C 147.13 81.20 152.40 101.83 166.18 112.75 C 171.06 112.14 172.45 102.51 179.19 106.59 C 197.57 115.19 216.57 119.65 237.00 118.02 L 237.00 119.01 C 214.10 124.57 195.21 113.30 174.08 107.83 C 165.90 117.38 173.64 130.36 169.69 141.52 C 169.67 146.06 159.37 149.75 166.59 153.35 C 193.97 162.83 216.26 137.16 237.00 124.88 L 237.00 127.74 C 218.56 138.49 202.34 155.23 179.86 157.90 C 171.68 161.24 165.67 153.03 158.37 152.27 C 150.69 170.28 135.37 185.37 116.96 191.06 C 108.56 191.72 115.36 178.22 107.47 177.30 C 98.50 176.53 91.52 170.62 83.20 167.94 C 66.01 154.23 64.87 132.20 62.76 112.18 C 56.51 113.94 63.30 129.80 53.81 130.87 C 35.85 125.35 21.07 112.25 12.34 95.72 C 4.89 90.10 8.52 77.45 0.00 73.52 L 0.00 71.69 C 6.78 71.91 6.73 80.11 7.97 84.92 C 18.54 103.91 31.82 124.15 54.78 129.12 C 58.76 122.93 57.07 115.18 59.19 108.44 C 64.02 102.61 67.96 94.61 67.24 86.97 C 58.01 73.86 40.69 76.50 26.80 74.30 C 17.53 71.25 10.61 61.55 0.00 62.86 L 0.00 60.91 M 109.58 76.41 C 85.39 82.41 61.07 102.91 66.66 129.30 C 64.80 154.27 86.51 171.52 108.52 176.30 C 115.18 177.67 111.42 186.20 115.23 189.96 C 129.10 186.40 141.13 176.21 149.31 164.34 C 155.82 159.87 153.65 148.04 162.37 146.25 C 171.03 114.68 145.49 72.61 109.58 76.41 M 69.25 95.04 C 66.29 96.63 65.47 103.38 69.78 103.04 C 71.94 101.14 73.74 94.75 69.25 95.04 M 166.08 118.79 C 164.11 124.85 164.09 133.20 166.99 138.28 C 168.85 132.77 169.94 122.58 166.08 118.79 Z" />
<path fill="#5fa9a3" opacity="1.00" d=" M 156.35 73.19 C 159.12 71.97 162.94 74.59 161.86 77.71 C 159.05 81.17 151.98 76.13 156.35 73.19 Z" />
<path fill="#5fa9a3" opacity="1.00" d=" M 129.15 103.80 C 138.31 109.72 121.94 111.58 129.15 103.80 Z" />
<path fill="#5fa9a3" opacity="1.00" d=" M 75.38 109.24 C 80.70 107.62 83.16 118.01 77.04 118.03 C 71.55 118.72 69.71 110.17 75.38 109.24 M 76.41 112.16 C 72.19 117.95 81.65 114.75 76.41 112.16 Z" />
<path fill="#5fa9a3" opacity="1.00" d=" M 101.52 115.49 C 112.07 112.84 122.59 122.81 111.58 131.49 C 101.04 145.88 82.41 116.05 101.52 115.49 M 98.75 117.29 C 85.13 122.16 107.23 142.69 111.53 128.42 C 118.33 119.97 106.93 113.19 98.75 117.29 Z" />
</g>
<g id="#69c0b8ff">
<path fill="#69c0b8" opacity="1.00" d=" M 0.00 62.86 C 10.61 61.55 17.53 71.25 26.80 74.30 C 40.69 76.50 58.01 73.86 67.24 86.97 C 67.96 94.61 64.02 102.61 59.19 108.44 C 57.07 115.18 58.76 122.93 54.78 129.12 C 31.82 124.15 18.54 103.91 7.97 84.92 C 6.73 80.11 6.78 71.91 0.00 71.69 L 0.00 62.86 M 6.28 67.31 C 2.66 67.05 2.53 70.29 5.72 71.30 C 14.63 92.97 27.85 123.43 54.88 123.77 C 48.99 107.48 69.06 98.81 62.35 83.57 C 50.56 82.26 40.23 75.29 28.10 75.88 C 18.58 78.31 15.35 66.37 6.28 67.31 Z" />
<path fill="#69c0b8" opacity="1.00" d=" M 109.58 76.41 C 145.49 72.61 171.03 114.68 162.37 146.25 C 153.65 148.04 155.82 159.87 149.31 164.34 C 141.13 176.21 129.10 186.40 115.23 189.96 C 111.42 186.20 115.18 177.67 108.52 176.30 C 86.51 171.52 64.80 154.27 66.66 129.30 C 61.07 102.91 85.39 82.41 109.58 76.41 M 106.71 81.48 C 92.08 81.06 84.81 91.08 76.00 100.29 C 75.15 106.31 84.02 106.97 83.06 113.00 C 84.91 122.21 73.86 121.86 69.03 117.93 C 67.93 128.58 66.27 141.91 74.83 149.31 C 79.05 171.28 109.47 165.12 115.78 183.30 C 124.97 188.05 130.65 178.06 137.62 174.67 C 143.06 165.83 153.72 161.11 153.65 149.77 C 172.33 118.07 144.20 72.62 106.71 81.48 M 75.38 109.24 C 69.71 110.17 71.55 118.72 77.04 118.03 C 83.16 118.01 80.70 107.62 75.38 109.24 Z" />
<path fill="#69c0b8" opacity="1.00" d=" M 127.55 101.15 C 134.98 99.88 141.97 107.41 137.75 114.58 C 129.70 120.63 117.59 106.46 127.55 101.15 M 129.15 103.80 C 121.94 111.58 138.31 109.72 129.15 103.80 Z" />
<path fill="#69c0b8" opacity="1.00" d=" M 174.08 107.83 C 195.21 113.30 214.10 124.57 237.00 119.01 L 237.00 121.04 C 222.14 119.51 204.27 125.48 191.83 114.78 C 185.82 113.36 179.42 112.00 173.17 112.39 C 172.27 125.68 175.06 139.51 170.01 152.24 C 196.94 157.24 216.15 133.00 237.00 122.02 L 237.00 124.88 C 216.26 137.16 193.97 162.83 166.59 153.35 C 159.37 149.75 169.67 146.06 169.69 141.52 C 173.64 130.36 165.90 117.38 174.08 107.83 Z" />
<path fill="#69c0b8" opacity="1.00" d=" M 106.29 113.71 C 116.22 110.61 126.24 122.90 115.09 129.10 C 112.26 140.78 89.62 138.54 91.91 125.09 C 88.36 115.76 98.91 112.58 106.29 113.71 M 101.52 115.49 C 82.41 116.05 101.04 145.88 111.58 131.49 C 122.59 122.81 112.07 112.84 101.52 115.49 Z" />
</g>
<g id="#71d5cbff">
<path fill="#71d5cb" opacity="1.00" d=" M 6.28 67.31 C 15.35 66.37 18.58 78.31 28.10 75.88 C 40.23 75.29 50.56 82.26 62.35 83.57 C 69.06 98.81 48.99 107.48 54.88 123.77 C 27.85 123.43 14.63 92.97 5.72 71.30 C 2.53 70.29 2.66 67.05 6.28 67.31 Z" />
<path fill="#71d5cb" opacity="1.00" d=" M 106.71 81.48 C 144.20 72.62 172.33 118.07 153.65 149.77 C 153.72 161.11 143.06 165.83 137.62 174.67 C 130.65 178.06 124.97 188.05 115.78 183.30 C 109.47 165.12 79.05 171.28 74.83 149.31 C 66.27 141.91 67.93 128.58 69.03 117.93 C 73.86 121.86 84.91 122.21 83.06 113.00 C 84.02 106.97 75.15 106.31 76.00 100.29 C 84.81 91.08 92.08 81.06 106.71 81.48 M 127.55 101.15 C 117.59 106.46 129.70 120.63 137.75 114.58 C 141.97 107.41 134.98 99.88 127.55 101.15 M 106.29 113.71 C 98.91 112.58 88.36 115.76 91.91 125.09 C 89.62 138.54 112.26 140.78 115.09 129.10 C 126.24 122.90 116.22 110.61 106.29 113.71 Z" />
<path fill="#71d5cb" opacity="1.00" d=" M 173.17 112.39 C 179.42 112.00 185.82 113.36 191.83 114.78 C 204.27 125.48 222.14 119.51 237.00 121.04 L 237.00 122.02 C 216.15 133.00 196.94 157.24 170.01 152.24 C 175.06 139.51 172.27 125.68 173.17 112.39 Z" />
</g>
</svg>
