<?xml version="1.0" encoding="UTF-8" standalone="no"?>
<!DOCTYPE svg PUBLIC "-//W3C//DTD SVG 1.1//EN" "http://www.w3.org/Graphics/SVG/1.1/DTD/svg11.dtd">
<svg width="100%" height="100%" viewBox="0 0 52 58" version="1.1" xmlns="http://www.w3.org/2000/svg" xmlns:xlink="http://www.w3.org/1999/xlink" xml:space="preserve" xmlns:serif="http://www.serif.com/" style="fill-rule:evenodd;clip-rule:evenodd;stroke-linejoin:round;stroke-miterlimit:2;">
    <g transform="matrix(1,0,0,1,-1335.83,-2600.79)">
        <path d="M1335.83,2630.43L1354.72,2600.79L1362.99,2605.51L1387.8,2630.43L1362.99,2653.94L1354.72,2658.66L1335.83,2630.43ZM1354.64,2635.95L1354.64,2638.88L1356.29,2637.91L1361.81,2644.49L1374.8,2629.72L1361.81,2616.14L1356.35,2622.75L1354.64,2621.75L1354.64,2624.81L1350,2630.43L1354.64,2635.95Z" style="fill:rgb(128,128,128);"/>
        <g transform="matrix(6.12323e-17,1,-0.856667,5.24557e-17,3614.18,1269.69)">
            <path d="M1360.63,2622.64L1367.72,2636.81L1353.54,2636.81L1360.63,2622.64Z" style="fill:rgb(128,128,128);"/>
        </g>
    </g>
</svg>
