<?xml version="1.0" encoding="UTF-8" ?>
<!DOCTYPE svg PUBLIC "-//W3C//DTD SVG 1.1//EN" "http://www.w3.org/Graphics/SVG/1.1/DTD/svg11.dtd">
<svg width="65pt" height="65pt" viewBox="0 0 65 65" version="1.1" xmlns="http://www.w3.org/2000/svg">
<g id="#fffdfcff">
<path fill="#fffdfc" opacity="1.00" d=" M 23.96 4.39 C 25.89 3.35 27.95 2.61 30.04 1.98 C 31.63 1.73 33.22 1.51 34.82 1.36 C 34.13 5.50 39.16 6.83 39.04 10.71 C 38.01 11.53 36.98 12.35 35.95 13.18 C 33.67 10.22 32.19 6.36 28.97 4.32 C 25.53 6.67 23.35 10.30 20.94 13.60 C 19.24 11.54 17.56 9.47 15.87 7.41 C 18.04 6.66 20.24 5.97 22.44 5.34 L 22.63 4.42 C 22.97 4.41 23.63 4.40 23.96 4.39 Z" />
</g>
<g id="#e0c2ceff">
<path fill="#e0c2ce" opacity="1.00" d=" M 34.82 1.36 C 37.52 2.45 40.01 3.99 42.30 5.78 C 42.57 6.12 43.11 6.79 43.38 7.13 C 41.89 8.75 40.50 10.46 39.13 12.17 L 39.04 10.71 C 39.16 6.83 34.13 5.50 34.82 1.36 Z" />
</g>
<g id="#f4bdaeff">
<path fill="#f4bdae" opacity="1.00" d=" M 20.94 13.60 C 23.35 10.30 25.53 6.67 28.97 4.32 C 32.19 6.36 33.67 10.22 35.95 13.18 C 36.98 12.35 38.01 11.53 39.04 10.71 L 39.13 12.17 C 39.16 12.88 39.22 14.28 39.25 14.99 C 39.58 15.03 40.23 15.11 40.56 15.16 C 39.49 18.93 39.48 22.87 39.40 26.76 C 39.39 27.08 39.37 27.72 39.36 28.04 C 40.20 28.29 41.04 28.56 41.87 28.83 C 42.21 32.21 43.65 35.34 46.38 37.44 C 46.05 37.65 45.40 38.05 45.07 38.25 L 44.08 38.91 C 43.07 39.59 42.09 40.31 41.11 41.04 C 40.83 39.48 40.54 37.93 40.27 36.37 C 39.76 36.10 39.25 35.85 38.74 35.59 C 39.77 34.34 40.80 33.10 41.82 31.85 C 39.40 29.33 36.22 27.83 32.67 28.52 C 33.64 28.17 34.62 27.80 35.58 27.43 C 35.39 25.66 35.20 23.90 35.01 22.14 C 35.62 22.66 36.23 23.18 36.84 23.70 C 37.14 21.48 37.44 19.26 37.74 17.04 C 33.10 16.39 28.41 16.27 23.79 15.50 C 22.44 15.20 21.11 14.83 19.80 14.37 C 18.14 12.91 16.55 11.38 14.96 9.84 C 13.91 11.35 12.86 12.85 11.88 14.40 C 11.43 13.07 10.95 11.75 10.45 10.44 C 11.93 9.34 13.50 8.38 15.04 7.40 L 15.87 7.41 C 17.56 9.47 19.24 11.54 20.94 13.60 M 22.82 14.32 C 26.59 14.34 30.37 14.23 34.14 14.17 C 32.72 11.81 31.43 9.34 29.56 7.31 C 26.18 7.70 24.65 11.82 22.82 14.32 M 35.25 14.31 C 34.26 15.56 36.39 17.32 37.43 16.09 C 38.39 14.85 36.29 13.17 35.25 14.31 Z" />
</g>
<g id="#68605c6c">
<path fill="#68605c" opacity="0.42" d=" M 46.05 8.46 C 49.52 7.48 53.26 5.50 56.85 7.20 C 61.18 8.70 63.27 15.19 59.65 18.43 C 60.29 16.10 61.18 13.44 59.90 11.15 C 57.94 7.19 52.17 6.26 48.84 9.06 L 48.55 9.20 C 47.70 8.99 46.87 8.75 46.05 8.46 Z" />
</g>
<g id="#ffffffff">
<path fill="#ffffff" opacity="1.00" d=" M 22.82 14.32 C 24.65 11.82 26.18 7.70 29.56 7.31 C 31.43 9.34 32.72 11.81 34.14 14.17 C 30.37 14.23 26.59 14.34 22.82 14.32 Z" />
<path fill="#ffffff" opacity="1.00" d=" M 11.88 14.40 C 12.86 12.85 13.91 11.35 14.96 9.84 C 16.55 11.38 18.14 12.91 19.80 14.37 C 18.55 17.72 13.99 17.65 11.19 19.09 C 11.41 17.52 11.64 15.96 11.88 14.40 Z" />
<path fill="#ffffff" opacity="1.00" d=" M 10.71 22.82 C 11.76 20.75 13.48 19.16 15.48 18.03 C 15.48 19.94 15.49 21.85 15.43 23.76 C 15.38 24.13 15.28 24.86 15.23 25.22 C 13.56 27.32 12.20 29.62 10.94 31.98 L 10.72 30.75 C 10.75 30.31 10.82 29.42 10.86 28.98 C 10.46 29.19 9.65 29.61 9.25 29.82 C 9.65 27.47 10.16 25.14 10.71 22.82 Z" />
</g>
<g id="#fdd9c1ff">
<path fill="#fdd9c1" opacity="1.00" d=" M 39.13 12.17 C 40.50 10.46 41.89 8.75 43.38 7.13 C 43.76 7.32 44.52 7.71 44.90 7.91 L 46.05 8.46 C 46.87 8.75 47.70 8.99 48.55 9.20 C 47.92 10.01 47.30 10.83 46.83 11.75 C 45.70 12.78 45.61 14.30 45.28 15.67 C 43.71 15.51 42.13 15.34 40.56 15.16 C 40.23 15.11 39.58 15.03 39.25 14.99 C 39.22 14.28 39.16 12.88 39.13 12.17 Z" />
</g>
<g id="#fcecdfff">
<path fill="#fcecdf" opacity="1.00" d=" M 48.84 9.06 C 52.17 6.26 57.94 7.19 59.90 11.15 C 61.18 13.44 60.29 16.10 59.65 18.43 C 59.43 18.66 58.99 19.11 58.77 19.34 C 58.54 17.43 58.19 15.55 57.85 13.66 C 54.41 13.08 51.52 11.17 48.84 9.06 Z" />
</g>
<g id="#e9c3c9ff">
<path fill="#e9c3c9" opacity="1.00" d=" M 48.55 9.20 L 48.84 9.06 C 51.52 11.17 54.41 13.08 57.85 13.66 C 58.19 15.55 58.54 17.43 58.77 19.34 C 58.13 19.94 57.49 20.53 56.84 21.11 C 57.27 18.68 57.30 16.19 56.47 13.84 C 55.69 15.41 54.94 17.00 54.20 18.59 C 52.69 18.49 51.19 18.39 49.68 18.28 C 50.40 17.19 51.12 16.10 51.84 15.00 C 50.61 15.52 49.39 16.04 48.17 16.55 C 47.76 14.94 47.24 13.36 46.83 11.75 C 47.30 10.83 47.92 10.01 48.55 9.20 Z" />
</g>
<g id="#cd8888ff">
<path fill="#cd8888" opacity="1.00" d=" M 9.82 11.28 L 10.45 10.44 C 10.95 11.75 11.43 13.07 11.88 14.40 C 11.64 15.96 11.41 17.52 11.19 19.09 C 13.99 17.65 18.55 17.72 19.80 14.37 C 21.11 14.83 22.44 15.20 23.79 15.50 C 23.22 18.26 22.70 21.03 22.08 23.78 C 20.40 25.54 18.95 27.50 17.67 29.58 C 18.83 29.58 21.14 29.60 22.30 29.61 C 22.89 28.72 23.48 27.84 24.07 26.95 C 24.63 27.79 25.18 28.63 25.74 29.47 C 25.48 30.85 25.23 32.22 25.00 33.59 L 24.79 34.94 C 24.41 34.04 24.00 33.15 23.54 32.29 C 23.19 31.79 22.50 30.78 22.15 30.28 C 20.78 30.36 19.41 30.47 18.04 30.60 C 18.14 31.11 18.35 32.14 18.46 32.65 L 18.24 33.37 C 17.24 35.92 16.99 38.75 17.67 41.42 C 20.39 44.48 24.77 44.49 28.53 44.37 C 28.01 46.07 27.49 47.78 26.97 49.48 C 28.47 49.44 29.96 49.40 31.45 49.36 C 31.88 49.05 32.75 48.43 33.18 48.12 C 33.56 47.86 34.32 47.35 34.70 47.09 C 36.38 47.79 38.15 48.36 39.65 49.41 C 39.77 50.68 39.76 52.02 38.99 53.10 C 38.41 52.80 37.25 52.20 36.67 51.90 C 36.62 51.47 36.54 50.61 36.50 50.18 C 34.69 50.62 32.89 51.07 31.08 51.51 C 31.26 53.73 32.04 55.81 33.13 57.74 C 30.79 57.03 28.40 56.00 26.00 57.16 C 26.31 59.19 26.81 61.19 27.48 63.13 C 26.14 63.41 24.79 63.68 23.44 63.93 C 23.16 63.94 22.58 63.96 22.29 63.97 C 22.31 63.33 22.34 62.06 22.36 61.42 C 23.39 60.04 24.43 58.65 25.40 57.22 C 25.17 56.97 24.72 56.49 24.49 56.25 C 24.14 55.89 23.43 55.18 23.07 54.83 C 21.70 55.07 20.32 55.30 18.94 55.48 C 17.95 54.33 17.01 53.14 16.06 51.96 C 17.33 51.59 18.61 51.23 19.88 50.87 C 20.99 51.47 22.10 52.06 23.20 52.65 C 24.20 51.27 25.17 49.88 26.11 48.47 C 24.70 47.75 23.29 47.04 21.88 46.33 C 21.04 47.10 20.20 47.86 19.36 48.63 C 17.94 45.97 15.50 44.41 12.55 43.95 C 12.60 42.42 12.66 40.91 12.73 39.39 C 13.42 39.52 14.81 39.78 15.50 39.92 C 15.41 39.49 15.22 38.64 15.13 38.21 C 15.36 33.89 15.51 29.55 15.23 25.22 C 15.28 24.86 15.38 24.13 15.43 23.76 C 15.46 26.59 15.67 29.42 15.99 32.24 C 18.47 27.04 20.00 21.44 22.66 16.30 C 20.20 16.54 17.74 16.99 15.48 18.03 C 13.48 19.16 11.76 20.75 10.71 22.82 C 9.96 20.94 9.39 19.00 8.95 17.04 C 9.21 15.11 9.49 13.19 9.82 11.28 Z" />
</g>
<g id="#b5576aff">
<path fill="#b5576a" opacity="1.00" d=" M 45.28 15.67 C 45.61 14.30 45.70 12.78 46.83 11.75 C 47.24 13.36 47.76 14.94 48.17 16.55 C 48.07 17.08 47.89 18.14 47.80 18.66 C 50.29 19.19 53.88 19.44 53.14 22.96 C 51.66 22.40 50.19 21.82 48.71 21.25 C 48.22 23.68 48.64 26.10 49.49 28.40 C 50.51 28.54 51.53 28.69 52.56 28.83 C 53.41 30.51 54.30 32.17 55.07 33.89 C 53.62 33.62 52.16 33.35 50.71 33.08 C 50.39 32.58 49.75 31.57 49.44 31.07 C 48.21 28.09 46.88 25.16 45.35 22.34 C 45.09 21.88 44.57 20.96 44.31 20.50 C 42.22 19.40 41.11 17.40 40.56 15.16 C 42.13 15.34 43.71 15.51 45.28 15.67 Z" />
</g>
<g id="#de9b90ff">
<path fill="#de9b90" opacity="1.00" d=" M 35.25 14.31 C 36.29 13.17 38.39 14.85 37.43 16.09 C 36.39 17.32 34.26 15.56 35.25 14.31 Z" />
</g>
<g id="#e77377ff">
<path fill="#e77377" opacity="1.00" d=" M 48.17 16.55 C 49.39 16.04 50.61 15.52 51.84 15.00 C 51.12 16.10 50.40 17.19 49.68 18.28 C 51.19 18.39 52.69 18.49 54.20 18.59 C 54.94 17.00 55.69 15.41 56.47 13.84 C 57.30 16.19 57.27 18.68 56.84 21.11 C 56.73 21.40 56.51 21.97 56.40 22.25 C 55.70 23.80 54.98 25.33 54.24 26.86 C 53.82 27.36 52.98 28.34 52.56 28.83 C 51.53 28.69 50.51 28.54 49.49 28.40 C 48.64 26.10 48.22 23.68 48.71 21.25 C 50.19 21.82 51.66 22.40 53.14 22.96 C 53.88 19.44 50.29 19.19 47.80 18.66 C 47.89 18.14 48.07 17.08 48.17 16.55 Z" />
</g>
<g id="#fbebdfff">
<path fill="#fbebdf" opacity="1.00" d=" M 4.70 15.37 C 5.64 15.44 7.52 15.56 8.46 15.63 C 8.58 15.98 8.82 16.68 8.95 17.04 C 9.39 19.00 9.96 20.94 10.71 22.82 C 10.16 25.14 9.65 27.47 9.25 29.82 C 8.34 33.19 9.63 38.79 4.92 39.54 C 3.48 38.38 1.94 36.97 1.67 35.03 C 1.17 32.64 3.21 30.94 4.45 29.19 C 4.46 27.70 4.46 26.21 4.47 24.72 C 3.38 23.26 1.39 22.05 1.53 20.02 C 1.28 17.89 3.50 16.77 4.70 15.37 Z" />
<path fill="#fbebdf" opacity="1.00" d=" M 7.96 58.32 C 3.87 56.91 3.54 50.93 6.04 47.95 L 7.37 46.86 C 8.28 48.93 9.38 50.91 10.42 52.92 C 10.33 54.77 10.23 56.62 10.12 58.47 C 9.58 58.43 8.50 58.36 7.96 58.32 Z" />
<path fill="#fbebdf" opacity="1.00" d=" M 53.32 55.13 C 53.87 53.22 54.61 51.38 55.48 49.60 C 56.58 51.00 57.65 52.43 58.72 53.87 C 58.65 52.95 58.50 51.11 58.43 50.19 C 59.94 52.35 59.36 54.87 58.66 57.22 C 58.46 57.37 58.06 57.66 57.86 57.81 L 57.32 58.39 C 56.54 58.47 54.98 58.63 54.20 58.71 C 54.49 60.00 54.78 61.30 55.07 62.60 C 53.06 62.29 51.04 61.99 49.12 61.30 C 50.94 59.57 52.86 57.71 53.32 55.13 Z" />
</g>
<g id="#fff2d3ff">
<path fill="#fff2d3" opacity="1.00" d=" M 23.79 15.50 C 28.41 16.27 33.10 16.39 37.74 17.04 C 37.44 19.26 37.14 21.48 36.84 23.70 C 36.23 23.18 35.62 22.66 35.01 22.14 C 35.20 23.90 35.39 25.66 35.58 27.43 C 34.62 27.80 33.64 28.17 32.67 28.52 L 31.58 28.84 C 32.01 25.72 34.17 22.61 31.73 19.73 C 30.33 22.40 29.85 25.39 29.03 28.27 C 27.95 28.72 26.85 29.13 25.74 29.47 C 25.18 28.63 24.63 27.79 24.07 26.95 C 23.48 27.84 22.89 28.72 22.30 29.61 C 21.14 29.60 18.83 29.58 17.67 29.58 C 18.95 27.50 20.40 25.54 22.08 23.78 C 22.70 21.03 23.22 18.26 23.79 15.50 Z" />
</g>
<g id="#ed8284ff">
<path fill="#ed8284" opacity="1.00" d=" M 39.40 26.76 C 39.48 22.87 39.49 18.93 40.56 15.16 C 41.11 17.40 42.22 19.40 44.31 20.50 C 44.57 20.96 45.09 21.88 45.35 22.34 C 45.16 22.64 44.77 23.23 44.58 23.52 C 43.00 24.82 41.22 25.83 39.40 26.76 Z" />
</g>
<g id="#fff8d5ff">
<path fill="#fff8d5" opacity="1.00" d=" M 15.48 18.03 C 17.74 16.99 20.20 16.54 22.66 16.30 C 20.00 21.44 18.47 27.04 15.99 32.24 C 15.67 29.42 15.46 26.59 15.43 23.76 C 15.49 21.85 15.48 19.94 15.48 18.03 Z" />
</g>
<g id="#f5bab3ff">
<path fill="#f5bab3" opacity="1.00" d=" M 29.03 28.27 C 29.85 25.39 30.33 22.40 31.73 19.73 C 34.17 22.61 32.01 25.72 31.58 28.84 C 32.03 29.73 32.47 30.62 32.90 31.52 C 30.97 32.23 30.51 34.16 30.01 35.93 C 28.34 35.15 26.67 34.37 25.00 33.59 C 25.23 32.22 25.48 30.85 25.74 29.47 C 26.85 29.13 27.95 28.72 29.03 28.27 Z" />
</g>
<g id="#c67f86ff">
<path fill="#c67f86" opacity="1.00" d=" M 44.58 23.52 C 44.77 23.23 45.16 22.64 45.35 22.34 C 46.88 25.16 48.21 28.09 49.44 31.07 C 48.52 34.25 50.12 37.38 53.49 38.00 C 53.94 38.13 54.86 38.40 55.31 38.54 L 54.04 38.93 C 52.73 39.37 51.45 39.86 50.16 40.35 C 49.64 38.73 49.06 37.15 48.51 35.54 C 48.32 34.94 47.92 33.73 47.73 33.13 C 46.70 29.92 45.53 26.76 44.58 23.52 Z" />
</g>
<g id="#55494763">
<path fill="#554947" opacity="0.39" d=" M 54.24 26.86 C 54.98 25.33 55.70 23.80 56.40 22.25 C 55.92 24.51 55.39 26.77 54.67 28.97 C 57.04 29.78 60.02 30.37 60.99 33.03 C 62.37 37.98 61.90 43.48 59.15 47.90 C 59.71 50.87 62.08 55.09 58.66 57.22 C 59.36 54.87 59.94 52.35 58.43 50.19 C 58.39 49.41 58.30 47.86 58.25 47.08 C 58.87 46.14 59.48 45.19 60.06 44.22 C 61.13 40.81 60.91 37.12 60.28 33.65 C 59.46 31.25 56.91 30.38 54.59 30.34 C 54.38 29.98 53.98 29.27 53.77 28.91 C 53.89 28.40 54.13 27.37 54.24 26.86 Z" />
</g>
<g id="#a5445fff">
<path fill="#a5445f" opacity="1.00" d=" M 39.40 26.76 C 41.22 25.83 43.00 24.82 44.58 23.52 C 45.53 26.76 46.70 29.92 47.73 33.13 C 46.38 31.01 44.36 29.39 41.87 28.83 C 41.04 28.56 40.20 28.29 39.36 28.04 C 39.37 27.72 39.39 27.08 39.40 26.76 Z" />
</g>
<g id="#fff5d4ff">
<path fill="#fff5d4" opacity="1.00" d=" M 10.94 31.98 C 12.20 29.62 13.56 27.32 15.23 25.22 C 15.51 29.55 15.36 33.89 15.13 38.21 C 14.47 37.42 13.81 36.64 13.14 35.87 C 12.35 36.96 11.57 38.06 10.77 39.14 C 10.22 36.37 10.27 33.53 10.72 30.75 L 10.94 31.98 Z" />
</g>
<g id="#bc7e91f6">
<path fill="#bc7e91" opacity="0.96" d=" M 52.56 28.83 C 52.98 28.34 53.82 27.36 54.24 26.86 C 54.13 27.37 53.89 28.40 53.77 28.91 C 53.98 29.27 54.38 29.98 54.59 30.34 C 56.05 32.73 56.96 35.38 57.81 38.04 L 56.57 38.28 C 56.08 36.81 55.62 35.34 55.07 33.89 C 54.30 32.17 53.41 30.51 52.56 28.83 Z" />
</g>
<g id="#edd5caff">
<path fill="#edd5ca" opacity="1.00" d=" M 9.25 29.82 C 9.65 29.61 10.46 29.19 10.86 28.98 C 10.82 29.42 10.75 30.31 10.72 30.75 C 10.27 33.53 10.22 36.37 10.77 39.14 C 11.57 38.06 12.35 36.96 13.14 35.87 C 13.81 36.64 14.47 37.42 15.13 38.21 C 15.22 38.64 15.41 39.49 15.50 39.92 C 14.81 39.78 13.42 39.52 12.73 39.39 C 12.66 40.91 12.60 42.42 12.55 43.95 C 15.50 44.41 17.94 45.97 19.36 48.63 C 20.20 47.86 21.04 47.10 21.88 46.33 C 23.29 47.04 24.70 47.75 26.11 48.47 C 25.17 49.88 24.20 51.27 23.20 52.65 C 22.10 52.06 20.99 51.47 19.88 50.87 C 18.61 51.23 17.33 51.59 16.06 51.96 C 17.01 53.14 17.95 54.33 18.94 55.48 C 19.09 56.64 19.24 57.80 19.39 58.96 C 21.63 59.11 23.57 58.45 24.49 56.25 C 24.72 56.49 25.17 56.97 25.40 57.22 C 24.43 58.65 23.39 60.04 22.36 61.42 C 22.34 62.06 22.31 63.33 22.29 63.97 C 19.97 64.01 17.66 64.00 15.34 64.00 C 15.45 62.61 15.56 61.21 15.67 59.82 C 14.96 59.70 13.54 59.45 12.82 59.33 C 12.78 59.15 12.69 58.79 12.64 58.61 C 12.28 56.58 11.48 54.68 10.42 52.92 C 9.38 50.91 8.28 48.93 7.37 46.86 C 7.33 44.56 6.91 42.30 6.36 40.08 C 6.00 39.94 5.28 39.68 4.92 39.54 C 9.63 38.79 8.34 33.19 9.25 29.82 M 14.61 56.97 C 15.34 58.48 16.00 60.02 16.57 61.60 C 17.78 61.87 18.99 62.14 20.20 62.41 C 19.42 60.75 18.63 59.09 17.83 57.44 C 16.75 57.29 15.68 57.13 14.61 56.97 Z" />
</g>
<g id="#60587dff">
<path fill="#60587d" opacity="1.00" d=" M 31.58 28.84 L 32.67 28.52 C 36.22 27.83 39.40 29.33 41.82 31.85 C 40.80 33.10 39.77 34.34 38.74 35.59 C 37.67 35.15 35.53 34.27 34.45 33.84 C 34.40 34.87 34.28 36.93 34.22 37.97 C 33.60 35.86 33.33 33.67 32.90 31.52 C 32.47 30.62 32.03 29.73 31.58 28.84 Z" />
</g>
<g id="#e46a6eff">
<path fill="#e46a6e" opacity="1.00" d=" M 41.87 28.83 C 44.36 29.39 46.38 31.01 47.73 33.13 C 47.92 33.73 48.32 34.94 48.51 35.54 C 48.48 36.55 48.41 38.56 48.37 39.57 C 46.94 39.36 45.51 39.14 44.08 38.91 L 45.07 38.25 C 45.40 38.05 46.05 37.65 46.38 37.44 C 43.65 35.34 42.21 32.21 41.87 28.83 Z" />
</g>
<g id="#473a60ff">
<path fill="#473a60" opacity="1.00" d=" M 18.04 30.60 C 19.41 30.47 20.78 30.36 22.15 30.28 C 22.50 30.78 23.19 31.79 23.54 32.29 C 22.66 32.86 21.78 33.42 20.90 33.99 C 20.29 33.65 19.07 32.99 18.46 32.65 C 18.35 32.14 18.14 31.11 18.04 30.60 Z" />
</g>
<g id="#fbeae1ff">
<path fill="#fbeae1" opacity="1.00" d=" M 54.59 30.34 C 56.91 30.38 59.46 31.25 60.28 33.65 C 60.91 37.12 61.13 40.81 60.06 44.22 C 57.63 42.98 55.44 41.31 54.04 38.93 L 55.31 38.54 L 56.57 38.28 L 57.81 38.04 C 56.96 35.38 56.05 32.73 54.59 30.34 Z" />
</g>
<g id="#979ebaff">
<path fill="#979eba" opacity="1.00" d=" M 23.54 32.29 C 24.00 33.15 24.41 34.04 24.79 34.94 C 24.65 36.05 24.50 37.15 24.34 38.25 C 23.47 37.41 22.61 36.57 21.74 35.73 C 21.65 36.69 21.48 38.62 21.39 39.58 C 19.78 37.83 18.68 35.72 18.24 33.37 L 18.46 32.65 C 19.07 32.99 20.29 33.65 20.90 33.99 C 21.78 33.42 22.66 32.86 23.54 32.29 Z" />
</g>
<g id="#fffcedff">
<path fill="#fffced" opacity="1.00" d=" M 30.01 35.93 C 30.51 34.16 30.97 32.23 32.90 31.52 C 33.33 33.67 33.60 35.86 34.22 37.97 C 34.70 39.61 35.46 41.16 36.12 42.74 C 33.27 43.77 30.60 43.18 28.57 40.94 C 28.91 42.00 29.24 43.07 29.57 44.13 C 29.90 44.14 30.55 44.16 30.87 44.17 C 32.33 44.99 32.72 46.63 33.18 48.12 C 32.75 48.43 31.88 49.05 31.45 49.36 C 29.96 49.40 28.47 49.44 26.97 49.48 C 27.49 47.78 28.01 46.07 28.53 44.37 C 24.77 44.49 20.39 44.48 17.67 41.42 C 16.99 38.75 17.24 35.92 18.24 33.37 C 18.68 35.72 19.78 37.83 21.39 39.58 C 21.48 38.62 21.65 36.69 21.74 35.73 C 22.61 36.57 23.47 37.41 24.34 38.25 C 24.50 37.15 24.65 36.05 24.79 34.94 L 25.00 33.59 C 26.67 34.37 28.34 35.15 30.01 35.93 Z" />
</g>
<g id="#f0a295ff">
<path fill="#f0a295" opacity="1.00" d=" M 53.49 38.00 C 50.12 37.38 48.52 34.25 49.44 31.07 C 49.75 31.57 50.39 32.58 50.71 33.08 C 51.71 34.67 52.62 36.33 53.49 38.00 Z" />
</g>
<g id="#e37071ff">
<path fill="#e37071" opacity="1.00" d=" M 50.71 33.08 C 52.16 33.35 53.62 33.62 55.07 33.89 C 55.62 35.34 56.08 36.81 56.57 38.28 L 55.31 38.54 C 54.86 38.40 53.94 38.13 53.49 38.00 C 52.62 36.33 51.71 34.67 50.71 33.08 Z" />
</g>
<g id="#fbded0ff">
<path fill="#fbded0" opacity="1.00" d=" M 34.45 33.84 C 35.53 34.27 37.67 35.15 38.74 35.59 C 39.25 35.85 39.76 36.10 40.27 36.37 C 40.54 37.93 40.83 39.48 41.11 41.04 C 42.09 40.31 43.07 39.59 44.08 38.91 C 45.21 44.73 43.16 52.83 36.80 54.71 C 36.78 53.77 36.73 52.83 36.67 51.90 C 37.25 52.20 38.41 52.80 38.99 53.10 C 39.76 52.02 39.77 50.68 39.65 49.41 C 38.15 48.36 36.38 47.79 34.70 47.09 C 36.54 46.67 38.41 46.41 40.26 46.09 C 40.19 44.24 40.09 42.38 39.98 40.53 C 38.71 41.30 37.44 42.06 36.12 42.74 C 35.46 41.16 34.70 39.61 34.22 37.97 C 34.28 36.93 34.40 34.87 34.45 33.84 Z" />
</g>
<g id="#fee3cbff">
<path fill="#fee3cb" opacity="1.00" d=" M 48.51 35.54 C 49.06 37.15 49.64 38.73 50.16 40.35 C 51.03 43.44 51.75 46.58 52.43 49.73 C 52.09 51.69 51.48 53.60 50.75 55.45 C 50.21 51.47 49.42 47.53 48.44 43.64 C 48.35 42.28 48.34 40.92 48.37 39.57 C 48.41 38.56 48.48 36.55 48.51 35.54 Z" />
</g>
<g id="#c78490ff">
<path fill="#c78490" opacity="1.00" d=" M 44.08 38.91 C 45.51 39.14 46.94 39.36 48.37 39.57 C 48.34 40.92 48.35 42.28 48.44 43.64 C 47.63 44.15 46.82 44.66 46.00 45.16 C 45.40 48.20 45.49 51.30 45.93 54.34 C 45.63 55.43 45.33 56.52 45.02 57.60 C 43.29 57.46 41.56 57.31 39.83 57.14 C 39.35 57.09 38.40 56.99 37.92 56.94 C 36.62 57.29 35.33 57.66 34.04 58.04 C 34.50 56.60 35.46 55.41 36.80 54.71 C 43.16 52.83 45.21 44.73 44.08 38.91 M 42.43 53.26 C 41.49 53.75 40.40 55.89 41.93 56.30 C 43.77 56.54 44.84 52.28 42.43 53.26 Z" />
</g>
<g id="#e8c8bdff">
<path fill="#e8c8bd" opacity="1.00" d=" M 50.16 40.35 C 51.45 39.86 52.73 39.37 54.04 38.93 C 55.44 41.31 57.63 42.98 60.06 44.22 C 59.48 45.19 58.87 46.14 58.25 47.08 C 58.30 47.86 58.39 49.41 58.43 50.19 C 58.50 51.11 58.65 52.95 58.72 53.87 C 57.65 52.43 56.58 51.00 55.48 49.60 C 54.61 51.38 53.87 53.22 53.32 55.13 C 53.10 53.32 52.79 51.52 52.43 49.73 C 51.75 46.58 51.03 43.44 50.16 40.35 Z" />
</g>
<g id="#c0949fff">
<path fill="#c0949f" opacity="1.00" d=" M 36.12 42.74 C 37.44 42.06 38.71 41.30 39.98 40.53 C 40.09 42.38 40.19 44.24 40.26 46.09 C 38.41 46.41 36.54 46.67 34.70 47.09 C 34.32 47.35 33.56 47.86 33.18 48.12 C 32.72 46.63 32.33 44.99 30.87 44.17 C 30.55 44.16 29.90 44.14 29.57 44.13 C 29.24 43.07 28.91 42.00 28.57 40.94 C 30.60 43.18 33.27 43.77 36.12 42.74 Z" />
</g>
<g id="#db9da8ff">
<path fill="#db9da8" opacity="1.00" d=" M 46.00 45.16 C 46.82 44.66 47.63 44.15 48.44 43.64 C 49.42 47.53 50.21 51.47 50.75 55.45 C 51.48 53.60 52.09 51.69 52.43 49.73 C 52.79 51.52 53.10 53.32 53.32 55.13 C 52.86 57.71 50.94 59.57 49.12 61.30 C 48.72 61.16 47.92 60.87 47.52 60.72 C 48.30 59.47 49.09 58.23 49.81 56.95 C 49.65 56.55 49.32 55.75 49.16 55.35 C 48.63 54.19 48.07 53.04 47.51 51.90 C 46.97 52.71 46.45 53.52 45.93 54.34 C 45.49 51.30 45.40 48.20 46.00 45.16 Z" />
</g>
<g id="#fff4eeff">
<path fill="#fff4ee" opacity="1.00" d=" M 31.08 51.51 C 32.89 51.07 34.69 50.62 36.50 50.18 C 36.54 50.61 36.62 51.47 36.67 51.90 C 36.73 52.83 36.78 53.77 36.80 54.71 C 35.46 55.41 34.50 56.60 34.04 58.04 C 35.33 57.66 36.62 57.29 37.92 56.94 C 38.40 56.99 39.35 57.09 39.83 57.14 C 41.00 57.55 42.17 58.00 43.33 58.46 C 41.89 59.25 40.43 60.01 38.89 60.59 C 36.55 60.07 34.63 61.09 33.65 63.30 C 35.83 63.22 38.00 63.07 40.17 62.88 C 42.95 62.44 45.68 63.17 48.35 63.88 C 40.05 64.09 31.75 63.76 23.44 63.93 C 24.79 63.68 26.14 63.41 27.48 63.13 C 26.81 61.19 26.31 59.19 26.00 57.16 C 28.40 56.00 30.79 57.03 33.13 57.74 C 32.04 55.81 31.26 53.73 31.08 51.51 M 32.66 60.00 C 31.77 60.73 30.68 62.80 32.14 63.50 C 34.14 63.81 35.13 58.86 32.66 60.00 Z" />
</g>
<g id="#d3b8c3fd">
<path fill="#d3b8c3" opacity="1.00" d=" M 45.93 54.34 C 46.45 53.52 46.97 52.71 47.51 51.90 C 48.07 53.04 48.63 54.19 49.16 55.35 C 47.39 57.26 45.63 59.18 43.86 61.10 C 45.08 60.96 46.30 60.83 47.52 60.72 C 47.92 60.87 48.72 61.16 49.12 61.30 C 51.04 61.99 53.06 62.29 55.07 62.60 C 52.86 63.16 50.66 63.89 48.35 63.88 C 45.68 63.17 42.95 62.44 40.17 62.88 C 40.49 62.36 41.14 61.31 41.46 60.79 C 40.82 60.74 39.53 60.64 38.89 60.59 C 40.43 60.01 41.89 59.25 43.33 58.46 C 42.17 58.00 41.00 57.55 39.83 57.14 C 41.56 57.31 43.29 57.46 45.02 57.60 C 45.33 56.52 45.63 55.43 45.93 54.34 Z" />
</g>
<g id="#e9bbb3ff">
<path fill="#e9bbb3" opacity="1.00" d=" M 42.43 53.26 C 44.84 52.28 43.77 56.54 41.93 56.30 C 40.40 55.89 41.49 53.75 42.43 53.26 Z" />
</g>
<g id="#daaa9eff">
<path fill="#daaa9e" opacity="1.00" d=" M 10.42 52.92 C 11.48 54.68 12.28 56.58 12.64 58.61 C 12.01 58.58 10.75 58.50 10.12 58.47 C 10.23 56.62 10.33 54.77 10.42 52.92 Z" />
</g>
<g id="#fef6f1ff">
<path fill="#fef6f1" opacity="1.00" d=" M 18.94 55.48 C 20.32 55.30 21.70 55.07 23.07 54.83 C 23.43 55.18 24.14 55.89 24.49 56.25 C 23.57 58.45 21.63 59.11 19.39 58.96 C 19.24 57.80 19.09 56.64 18.94 55.48 Z" />
</g>
<g id="#ecd1d3ff">
<path fill="#ecd1d3" opacity="1.00" d=" M 43.86 61.10 C 45.63 59.18 47.39 57.26 49.16 55.35 C 49.32 55.75 49.65 56.55 49.81 56.95 C 49.09 58.23 48.30 59.47 47.52 60.72 C 46.30 60.83 45.08 60.96 43.86 61.10 Z" />
</g>
<g id="#d8a49cfb">
<path fill="#d8a49c" opacity="1.00" d=" M 14.61 56.97 C 15.68 57.13 16.75 57.29 17.83 57.44 C 18.63 59.09 19.42 60.75 20.20 62.41 C 18.99 62.14 17.78 61.87 16.57 61.60 C 16.00 60.02 15.34 58.48 14.61 56.97 Z" />
</g>
<g id="#62595a70">
<path fill="#62595a" opacity="0.44" d=" M 54.20 58.71 C 54.98 58.63 56.54 58.47 57.32 58.39 C 56.90 58.86 56.07 59.79 55.66 60.26 C 55.63 61.26 55.61 62.27 55.58 63.27 C 54.06 63.86 52.55 64.45 51.02 65.00 L 15.26 65.00 L 15.34 64.00 C 17.66 64.00 19.97 64.01 22.29 63.97 C 22.58 63.96 23.16 63.94 23.44 63.93 C 31.75 63.76 40.05 64.09 48.35 63.88 C 50.66 63.89 52.86 63.16 55.07 62.60 C 54.78 61.30 54.49 60.00 54.20 58.71 Z" />
</g>
<g id="#c18a8bff">
<path fill="#c18a8b" opacity="1.00" d=" M 32.66 60.00 C 35.13 58.86 34.14 63.81 32.14 63.50 C 30.68 62.80 31.77 60.73 32.66 60.00 Z" />
</g>
<g id="#cb9295ff">
<path fill="#cb9295" opacity="1.00" d=" M 33.65 63.30 C 34.63 61.09 36.55 60.07 38.89 60.59 C 39.53 60.64 40.82 60.74 41.46 60.79 C 41.14 61.31 40.49 62.36 40.17 62.88 C 38.00 63.07 35.83 63.22 33.65 63.30 Z" />
</g>
</svg>
