<?xml version="1.0" encoding="UTF-8" standalone="no"?>
<!DOCTYPE svg PUBLIC "-//W3C//DTD SVG 1.1//EN" "http://www.w3.org/Graphics/SVG/1.1/DTD/svg11.dtd">
<svg width="100%" height="100%" viewBox="0 0 416 416" version="1.1" xmlns="http://www.w3.org/2000/svg" xmlns:xlink="http://www.w3.org/1999/xlink" xml:space="preserve" xmlns:serif="http://www.serif.com/" style="fill-rule:evenodd;clip-rule:evenodd;stroke-linejoin:round;stroke-miterlimit:2;">
    <g transform="matrix(1,0,0,1,-1528.71,-388.128)">
        <circle cx="1736.22" cy="595.639" r="207.511" style="fill:rgb(211,231,227);"/>
        <g transform="matrix(0.977094,0,0,0.977094,1581.75,479.007)">
            <path d="M0.952,0C1.905,0 34.286,12.381 158.095,12.381C281.905,12.381 314.286,0 315.238,0L305.714,20C305.714,20 303.81,20 298.095,20.952L298.095,28.571C298.095,28.571 289.524,31.429 253.333,33.333L228.44,34.756L233.535,63.802L256.07,63.802L256.07,79.993L236.374,79.993L264.214,238.733L247.207,238.733L220.873,79.993L95.318,79.993L68.984,238.733L51.976,238.733L79.816,79.993L60.12,79.993L60.12,63.802L82.656,63.802L87.75,34.756L62.857,33.333C26.667,31.429 18.095,28.571 18.095,28.571L18.095,20.952C12.381,20 10.476,20 10.476,20L0.952,0ZM170.476,63.802L218.187,63.802L213.508,35.598C201.173,36.19 189.989,36.19 170.476,36.19L170.476,63.802ZM98.003,63.802L145.714,63.802L145.714,36.19C126.202,36.19 115.018,36.19 102.682,35.598L98.003,63.802Z" style="fill:rgb(53,216,255);"/>
        </g>
    </g>
</svg>
