<?xml version="1.0" encoding="UTF-8" standalone="no"?>
<!DOCTYPE svg PUBLIC "-//W3C//DTD SVG 1.1//EN" "http://www.w3.org/Graphics/SVG/1.1/DTD/svg11.dtd">
<svg width="100%" height="100%" viewBox="0 0 60 60" version="1.1" xmlns="http://www.w3.org/2000/svg" xmlns:xlink="http://www.w3.org/1999/xlink" xml:space="preserve" xmlns:serif="http://www.serif.com/" style="fill-rule:evenodd;clip-rule:evenodd;stroke-linejoin:round;stroke-miterlimit:2;">
    <g transform="matrix(1,0,0,1,-837.075,-40)">
        <g transform="matrix(1,0,0,1,787.075,0)">
            <g transform="matrix(0.0622431,0,0,0.0622431,-2.76619,21.509)">
                <path d="M1312.01,600.78c3.655,-2.11 8.157,-2.11 11.812,-0c3.654,2.11 5.905,6.009 5.905,10.228l0,90.834c0,4.22 -2.251,8.119 -5.905,10.229l-141.619,81.764c-3.654,2.109 -5.906,6.009 -5.906,10.228l0,445.165c0,4.219 -2.251,8.119 -5.905,10.228c-3.655,2.11 -8.157,2.11 -11.811,0l-78.665,-45.417c-3.654,-2.109 -5.905,-6.009 -5.905,-10.228l-0,-458.803c-0,-4.22 2.251,-8.119 5.905,-10.229l232.094,-133.999Z" style="fill:url(#_Linear1);"/>
            </g>
            <g transform="matrix(0.0622431,0,0,0.0622431,-2.76619,21.509)">
                <path d="M989.188,491.884c-3.602,2.08 -5.822,5.924 -5.822,10.084c0,4.161 2.22,8.005 5.822,10.085l78.998,45.609c3.602,2.08 8.041,2.08 11.644,0l244.072,-140.915c3.603,-2.08 8.042,-2.08 11.644,0l192.929,111.388c3.603,2.08 5.822,5.924 5.822,10.084l-0,222.774c-0,4.161 -2.219,8.005 -5.822,10.085l-192.929,111.387c-3.602,2.08 -5.822,5.925 -5.822,10.085l0,91.218c0,4.16 2.22,8.004 5.822,10.084c3.603,2.081 8.042,2.081 11.645,0l283.57,-163.719c3.603,-2.08 5.822,-5.924 5.822,-10.084l0,-340.885c0,-4.16 -2.219,-8.004 -5.822,-10.085l-295.215,-170.442c-3.602,-2.08 -8.041,-2.08 -11.644,0l-334.714,193.247Z" style="fill:url(#_Linear2);"/>
            </g>
            <g transform="matrix(6.21141,0,0,0.946931,-397.376,1.51916)">
                <rect x="72.025" y="40.637" width="9.66" height="63.363" style="fill:none;"/>
            </g>
        </g>
    </g>
    <defs>
        <linearGradient id="_Linear1" x1="0" y1="0" x2="1" y2="0" gradientUnits="userSpaceOnUse" gradientTransform="matrix(2.75453e-14,449.849,-449.849,2.75453e-14,1153,682.662)"><stop offset="0" style="stop-color:rgb(194,99,99);stop-opacity:1"/><stop offset="1" style="stop-color:rgb(223,140,143);stop-opacity:1"/></linearGradient>
        <linearGradient id="_Linear2" x1="0" y1="0" x2="1" y2="0" gradientUnits="userSpaceOnUse" gradientTransform="matrix(345.42,329.354,-329.354,345.42,1136.93,441.671)"><stop offset="0" style="stop-color:rgb(180,180,180);stop-opacity:1"/><stop offset="1" style="stop-color:rgb(211,211,211);stop-opacity:1"/></linearGradient>
    </defs>
</svg>
