<?xml version="1.0" encoding="UTF-8" standalone="no"?>
<!DOCTYPE svg PUBLIC "-//W3C//DTD SVG 1.1//EN" "http://www.w3.org/Graphics/SVG/1.1/DTD/svg11.dtd">
<svg width="100%" height="100%" viewBox="0 0 189 60" version="1.1" xmlns="http://www.w3.org/2000/svg" xmlns:xlink="http://www.w3.org/1999/xlink" xml:space="preserve" xmlns:serif="http://www.serif.com/" style="fill-rule:evenodd;clip-rule:evenodd;stroke-linejoin:round;stroke-miterlimit:2;">
    <g transform="matrix(1,0,0,1,-1652.92,-144)">
        <g transform="matrix(0.0622431,0,0,0.0622431,1600.16,125.509)">
            <path d="M1312.01,600.78c3.65,-2.11 8.15,-2.11 11.81,0c3.65,2.11 5.9,6.009 5.9,10.228l0,90.834c0,4.22 -2.25,8.119 -5.9,10.229l-141.62,81.764c-3.65,2.109 -5.91,6.009 -5.91,10.228l0,445.167c0,4.22 -2.25,8.12 -5.9,10.23c-3.66,2.11 -8.16,2.11 -11.81,0l-78.67,-45.42c-3.65,-2.11 -5.9,-6.01 -5.9,-10.23l0,-458.802c0,-4.22 2.25,-8.119 5.9,-10.229l232.1,-133.999Z" style="fill:rgb(91,35,35);"/>
        </g>
        <g transform="matrix(0.0622431,0,0,0.0622431,1600.16,125.509)">
            <path d="M989.188,491.884c-3.602,2.08 -5.822,5.924 -5.822,10.084c0,4.161 2.22,8.005 5.822,10.085l79.002,45.609c3.6,2.08 8.04,2.08 11.64,0l244.07,-140.915c3.61,-2.08 8.04,-2.08 11.65,-0l192.93,111.388c3.6,2.08 5.82,5.924 5.82,10.084l-0,222.774c-0,4.161 -2.22,8.005 -5.82,10.085l-192.93,111.387c-3.61,2.08 -5.83,5.925 -5.83,10.085l-0,91.218c-0,4.16 2.22,8.004 5.83,10.084c3.6,2.081 8.04,2.081 11.64,-0l283.57,-163.719c3.6,-2.08 5.82,-5.924 5.82,-10.084l-0,-340.885c-0,-4.16 -2.22,-8.004 -5.82,-10.085l-295.21,-170.442c-3.61,-2.08 -8.04,-2.08 -11.65,-0l-334.712,193.247Z" style="fill:rgb(80,80,80);"/>
        </g>
        <g transform="matrix(6.21141,0,0,0.946931,1205.55,105.519)">
            <rect x="72.025" y="40.637" width="9.66" height="63.363" style="fill:none;"/>
        </g>
        <g transform="matrix(0.780071,0,0,0.780071,1712.97,192.813)">
            <text x="0px" y="0px" style="font-family:'Questrial-Regular', 'Questrial';font-size:16.667px;fill:rgb(64,64,64);">A personal homepage</text>
        </g>
        <g transform="matrix(1,0,0,1,1711.73,177.213)">
            <text x="0px" y="0px" style="font-family:'Questrial-Regular', 'Questrial';font-size:33.333px;fill:rgb(80,80,80);">P<tspan x="20.733px 40.566px " y="0px 0px ">al</tspan>zs</text>
        </g>
        <g transform="matrix(1,0,0,1,1797.76,177.213)">
            <text x="0px" y="0px" style="font-family:'Questrial-Regular', 'Questrial';font-size:33.333px;fill:rgb(91,35,35);">HP</text>
        </g>
    </g>
</svg>
