<?xml version="1.0" encoding="UTF-8" standalone="no"?>
<!DOCTYPE svg PUBLIC "-//W3C//DTD SVG 1.1//EN" "http://www.w3.org/Graphics/SVG/1.1/DTD/svg11.dtd">
<svg width="100%" height="100%" viewBox="0 0 70 69" version="1.1" xmlns="http://www.w3.org/2000/svg" xmlns:xlink="http://www.w3.org/1999/xlink" xml:space="preserve" xmlns:serif="http://www.serif.com/" style="fill-rule:evenodd;clip-rule:evenodd;stroke-linecap:round;stroke-linejoin:round;stroke-miterlimit:1.5;">
    <g transform="matrix(1,0,0,1,-1226.26,-2596.34)">
        <g transform="matrix(1,0,0,1,-11.3763,8.54659)">
            <path d="M1287.03,2627.58l-0.001,0.002l1.846,1.846l0.002,-0.001l-1.847,-1.847Z"/>
        </g>
        <g transform="matrix(2.54545,0,0,2.54545,-1928.42,-4084.03)">
            <path d="M1240.16,2625.25l25.52,25.14l-25.52,0l0,-25.14Zm4.64,10.21l-0,10.21l9.74,0l-9.74,-10.21Z" style="fill:rgb(243,207,51);"/>
        </g>
        <g transform="matrix(2.54545,0,0,2.54545,-1928.42,-4084.03)">
            <path d="M1240.73,2624.67l25.52,25.14c0.24,0.23 0.31,0.59 0.18,0.89c-0.12,0.31 -0.42,0.51 -0.75,0.51l-25.52,0c-0.46,0 -0.82,-0.36 -0.82,-0.82l-0,-25.14c-0,-0.33 0.2,-0.63 0.5,-0.75c0.31,-0.13 0.66,-0.06 0.89,0.17Zm-0.57,0.58l-0,25.14l25.52,0l-25.52,-25.14Zm4.64,10.21l9.74,10.21l-9.74,0l-0,-10.21Zm0.82,2.04l-0,7.35l7.01,0l-7.01,-7.35Z"/>
        </g>
        <g transform="matrix(-1.07973,-1.09167,1.01183,-1.02467,-75.5862,6730.45)">
            <path d="M1240.14,2659.38l0.02,3.46" style="fill:none;stroke:black;stroke-width:1.39px;"/>
        </g>
        <g transform="matrix(-1.07947,-1.09194,1.02637,-1.03954,-122.27,6762.64)">
            <path d="M1240.14,2659.38l0.02,3.46" style="fill:none;stroke:black;stroke-width:1.38px;"/>
        </g>
        <g transform="matrix(-1.07923,-1.09218,1.0397,-1.05317,-165.064,6792.14)">
            <path d="M1240.14,2659.38l0.02,3.46" style="fill:none;stroke:black;stroke-width:1.37px;"/>
        </g>
        <g transform="matrix(-1.07897,-1.09245,1.05424,-1.06804,-211.748,6824.33)">
            <path d="M1240.14,2659.38l0.02,3.46" style="fill:none;stroke:black;stroke-width:1.36px;"/>
        </g>
        <g transform="matrix(-1.0787,-1.09273,1.06944,-1.08359,-260.852,6857.69)">
            <path d="M1240.14,2659.38l0.02,3.25" style="fill:none;stroke:black;stroke-width:1.35px;"/>
        </g>
        <g transform="matrix(-1.07854,-1.09289,1.07854,-1.09289,-292.903,6874.91)">
            <path d="M1240.14,2659.38l0.02,2.65" style="fill:none;stroke:black;stroke-width:1.35px;"/>
        </g>
        <g transform="matrix(0.45,-0.45,0.536364,0.536364,-712.951,1784.92)">
            <rect x="1263.78" y="2598.43" width="11.811" height="64.961" style="fill:rgb(43,190,197);"/>
        </g>
        <g transform="matrix(0.45,-0.45,0.0284242,0.0284242,633.096,3130.97)">
            <rect x="1263.78" y="2598.43" width="11.811" height="64.961" style="fill:rgb(218,223,225);"/>
        </g>
        <g transform="matrix(0.45,-0.45,0.0284242,0.0284242,633.096,3130.97)">
            <rect x="1263.78" y="2902.29" width="11.81" height="0.096"/>
        </g>
        <g transform="matrix(0.45,-0.45,0.0284242,0.0284242,633.096,3130.97)">
            <path d="M1260.51,2665.75c-0.002,-0.784 -0.003,-1.572 -0.003,-2.364l-0,-64.96c-0,-0.793 0.001,-1.581 0.003,-2.365l0,69.689Z"/>
        </g>
        <g transform="matrix(0.45,-0.45,0.0818182,0.0818182,497.679,2995.55)">
            <rect x="1263.78" y="2598.43" width="11.811" height="64.961" style="fill:rgb(73,93,133);"/>
        </g>
        <g transform="matrix(1,0,0,1,-11.081,8.25131)">
            <path d="M1270.87,2606.69l9.51,9.52" style="fill:none;stroke:black;stroke-width:2.08px;"/>
        </g>
        <g transform="matrix(0.46049,0,0,0.46049,681.799,1421.82)">
            <path d="M1282.09,2617.91l2.19,2.19" style="fill:none;stroke:black;stroke-width:4.52px;"/>
        </g>
        <g transform="matrix(1,0,0,1,-11.3763,8.54659)">
            <path d="M1294.2,2637.69l-34.84,-34.84c-0.221,-0.221 -0.382,-0.478 -0.483,-0.752c-0.034,-0.062 -0.061,-0.127 -0.082,-0.195l-3.1,-10.26c-0.114,-0.38 -0.003,-0.791 0.287,-1.062c0.289,-0.27 0.708,-0.352 1.078,-0.211l9.9,3.76c0.11,0.042 0.211,0.101 0.298,0.174c0.128,0.081 0.248,0.177 0.36,0.289l34.839,34.839l0.003,0.003c0.81,0.812 0.812,2.127 -0.002,2.941l-5.314,5.315c-0.814,0.814 -2.13,0.812 -2.942,0.001l-0.002,-0.002Zm-3.325,-16.897l-24.729,-24.729l-5.314,5.315l24.729,24.729l5.314,-5.315Zm-3.842,6.79l1.846,1.846l5.316,-5.316l-1.846,-1.846l-5.316,5.316Zm3.323,3.32l5.318,5.318l5.314,-5.315l-5.317,-5.317l-5.315,5.314Zm-26.334,-35.664l-5.724,-2.174l1.832,6.065l3.892,-3.891Z"/>
        </g>
        <g transform="matrix(1,0,0,1,1226.26,2596.34)">
            <path d="M26.384,7.443l-3.891,3.891l-1.832,-6.065l5.723,2.174Z" style="fill:rgb(243,207,51);"/>
        </g>
    </g>
</svg>
