<?xml version="1.0" encoding="UTF-8" standalone="no"?>
<!DOCTYPE svg PUBLIC "-//W3C//DTD SVG 1.1//EN" "http://www.w3.org/Graphics/SVG/1.1/DTD/svg11.dtd">
<svg width="100%" height="100%" viewBox="0 0 70 69" version="1.1" xmlns="http://www.w3.org/2000/svg" xmlns:xlink="http://www.w3.org/1999/xlink" xml:space="preserve" xmlns:serif="http://www.serif.com/" style="fill-rule:evenodd;clip-rule:evenodd;stroke-linecap:round;stroke-linejoin:round;stroke-miterlimit:1.5;">
    <g transform="matrix(1,0,0,1,-1226.26,-2596.34)">
        <g transform="matrix(1,0,0,1,-11.3763,8.54659)">
            <path d="M1259.79,2601.6L1256.69,2591.34L1266.59,2595.1L1259.79,2601.6Z" style="fill:rgb(255,212,166);stroke:black;stroke-width:2.08px;"/>
        </g>
        <g transform="matrix(2.54545,0,0,2.54545,-1928.42,-4084.03)">
            <path d="M1240.16,2625.25L1265.68,2650.39L1240.16,2650.39L1240.16,2625.25ZM1244.8,2635.46L1244.8,2645.67L1254.54,2645.67L1244.8,2635.46Z" style="fill:rgb(243,207,51);"/>
            <path d="M1240.73,2624.67L1266.25,2649.81C1266.49,2650.04 1266.56,2650.4 1266.43,2650.7C1266.31,2651.01 1266.01,2651.21 1265.68,2651.21L1240.16,2651.21C1239.7,2651.21 1239.34,2650.85 1239.34,2650.39L1239.34,2625.25C1239.34,2624.92 1239.54,2624.62 1239.84,2624.5C1240.15,2624.37 1240.5,2624.44 1240.73,2624.67ZM1240.16,2625.25L1240.16,2650.39L1265.68,2650.39L1240.16,2625.25ZM1244.8,2635.46L1254.54,2645.67L1244.8,2645.67L1244.8,2635.46ZM1245.62,2637.5C1245.62,2637.5 1245.62,2644.85 1245.62,2644.85L1252.63,2644.85L1245.62,2637.5Z"/>
        </g>
        <g transform="matrix(-1.07973,-1.09167,1.01183,-1.02467,-75.5862,6730.45)">
            <path d="M1240.14,2659.38L1240.16,2662.84" style="fill:none;stroke:black;stroke-width:1.39px;"/>
        </g>
        <g transform="matrix(-1.07947,-1.09194,1.02637,-1.03954,-122.27,6762.64)">
            <path d="M1240.14,2659.38L1240.16,2662.84" style="fill:none;stroke:black;stroke-width:1.38px;"/>
        </g>
        <g transform="matrix(-1.07923,-1.09218,1.0397,-1.05317,-165.064,6792.14)">
            <path d="M1240.14,2659.38L1240.16,2662.84" style="fill:none;stroke:black;stroke-width:1.37px;"/>
        </g>
        <g transform="matrix(-1.07897,-1.09245,1.05424,-1.06804,-211.748,6824.33)">
            <path d="M1240.14,2659.38L1240.16,2662.84" style="fill:none;stroke:black;stroke-width:1.36px;"/>
        </g>
        <g transform="matrix(-1.0787,-1.09273,1.06944,-1.08359,-260.852,6857.69)">
            <path d="M1240.14,2659.38L1240.16,2662.63" style="fill:none;stroke:black;stroke-width:1.35px;"/>
        </g>
        <g transform="matrix(-1.07854,-1.09289,1.07854,-1.09289,-292.903,6874.91)">
            <path d="M1240.14,2659.38L1240.16,2662.03" style="fill:none;stroke:black;stroke-width:1.35px;"/>
        </g>
        <g transform="matrix(0.45,-0.45,0.536364,0.536364,-712.951,1784.92)">
            <rect x="1263.78" y="2598.43" width="11.811" height="64.961" style="fill:rgb(43,190,197);"/>
        </g>
        <g transform="matrix(0.45,-0.45,0.536364,0.536364,-712.951,1784.92)">
            <path d="M1278.86,2598.43L1278.86,2663.39C1278.86,2664.9 1277.4,2666.13 1275.59,2666.13L1263.78,2666.13C1261.97,2666.13 1260.51,2664.9 1260.51,2663.39L1260.51,2598.43C1260.51,2596.91 1261.97,2595.68 1263.78,2595.68L1275.59,2595.68C1277.4,2595.68 1278.86,2596.91 1278.86,2598.43ZM1275.59,2598.43L1263.78,2598.43L1263.78,2663.39L1275.59,2663.39L1275.59,2598.43Z"/>
        </g>
        <g transform="matrix(0.45,-0.45,0.0284242,0.0284242,633.096,3130.97)">
            <rect x="1263.78" y="2598.43" width="11.811" height="64.961" style="fill:rgb(218,223,225);"/>
            <path d="M1278.86,2598.43L1278.86,2663.39C1278.86,2692.01 1277.4,2715.21 1275.59,2715.21L1263.78,2715.21C1261.97,2715.21 1260.51,2692.01 1260.51,2663.39L1260.51,2598.43C1260.51,2569.8 1261.97,2546.6 1263.78,2546.6L1275.59,2546.6C1277.4,2546.6 1278.86,2569.8 1278.86,2598.43ZM1275.59,2598.43L1263.78,2598.43L1263.78,2663.39L1275.59,2663.39L1275.59,2598.43Z"/>
        </g>
        <g transform="matrix(0.45,-0.45,0.0818182,0.0818182,497.679,2995.55)">
            <rect x="1263.78" y="2598.43" width="11.811" height="64.961" style="fill:rgb(73,93,133);"/>
            <path d="M1278.86,2598.43L1278.86,2663.39C1278.86,2673.33 1277.4,2681.39 1275.59,2681.39L1263.78,2681.39C1261.97,2681.39 1260.51,2673.33 1260.51,2663.39L1260.51,2598.43C1260.51,2588.48 1261.97,2580.42 1263.78,2580.42L1275.59,2580.42C1277.4,2580.42 1278.86,2588.48 1278.86,2598.43ZM1275.59,2598.43L1263.78,2598.43L1263.78,2663.39L1275.59,2663.39L1275.59,2598.43Z"/>
        </g>
        <g transform="matrix(1,0,0,1,-11.081,8.25131)">
            <path d="M1270.87,2606.69L1280.38,2616.21" style="fill:none;stroke:black;stroke-width:2.08px;"/>
        </g>
        <g transform="matrix(0.46049,0,0,0.46049,681.799,1421.82)">
            <path d="M1282.09,2617.91L1284.28,2620.1" style="fill:none;stroke:black;stroke-width:4.52px;"/>
        </g>
    </g>
</svg>
