<?xml version="1.0" encoding="UTF-8" standalone="no"?>
<!DOCTYPE svg PUBLIC "-//W3C//DTD SVG 1.1//EN" "http://www.w3.org/Graphics/SVG/1.1/DTD/svg11.dtd">
<svg width="100%" height="100%" viewBox="0 0 53 53" version="1.1" xmlns="http://www.w3.org/2000/svg" xmlns:xlink="http://www.w3.org/1999/xlink" xml:space="preserve" xmlns:serif="http://www.serif.com/" style="fill-rule:evenodd;clip-rule:evenodd;stroke-linejoin:round;stroke-miterlimit:2;">
    <g transform="matrix(1,0,0,1,-1139.73,-2604.41)">
        <g transform="matrix(6.12323e-17,-1,1,6.12323e-17,-1463.98,3796.17)">
            <circle cx="1165.75" cy="2629.72" r="24.213" style="fill:rgb(249,246,197);"/>
            <path d="M1165.75,2604.51c13.915,0 25.213,11.298 25.213,25.213c0,13.915 -11.298,25.213 -25.213,25.213c-13.915,0 -25.213,-11.298 -25.213,-25.213c0,-13.915 11.298,-25.213 25.213,-25.213Zm0,1c-13.364,0 -24.213,10.849 -24.213,24.213c0,13.364 10.849,24.213 24.213,24.213c13.364,0 24.213,-10.849 24.213,-24.213c0,-13.364 -10.849,-24.213 -24.213,-24.213Z" style="fill:rgb(248,177,0);"/>
        </g>
        <g transform="matrix(5.43344e-17,-0.887349,0.855688,5.23958e-17,-1087.96,3664.85)">
            <path d="M1165.76,2630.65l-0.01,0c-0.25,0.01 -0.47,-0.14 -0.56,-0.38c-0.43,-1.15 -4.82,-12.97 -6.33,-17.02c-0.19,-0.49 -0.16,-1.04 0.06,-1.51c0.23,-0.46 0.63,-0.81 1.12,-0.96c1.85,-0.54 3.77,-0.81 5.71,-0.81c1.93,0 3.85,0.27 5.71,0.81c0.48,0.15 0.89,0.5 1.11,0.97c0.22,0.46 0.25,1.01 0.07,1.49c-1.5,4.04 -5.86,15.75 -6.32,17.01c-0.09,0.24 -0.32,0.4 -0.56,0.4Zm-0.01,6.286l0.01,0c0.25,0 0.47,0.16 0.56,0.4c0.46,1.26 4.82,12.97 6.32,17.01c0.18,0.48 0.15,1.03 -0.07,1.49c-0.22,0.47 -0.63,0.82 -1.11,0.97c-1.86,0.54 -3.78,0.81 -5.71,0.81c-1.94,0 -3.86,-0.27 -5.71,-0.81l-0.01,0c-0.48,-0.15 -0.88,-0.5 -1.11,-0.96c-0.22,-0.47 -0.25,-1.02 -0.06,-1.51c1.51,-4.05 5.9,-15.87 6.33,-17.02c0.09,-0.24 0.31,-0.39 0.56,-0.38Zm3.03,-3.124l0,-0.011c-0.01,-0.259 0.135,-0.487 0.366,-0.581c1.109,-0.445 12.507,-4.998 16.413,-6.564c0.472,-0.197 1.003,-0.166 1.456,0.063c0.443,0.238 0.781,0.653 0.926,1.161c0.52,1.918 0.781,3.909 0.781,5.921c0,2.002 -0.261,3.993 -0.781,5.921c-0.145,0.498 -0.483,0.923 -0.936,1.152c-0.443,0.228 -0.974,0.259 -1.437,0.072c-3.895,-1.555 -15.188,-6.077 -16.403,-6.554c-0.231,-0.093 -0.385,-0.332 -0.385,-0.58Zm-6.397,0c0,0.248 -0.154,0.487 -0.385,0.58c-1.216,0.477 -12.508,4.999 -16.404,6.554c-0.462,0.187 -0.993,0.156 -1.436,-0.072c-0.454,-0.229 -0.791,-0.654 -0.936,-1.152c-0.521,-1.928 -0.781,-3.919 -0.781,-5.921c0,-2.012 0.26,-4.003 0.781,-5.921c0.145,-0.508 0.482,-0.923 0.926,-1.161c0.453,-0.229 0.984,-0.26 1.456,-0.063c3.906,1.566 15.304,6.119 16.413,6.564c0.231,0.094 0.376,0.322 0.366,0.581l0,0.011Zm5.52,-2.228l-0.008,-0.007c-0.183,-0.176 -0.236,-0.444 -0.136,-0.679c0.48,-1.129 5.435,-12.706 7.129,-16.677c0.2,-0.486 0.596,-0.853 1.072,-1.024c0.477,-0.156 0.998,-0.11 1.447,0.143c1.676,0.974 3.218,2.191 4.59,3.614c1.364,1.415 2.538,3.014 3.485,4.76c0.237,0.458 0.288,1.006 0.123,1.5c-0.158,0.486 -0.512,0.897 -0.966,1.104c-3.816,1.757 -14.883,6.84 -16.068,7.394c-0.227,0.104 -0.499,0.048 -0.668,-0.128Zm-4.292,4.436l0.007,0.008c0.177,0.183 0.223,0.457 0.123,0.693c-0.534,1.228 -5.436,12.706 -7.13,16.662c-0.2,0.472 -0.596,0.838 -1.065,1.002c-0.476,0.171 -1.005,0.118 -1.447,-0.128c-1.683,-0.982 -3.225,-2.199 -4.589,-3.614c-1.372,-1.422 -2.546,-3.021 -3.486,-4.76l-0.007,-0.007c-0.237,-0.458 -0.281,-0.999 -0.13,-1.493c0.165,-0.493 0.519,-0.904 0.987,-1.111c3.829,-1.757 14.993,-6.896 16.082,-7.394c0.227,-0.103 0.485,-0.048 0.655,0.142Zm4.271,0.008l0.007,-0.008c0.17,-0.19 0.428,-0.245 0.655,-0.142c1.088,0.498 12.252,5.637 16.082,7.394c0.468,0.207 0.822,0.618 0.987,1.111c0.151,0.494 0.107,1.035 -0.137,1.5c-0.94,1.739 -2.114,3.338 -3.486,4.76c-1.364,1.415 -2.906,2.632 -4.59,3.614c-0.441,0.246 -0.97,0.299 -1.446,0.128c-0.469,-0.164 -0.865,-0.53 -1.065,-1.002c-1.695,-3.956 -6.596,-15.434 -7.13,-16.662c-0.1,-0.236 -0.047,-0.517 0.123,-0.693Zm-4.282,-4.451l-0.007,0.007c-0.177,0.184 -0.442,0.232 -0.669,0.128c-1.184,-0.554 -12.252,-5.637 -16.068,-7.394c-0.454,-0.207 -0.808,-0.618 -0.966,-1.104c-0.165,-0.494 -0.114,-1.042 0.123,-1.5c0.947,-1.746 2.121,-3.345 3.486,-4.76c1.371,-1.423 2.913,-2.64 4.59,-3.614l0.007,-0.008c0.441,-0.245 0.963,-0.291 1.439,-0.135c0.476,0.171 0.872,0.538 1.072,1.024c1.694,3.971 6.65,15.548 7.13,16.677c0.1,0.235 0.046,0.503 -0.137,0.679Z" style="fill:rgb(243,207,51);"/>
        </g>
    </g>
</svg>
