<?xml version="1.0" standalone="no"?><!DOCTYPE svg PUBLIC "-//W3C//DTD SVG 1.1//EN" "http://www.w3.org/Graphics/SVG/1.1/DTD/svg11.dtd"><svg t="1705123904223" class="icon" viewBox="0 0 1024 1024" version="1.1" xmlns="http://www.w3.org/2000/svg" p-id="24546" xmlns:xlink="http://www.w3.org/1999/xlink" width="200" height="200"><path d="M256 384c-12.8 57.6-6.4 115.2 6.4 166.4 12.8 44.8-6.4 89.6-44.8 115.2-57.6 32-128-12.8-134.4-70.4-57.6-300.8 211.2-576 518.4-518.4C422.4 96 288 217.6 256 384z" fill="#FFDC04" p-id="24547"></path><path d="M531.2 800c51.2-19.2 102.4-51.2 140.8-89.6 32-32 83.2-38.4 121.6-12.8 57.6 32 57.6 115.2 6.4 153.6-230.4 198.4-601.6 102.4-704-192C192 800 371.2 851.2 531.2 800z" fill="#E03A22" p-id="24548"></path><path d="M755.2 352c-44.8-38.4-96-64-147.2-76.8-44.8-12.8-76.8-51.2-76.8-96 0-64 70.4-108.8 128-83.2 288 102.4 390.4 467.2 185.6 704 76.8-153.6 32-339.2-89.6-448z" fill="#27AA3A" p-id="24549"></path><path d="M633.6 492.8c0-12.8 0-25.6-6.4-32 0-6.4 0-6.4-6.4-12.8 0-64-38.4-115.2-108.8-115.2S403.2 384 403.2 448c0 6.4-6.4 6.4-6.4 12.8-6.4 12.8-6.4 19.2-6.4 25.6v6.4c-12.8 6.4-25.6 25.6-32 44.8-12.8 32-12.8 64-6.4 64 6.4 6.4 19.2-6.4 32-19.2 0 19.2 12.8 38.4 25.6 51.2-12.8 0-25.6 12.8-25.6 25.6 0 19.2 25.6 32 64 32 32 0 57.6-12.8 64-25.6h6.4c6.4 12.8 32 25.6 64 25.6s64-12.8 64-32c0-12.8-12.8-19.2-25.6-25.6 12.8-12.8 25.6-25.6 32-44.8 12.8 19.2 25.6 25.6 32 19.2 12.8-6.4 6.4-32-6.4-64-19.2-32-32-44.8-44.8-51.2z" fill="#038BC5" p-id="24550"></path></svg>