<?xml version="1.0" encoding="UTF-8" standalone="no"?>
<!DOCTYPE svg PUBLIC "-//W3C//DTD SVG 1.1//EN" "http://www.w3.org/Graphics/SVG/1.1/DTD/svg11.dtd">
<svg width="100%" height="100%" viewBox="0 0 200 200" version="1.1" xmlns="http://www.w3.org/2000/svg" xmlns:xlink="http://www.w3.org/1999/xlink" xml:space="preserve" xmlns:serif="http://www.serif.com/" style="fill-rule:evenodd;clip-rule:evenodd;stroke-linejoin:round;stroke-miterlimit:2;">
    <path d="M199.959,22.844c0.277,1.052 -0.212,155.29 -0.881,157.139c-3.507,9.998 -10.402,16.543 -20.506,19.73c-1.435,0.446 -156.396,0.34 -157.777,-0.117c-10.316,-3.336 -17.127,-10.2 -20.495,-20.474c-0.457,-1.402 -0.372,-157.011 0.117,-158.509c3.283,-10.051 10.083,-16.575 20.049,-19.9c1.509,-0.51 155.79,-0.925 156.969,-0.595c11.687,3.357 19.305,10.88 22.524,22.726Z" style="fill:rgb(150,185,126);"/>
    <path d="M100.534,127.869c-0,0.924 -0.33,1.997 -1.477,1.997c-2.688,-0.446 -1.243,-4.324 -1.668,-6.247c-0,-1.413 -0.34,-2.709 -2.125,-2.794c-3.347,0.138 -1.658,4.494 -2.125,6.64c0.202,3.453 -3.761,3.007 -2.88,-0.297c0.553,-2.263 -1.625,-9.626 1.753,-9.148c8.638,-1.721 8.925,2.04 8.553,9.849l-0.031,-0Zm-56.62,-59.594c2.019,0.51 13.653,-1.647 11.921,1.859c-2.528,3.549 -1.062,7.438 -1.296,11.156c0.053,4.803 -0.733,9.924 0.585,14.577c0.648,1.275 3.07,2.455 1.349,3.91c-5.472,4.006 -12.75,-2.794 -12.452,-8.903c0.064,-2.773 -0,-5.546 -0,-8.564c-0.68,-3.973 1.232,-8.499 -1.647,-12.473c-0.733,-1.031 0.542,-1.551 1.54,-1.562Zm148.151,26.615c-1.562,3.92 -5.153,5.047 -9.265,5.057c-1.115,-0.212 -2.804,0.638 -3.484,-0.85c-0.68,-1.487 1.179,-1.827 1.785,-2.762c1.604,-2.476 1.391,-8.617 -0.712,-10.848c-1.201,-1.275 -1.722,-1.976 -0.287,-3.517c2.698,-3.021 2.803,-7.601 0.244,-10.741c-5.588,-5.525 10.816,-3.071 11.316,1.54c3.994,7.214 -6.63,8.882 -2.476,12.335c3.612,2.646 4.303,6.11 2.815,9.86l0.064,-0.074Zm-83.967,-23.289c2.238,-2.701 5.679,-4.116 9.169,-3.772c0.085,1.711 -1.264,2.454 -2.252,3.623c-0.478,8.5 -1.286,18.147 0.701,26.296c2.656,1.339 0.5,4.101 -1.721,2.444c-4.091,0.297 -5.716,-2.731 -7.437,-5.546c-4.473,-7.129 -3.836,-17.319 1.54,-23.045Zm-96.727,28.049c-2.922,-1.721 0.978,-4.494 0.691,-7.214c-0.797,-6.375 0.244,-12.994 -0.393,-19.422c-2.242,-6.651 2.539,-4.378 7.15,-4.824c6.566,-0.807 2.656,10.348 3.676,14.343l-0.074,0c0.329,4.442 -0.765,9.563 0.574,13.759c3.474,3.889 0.552,3.762 -2.242,3.793c-3.082,-0.212 -6.938,0.946 -9.382,-0.435Zm122.322,29.972c-2.656,0.839 -5.769,1.434 -8.319,-0.871l-0.064,-0.786c-1.54,-0.33 -2.241,1.062 -3.347,1.647c-3.378,1.795 -6.714,0.817 -8.499,-2.71l-1.063,-0.138c-2.21,6.184 -12.122,3.931 -11.389,-2.465c-1.201,-6.322 8.117,-9.817 10.985,-3.665c0.468,0.254 0.925,0.701 1.488,0.18c2.316,-3.527 5.599,-4.25 8.903,-2.125c0.957,0.627 1.435,1.945 2.795,1.998c0.127,-2.338 0.244,-4.686 0.361,-7.023c2.943,-1.69 2.486,1.859 2.433,4.25c6.045,-0.797 8.096,0.595 8.277,5.641c0.138,2.401 -0,5.238 -2.561,6.067Zm-16.819,-8.808c-0.743,1.363 -1.062,2.917 -0.913,4.463c1.2,0.956 1.912,3.251 4.09,1.615c3.134,-2.062 0.627,-8.267 -3.177,-6.078Zm11.581,0.627l0,0.074c-1.381,7.438 5.174,7.151 4.548,1.923c-0.627,-2.571 -1.934,-3.824 -4.548,-1.997Zm-23.587,0.244c-3.399,6.896 8.224,8.213 4.07,-0.764c-1.551,-0.787 -3.071,-0.861 -4.07,0.764Zm46.005,-1.625c-0.414,2.38 -3.814,0.202 -5.525,0.637c-1.678,5.313 -1.583,5.483 3.825,6.29c0.638,0.096 1.424,0 1.498,0.882c-1.243,4.887 -8.499,2.125 -9.137,-2.571c-0.967,-4.356 2.327,-8.999 6.928,-7.735c1.349,0.244 2.624,0.977 2.348,2.571l0.063,-0.074Zm-14.874,-26.562c-1.599,-3.068 -2.413,-6.485 -2.37,-9.945c-0.892,-13.674 16.819,-20.335 12.24,-12.675c-2.422,6.375 -0.467,13.706 -1.062,20.421c-0,2.252 -0.053,4.505 1.434,6.438c0.489,0.638 0.882,1.445 0.255,2.125c-4.367,1.838 -8.787,-2.794 -10.497,-6.364Zm13.366,4.76c2.125,-2.89 1.413,-6.077 1.466,-9.19c0.085,-4.633 -0,-9.265 -0,-13.897c0.1,-1.323 -0.111,-2.652 -0.616,-3.878c-0.489,-0.989 -1.924,-1.977 -0.829,-3.188c1.254,-1.328 2.805,-0.319 4.037,0.276c10.795,5.026 11.794,22.429 2.21,29.994c-1.36,1.594 -8.043,3.697 -6.332,-0.043l0.064,-0.074Zm30.928,31.619c-3.039,-0 -1.063,-3.326 -1.36,-5.185c-0.297,-1.859 0.595,-4.25 -2.125,-4.303c-2.529,0 -2.125,2.359 -2.443,4.25c-0.319,1.891 1.062,4.908 -1.626,4.866c-3.188,0 0.882,-8.585 -2.922,-8.574c-5.1,-0.276 -0.393,8.5 -4.345,8.956c-2.54,-2.996 -4.59,0.128 -6.843,0.351c-6.619,1.477 -9.881,-6.662 -5.312,-11.113c5.238,-5.1 8.128,2.528 11.517,-0.925c3.188,-1.668 8.298,0.255 11.995,-0.669c3.676,-0.446 5.015,1.636 5.111,7.437c-0.425,1.573 0.807,5.004 -1.711,4.983l0.064,-0.074Zm-22.758,-9.456c-3.804,-0.255 -3.793,6.917 -0.255,6.981c3.804,0.233 3.74,-6.939 0.255,-6.981Zm-93.04,0.425c-1.159,2.879 -2.816,13.727 -6.662,6.811c-0.383,-0.914 0.106,-2.125 -0.797,-2.869c-2.242,0.956 -0.977,4.94 -3.581,4.664c-3.41,-0.489 -1.901,-4.962 -4.25,-6.779c-2.804,1.647 -1.583,6.471 -4.77,7.225c-1.232,0 -1.434,-1.381 -1.859,-2.337c-0.425,-0.956 -0.16,-2.412 -1.647,-2.274c-1.902,0.521 -0.956,4.324 -3.272,4.526c-1.679,0.064 -1.424,-1.593 -1.923,-2.582c-0.776,-1.264 -2.285,-5.694 -3.677,-2.422c-0.053,0.128 0,0.308 -0.117,0.372c-1.54,1.222 -0.531,4.537 -3.07,4.547c-2.539,0.011 -1.849,-3.187 -3.304,-4.568c-2.412,0.616 -0.999,4.611 -3.634,4.611c-2.178,-0.075 -2.221,-2.657 -2.858,-4.25c-0.297,-1.838 -2.869,-6.216 -0.914,-7.352c2.518,-0.149 2.295,3.548 3.506,5.673c3.549,-6.46 3.549,-6.46 7.374,-0.255c1.796,-1.965 0.999,-6.375 5.227,-5.811c0.999,0.127 1.063,0.148 3.188,4.919c2.316,-0.521 2.029,-8.957 5.652,-2.678c3.4,4.686 5.419,-8.574 9.233,1.498c0.27,0.46 0.572,0.9 0.903,1.318c2.337,-0.85 1.062,-4.718 3.644,-4.654c2.582,0.064 1.52,3.655 3.326,4.782c2.38,-0.744 0.977,-4.782 3.57,-4.718c1.477,0.319 1.03,1.626 0.743,2.603l-0.031,0Zm-39.779,-50.446c-2.03,-4.739 9.286,-1.264 10.624,0.818c3.825,5.228 1.18,10.211 -4.143,13.143c8.776,2.985 3.623,7.82 7.044,10.115c3.57,1.2 1.551,3.102 0.266,4.345c-2.189,2.125 -5.036,2.125 -7.831,1.307c-6.842,-2.316 -1.487,-10.625 -6.077,-14.779c-0.521,-0.468 -0.245,-1.254 0.17,-1.828c3.102,-4.313 2.784,-8.669 -0.053,-13.068l-0,-0.053Zm44.9,0.159c-4.612,5.472 -1.339,13.643 -2.221,20.262c0.298,3.867 -3.464,10.847 -7.873,8.903c-1.912,-3.368 6.513,-1.721 5.121,-14.47c-0.393,-4.102 1.063,-8.681 -0.68,-12.474c-0.743,-1.328 -3.4,-2.656 -1.54,-4.037c1.03,-1.371 9.976,-1.329 7.224,1.816l-0.031,0Zm4.611,27.189c4.993,-5.822 0.733,-12.686 2.826,-19.655c5.525,5.588 -1.562,14.874 4.622,19.953c2.539,2.996 -10.572,3.007 -7.448,-0.298Zm8.531,32.416c-6.619,0.882 -2.56,-10.03 -5.45,-10.157c-1.356,-0.097 -2.623,0.714 -3.103,1.987c-1.328,2.199 0.596,7.139 -2.199,7.83c-1.275,-0 -1.466,-0.988 -1.487,-1.912c0.616,-2.954 -1.86,-9.488 2.305,-10.02c7.438,-0.627 7.937,-0.244 8.033,7.576c2.125,3.719 4.324,2.72 4.696,-1.328c0.329,-1.626 -1.063,-4.643 1.179,-4.59c2.008,-0 1.923,3.187 2.061,5.312c0.33,4.409 -2.815,4.994 -6.003,5.302l-0.032,-0Zm83.489,-61.889c15.555,-0.828 9.562,0.819 10.699,15.884c-0.956,3.772 2.667,16.851 -3.187,15.937c-2.678,-0.478 -6.311,0.925 -8.585,-0.478c-1.678,-1.647 1.18,-2.529 1.243,-4.027c-0.499,-8.499 2.38,-17.456 -1.636,-25.648c-0.669,-1.105 0.436,-1.657 1.466,-1.668Zm-90.628,0c3.187,-0.138 6.375,0 9.562,0c4.611,2.125 5.578,10.03 10.624,14.514c-0.276,-4.803 1.531,-8.5 -1.657,-11.996c-1.594,-1.731 -0.669,-2.539 1.328,-2.645c1.945,0.255 4.749,-0.882 6.078,0.754c1.328,1.636 -1.679,2.285 -1.977,3.846c-0.154,0.643 -0.36,1.272 -0.616,1.881c0.924,2.858 -0.51,5.695 -0.138,8.648c0.414,1.328 -1.445,1.318 -1.328,0c-2.678,0 -1.466,1.636 -0.829,2.508c2.295,3.102 2.603,6.587 2.284,10.21c-0.116,1.445 0.648,3.549 -1.657,3.867c-2.305,0.319 -4.76,0.85 -6.29,-1.923c-5.578,-8.935 -9.626,-18.912 -16.394,-27.071c-1.423,-1.466 -0.775,-2.508 1.01,-2.593Zm45.133,16.203c0,-4.93 1.063,-9.955 -1.402,-14.875c-1.126,-2.21 1.371,-2.018 2.667,-1.615c12.686,3.836 12.813,23.608 3.41,30.621c-1.37,1.392 -7.437,3.325 -6.247,-0.202c2.826,-4.388 1.604,-9.265 1.572,-13.929Z" style="fill:white;"/>
</svg>
