<?xml version="1.0" encoding="UTF-8" standalone="no"?>
<!DOCTYPE svg PUBLIC "-//W3C//DTD SVG 1.1//EN" "http://www.w3.org/Graphics/SVG/1.1/DTD/svg11.dtd">
<svg width="100%" height="100%" viewBox="0 0 805 805" version="1.1" xmlns="http://www.w3.org/2000/svg" xmlns:xlink="http://www.w3.org/1999/xlink" xml:space="preserve" xmlns:serif="http://www.serif.com/" style="fill-rule:evenodd;clip-rule:evenodd;stroke-linejoin:round;stroke-miterlimit:2;">
    <g transform="matrix(1,0,0,1,-1026.1,-2035.6)">
        <g id="clipboard1.svg" transform="matrix(4.16667,0,0,4.16667,1428.19,2437.68)">
            <g transform="matrix(1,0,0,1,-96.5,-96.5)">
                <g id="_-bdbdbdbd" serif:id="#bdbdbdbd">
                </g>
                <g id="_-e5e5e5e5" serif:id="#e5e5e5e5">
                </g>
                <g id="_-42424243" serif:id="#42424243">
                </g>
                <g id="_-c5afb2ff" serif:id="#c5afb2ff">
                    <path d="M14.75,49.74C16,49.3 17.48,47.79 18.73,48.99C17.42,53.82 13.4,57.81 13.32,62.93C17.26,61.09 20.67,57.89 25.08,57.18C21.91,59.85 17.97,61.34 14.57,63.68C13.33,64.61 11.77,64.71 10.28,64.86C12,60.03 14.74,55.66 16.54,50.86C12.34,51.7 9.09,54.76 5,55.89C7.78,53.17 11.45,51.7 14.75,49.74Z" style="fill:rgb(197,175,178);fill-rule:nonzero;"/>
                    <path d="M21.75,69.43C25.32,68.85 28.94,68.84 32.54,68.99C30.98,72.77 26.95,74.62 25.14,78.26C28.51,78.33 31.79,77.32 35.16,77.29C31.07,79.99 25.68,79.61 20.97,79.85C23.94,76.55 27.66,73.95 30.19,70.26C27.37,70.11 24.44,70.49 21.75,69.43Z" style="fill:rgb(197,175,178);fill-rule:nonzero;"/>
                    <path d="M33.83,90.61C35.27,88.17 38.36,87.87 40.86,87.23C40.33,90.67 37.97,93.37 36.78,96.57C39.27,96.05 41.68,95.21 44.08,94.37C42.02,97.56 37.66,97.98 34.21,98.67C35.43,95.57 37.15,92.71 38.19,89.54C36.74,89.91 35.29,90.29 33.83,90.61Z" style="fill:rgb(197,175,178);fill-rule:nonzero;"/>
                    <path d="M21.4,135.55C15.69,131.13 19.61,121.26 26.07,119.91C27.89,119.89 29.11,121.45 30.5,122.39C30.4,124.3 30.32,126.2 30.23,128.1C29.87,128.26 29.14,128.59 28.77,128.75C28.63,126.45 28.37,124.16 28.02,121.89C23.56,121.51 20.39,125.94 20.46,130.05C20.7,132.74 23.13,135.41 25.99,135.14C29.9,135.06 32.48,131.73 35.08,129.28C34.98,129.97 34.79,131.35 34.7,132.05C31.78,135.94 25.75,139.21 21.4,135.55Z" style="fill:rgb(197,175,178);fill-rule:nonzero;"/>
                </g>
                <g id="_-e1caabff" serif:id="#e1caabff">
                    <path d="M53.05,67.95C57.18,62.59 62.88,58.03 69.71,56.87C69.65,57.96 69.59,59.05 69.54,60.14L68.02,59.71C64.32,58.65 61.36,61.74 59.35,64.43C57.63,66.96 54.99,68.58 52.92,70.77C51.28,73.74 51.35,77.48 52.44,80.63C53.66,83.98 56.91,85.91 59.93,87.42C59.75,88.62 59.56,89.82 59.37,91.01C54.8,95 50.71,99.57 47.69,104.84C45.08,106.58 43.84,109.12 44.67,112.23C44.19,111.15 43.66,110.08 43.14,109.02C46.66,101.27 52.29,94.78 58.59,89.15C56.31,87.52 53.78,86.04 52.2,83.66C48.99,79 49.65,72.34 53.05,67.95Z" style="fill:rgb(225,202,171);fill-rule:nonzero;"/>
                    <path d="M36.75,142.18C39.11,141.83 39.24,144.19 39.64,145.84C39.95,144.51 40.27,143.19 40.6,141.86C40.82,146.6 40.97,151.35 41.57,156.06C41.8,158.04 42.14,160.05 43.16,161.81L43.15,161.82C41.8,162.79 40.41,163.71 38.98,164.57C39.55,161.74 38.65,158.93 38.46,156.11C38.02,152.21 38.78,148.17 37.4,144.41C37.24,143.85 36.92,142.74 36.75,142.18Z" style="fill:rgb(225,202,171);fill-rule:nonzero;"/>
                </g>
                <g id="_-f7e6a6ff" serif:id="#f7e6a6ff">
                    <path d="M59.35,64.43C61.36,61.74 64.32,58.65 68.02,59.71C67.56,68.6 66.57,78.22 71.64,86.11C74.15,80.18 74.76,72.49 80.77,68.83C86,66.53 91.2,69.94 94.93,73.4C90.58,74.94 86.64,77.35 82.89,80C79.13,82.27 76.76,86.04 74.61,89.74C69.6,90.06 64.65,89.03 59.93,87.42C56.91,85.91 53.66,83.98 52.44,80.63C51.35,77.48 51.28,73.74 52.92,70.77C54.99,68.58 57.63,66.96 59.35,64.43Z" style="fill:rgb(247,230,166);fill-rule:nonzero;"/>
                </g>
                <g id="_-f0d5b8ff" serif:id="#f0d5b8ff">
                    <path d="M68.02,59.71L69.54,60.14C69.48,67.13 68.71,74.34 71.16,81.05C73.36,75.98 74.77,69.64 80.22,67.02C87.06,64.76 94.41,68.92 98.22,74.58C96.12,75.25 94.02,75.92 91.91,76.57C98.52,76.71 105.12,77.26 111.64,78.34C120.14,79.88 127.77,84.09 135.8,87.07C141.32,89.65 147.66,91.36 151.76,96.15C148.64,96.3 145.52,95.99 142.48,95.23C146.73,99.77 149.45,105.34 152.09,110.87C157.14,115.06 164.37,113.91 170.49,114.27C167.97,119.79 161.63,121.49 156.46,123.56C156.4,129 156.9,134.51 155.64,139.86C156.45,140.2 157.26,140.53 158.08,140.86C157.21,140.75 155.48,140.54 154.62,140.43C154.24,141.61 153.9,142.8 153.57,144C153.52,144.5 153.41,145.51 153.36,146.02C153.01,144.33 152.55,142.66 152.43,140.95C153.28,138.25 155.19,135.87 155.28,132.95C155.43,130.12 154.76,127.33 154.63,124.51C154.67,124.09 154.74,123.25 154.78,122.82L153.9,122.44C158.49,121.09 162.93,119.16 166.85,116.38C157.93,116.43 147.6,113.42 142.91,105.26C144.93,106.49 146.94,107.76 148.98,108.97C147.77,105.19 145.56,101.89 142.95,98.94C142.73,98.66 142.28,98.09 142.05,97.81C139.11,93.55 133.49,93.68 129.02,92.3C134.43,92.58 139.73,94.14 145.18,93.71C141.14,90.66 136.17,89.39 131.62,87.34C126.1,85.18 120.79,82.38 114.99,81.03C106.86,79.06 98.4,78.28 90.08,79.21C88.32,79.37 86.61,79.9 85.04,80.73C84.51,80.55 83.43,80.18 82.89,80C86.64,77.35 90.58,74.94 94.93,73.4C91.2,69.94 86,66.53 80.77,68.83C74.76,72.49 74.15,80.18 71.64,86.11C66.57,78.22 67.56,68.6 68.02,59.71Z" style="fill:rgb(240,213,184);fill-rule:nonzero;"/>
                </g>
                <g id="_-f8e5a5ff" serif:id="#f8e5a5ff">
                    <path d="M85.04,80.73C86.61,79.9 88.32,79.37 90.08,79.21C98.4,78.28 106.86,79.06 114.99,81.03C120.79,82.38 126.1,85.18 131.62,87.34C136.17,89.39 141.14,90.66 145.18,93.71C139.73,94.14 134.43,92.58 129.02,92.3C133.49,93.68 139.11,93.55 142.05,97.81C140.75,98.23 139.46,98.66 138.16,99.08C138.75,100.15 139.34,101.22 139.95,102.29C140.61,102.13 141.94,101.82 142.61,101.67C142.69,100.98 142.86,99.62 142.95,98.94C145.56,101.89 147.77,105.19 148.98,108.97C146.94,107.76 144.93,106.49 142.91,105.26C147.6,113.42 157.93,116.43 166.85,116.38C162.93,119.16 158.49,121.09 153.9,122.44C149.86,122.95 145.56,123.18 141.94,120.99C140.8,120.23 139.7,119.42 138.59,118.62C138.57,120.05 138.52,121.48 138.45,122.91C137.26,122.69 136.07,122.46 134.88,122.22C134.15,118.28 133.25,114.3 131.22,110.8C131.74,115.6 133.1,120.26 133.71,125.06C129.38,126.18 125.08,127.44 120.75,128.56C119.55,131.16 116.24,134.04 113.72,131.19C112.81,126.66 109.34,123.27 108.01,118.93C106.98,112.38 103.75,106.43 100.17,100.94C102.45,107.82 105.58,114.4 107.96,121.25C109,124.61 110.08,127.98 111.63,131.15C107.53,131.87 103.25,131.62 99.35,133.24C96.8,134.35 94,133.88 91.32,133.75C89.77,131.38 88.15,129.05 86.66,126.65C86.48,120.41 86.98,114.08 85.51,107.96C85.36,117.93 85.38,127.94 84.17,137.86C81.58,136.76 78.85,135.68 75.96,135.94C71.95,135.76 68.64,138.57 64.69,138.76C61.8,131.47 62.69,123.54 61.53,115.95C61.08,118.92 60.83,121.92 60.78,124.92C60.8,131.21 58.73,137.22 57.17,143.24C55.72,136.83 57.53,130.4 57.56,123.97C57.65,120.62 57.74,117.28 57.73,113.93C56.07,120.89 56.26,128.1 55.12,135.15C52.8,137.61 48.98,137.61 46.35,135.64C43.89,133.95 44.22,130.58 43.99,127.97L44.29,127.23C46.84,122.7 48.47,117.73 50.16,112.84C46.88,114.62 45.59,118.27 43.63,121.22C43.46,120.43 43.13,118.86 42.96,118.08C43.89,116.27 45.41,114.39 44.67,112.23C46.36,111.97 48.05,111.72 49.74,111.46C49.83,109.05 49.5,106.63 47.69,104.84C50.71,99.57 54.8,95 59.37,91.01C63.23,91.46 67.11,91.82 70.98,92.12C69.87,94.13 68.78,96.16 67.86,98.26C71.33,95.94 73.62,92.29 77.09,89.99C77.44,90.06 78.14,90.2 78.49,90.26C80.46,93.47 81.28,97.32 83.81,100.19C83.92,95.24 80.58,91.35 78.27,87.27C80.75,85.33 82.98,83.1 85.04,80.73M110.77,88.8C113.09,92.35 116.32,95.49 120.28,97.14C118.8,92.98 114.62,90.49 110.77,88.8M122.34,110.32C120.8,111.25 121.34,113.17 121.15,114.66C122.52,115.05 123.96,116.2 125.39,115.3C125.98,113.29 124.79,110.09 122.34,110.32Z" style="fill:rgb(248,229,165);fill-rule:nonzero;"/>
                </g>
                <g id="_-e4cc91ff" serif:id="#e4cc91ff">
                    <path d="M74.61,89.74C76.76,86.04 79.13,82.27 82.89,80C83.43,80.18 84.51,80.55 85.04,80.73C82.98,83.1 80.75,85.33 78.27,87.27C80.58,91.35 83.92,95.24 83.81,100.19C81.28,97.32 80.46,93.47 78.49,90.26C78.14,90.2 77.44,90.06 77.09,89.99C73.62,92.29 71.33,95.94 67.86,98.26C68.78,96.16 69.87,94.13 70.98,92.12C67.11,91.82 63.23,91.46 59.37,91.01C59.56,89.82 59.75,88.62 59.93,87.42C64.65,89.03 69.6,90.06 74.61,89.74Z" style="fill:rgb(228,204,145);fill-rule:nonzero;"/>
                </g>
                <g id="_-e4d191ff" serif:id="#e4d191ff">
                    <path d="M110.77,88.8C114.62,90.49 118.8,92.98 120.28,97.14C116.32,95.49 113.09,92.35 110.77,88.8Z" style="fill:rgb(228,209,145);fill-rule:nonzero;"/>
                </g>
                <g id="_-fff2d5ff" serif:id="#fff2d5ff">
                    <path d="M138.16,99.08C139.46,98.66 140.75,98.23 142.05,97.81C142.28,98.09 142.73,98.66 142.95,98.94C142.86,99.62 142.69,100.98 142.61,101.67C141.94,101.82 140.61,102.13 139.95,102.29C139.34,101.22 138.75,100.15 138.16,99.08Z" style="fill:rgb(255,242,213);fill-rule:nonzero;"/>
                </g>
                <g id="_-d9b77eff" serif:id="#d9b77eff">
                    <path d="M100.17,100.94C103.75,106.43 106.98,112.38 108.01,118.93C109.34,123.27 112.81,126.66 113.72,131.19C116.85,141.48 120.31,151.67 122.38,162.24C125.73,159.47 127.65,155.47 130.21,152.04C130.24,152.73 130.3,154.11 130.33,154.8C127.67,158.47 125.61,162.88 121.54,165.24C120.55,161.94 120.1,158.46 118.67,155.3C116.24,153.46 113.16,152.76 110.34,151.73C110.1,151.32 109.63,150.5 109.39,150.09L110.05,149.63C112.59,150.97 115.23,152.09 117.95,153.01C116.62,145.54 114.43,138.2 111.63,131.15C110.08,127.98 109,124.61 107.96,121.25C105.58,114.4 102.45,107.82 100.17,100.94Z" style="fill:rgb(217,183,126);fill-rule:nonzero;"/>
                    <path d="M131.22,110.8C133.25,114.3 134.15,118.28 134.88,122.22C137.2,131.72 136.75,141.55 136.55,151.23C134.06,149.93 133.33,147.2 132.74,144.68C133.28,144.6 134.37,144.45 134.92,144.37C135.02,137.91 134.51,131.46 133.71,125.06C133.1,120.26 131.74,115.6 131.22,110.8Z" style="fill:rgb(217,183,126);fill-rule:nonzero;"/>
                </g>
                <g id="_-fdfcf1ff" serif:id="#fdfcf1ff">
                    <path d="M44.67,112.23C43.84,109.12 45.08,106.58 47.69,104.84C49.5,106.63 49.83,109.05 49.74,111.46C48.05,111.72 46.36,111.97 44.67,112.23Z" style="fill:rgb(253,252,241);fill-rule:nonzero;"/>
                </g>
                <g id="_-daac87ff" serif:id="#daac87ff">
                    <path d="M84.17,137.86C85.38,127.94 85.36,117.93 85.51,107.96C86.98,114.08 86.48,120.41 86.66,126.65C86.27,130.84 87.06,135.11 89.49,138.61C88.39,138.59 87.29,138.57 86.19,138.54C85.98,140.49 85.79,142.45 85.69,144.41C85.38,149.71 84.5,155.01 82.69,160.01C74.19,157.13 68.16,149.94 64.17,142.2C63.29,140.08 62.44,137.95 61.41,135.9C59.38,141.2 58.44,146.81 57.69,152.41C57.33,152.11 56.61,151.52 56.26,151.23C56.02,151.73 55.54,152.75 55.3,153.26C54.39,147.26 54.53,141.17 55.12,135.15C56.26,128.1 56.07,120.89 57.73,113.93C57.74,117.28 57.65,120.62 57.56,123.97C57.53,130.4 55.72,136.83 57.17,143.24C58.73,137.22 60.8,131.21 60.78,124.92C60.83,121.92 61.08,118.92 61.53,115.95C62.69,123.54 61.8,131.47 64.69,138.76C65.77,140.63 66.91,142.48 67.66,144.52C70.03,151.03 75.82,155.65 82,158.37C82.87,151.55 83.7,144.72 84.17,137.86Z" style="fill:rgb(218,172,135);fill-rule:nonzero;"/>
                </g>
                <g id="_-e1c9a1ff" serif:id="#e1c9a1ff">
                    <path d="M43.14,109.02C43.66,110.08 44.19,111.15 44.67,112.23C45.41,114.39 43.89,116.27 42.96,118.08C38.65,125.44 36.68,133.78 34,141.79C33.52,143.45 33.3,145.16 33.04,146.86C34.32,145.33 35.57,143.78 36.75,142.18C36.92,142.74 37.24,143.85 37.4,144.41C35.63,147.25 33.44,149.84 30.57,151.61C30.67,144.87 32.83,138.45 34.7,132.05C34.79,131.35 34.98,129.97 35.08,129.28C39.19,123.1 39.31,115.33 43.14,109.02Z" style="fill:rgb(225,201,161);fill-rule:nonzero;"/>
                </g>
                <g id="_-fffce8ff" serif:id="#fffce8ff">
                    <path d="M122.34,110.32C124.79,110.09 125.98,113.29 125.39,115.3C123.96,116.2 122.52,115.05 121.15,114.66C121.34,113.17 120.8,111.25 122.34,110.32Z" style="fill:rgb(255,252,232);fill-rule:nonzero;"/>
                </g>
                <g id="_-f1d29cff" serif:id="#f1d29cff">
                    <path d="M43.63,121.22C45.59,118.27 46.88,114.62 50.16,112.84C48.47,117.73 46.84,122.7 44.29,127.23C44.13,126.59 43.82,125.31 43.67,124.67C39.81,129.88 40.73,137.06 36.75,142.18C35.57,143.78 34.32,145.33 33.04,146.86C33.3,145.16 33.52,143.45 34,141.79C36.68,133.78 38.65,125.44 42.96,118.08C43.13,118.86 43.46,120.43 43.63,121.22Z" style="fill:rgb(241,210,156);fill-rule:nonzero;"/>
                </g>
                <g id="_-f2d79eff" serif:id="#f2d79eff">
                    <path d="M138.45,122.91C138.52,121.48 138.57,120.05 138.59,118.62C139.7,119.42 140.8,120.23 141.94,120.99C141.39,121.08 140.3,121.27 139.75,121.36C143.89,124.9 149.56,124.33 154.63,124.51C154.76,127.33 155.43,130.12 155.28,132.95C155.19,135.87 153.28,138.25 152.43,140.95C152.55,142.66 153.01,144.33 153.36,146.02C153.41,145.51 153.52,144.5 153.57,144C157.23,152.71 167.14,154.73 173.94,160.13C171.19,161.26 168.37,160.06 165.7,159.33C162.2,158.24 158.59,157.4 155.26,155.82C152.61,154.54 150.82,152.13 148.75,150.13C150.2,155.43 155.62,158.27 160.55,159.62C165.93,160.99 171.19,162.86 176.7,163.65C179.5,164.7 182.23,166.17 184.03,168.65C185.14,169.98 186.71,170.73 188.23,171.51C188.22,172.21 188.22,173.61 188.22,174.31C186.31,174.37 184.4,174.42 182.5,174.52C175.49,174.09 168.53,177.58 161.6,175.5C159.37,175.09 159.42,172.81 159.19,171.04C155.25,168.24 150.38,169.2 145.96,169.91C146.3,168.31 146.64,166.71 146.96,165.11C143.95,164.28 140.82,161.24 137.65,162.77C134.41,158.54 132.89,153.35 132.39,148.11C131.7,149.44 131,150.76 130.21,152.04C127.65,155.47 125.73,159.47 122.38,162.24C120.31,151.67 116.85,141.48 113.72,131.19C116.24,134.04 119.55,131.16 120.75,128.56C125.08,127.44 129.38,126.18 133.71,125.06C134.51,131.46 135.02,137.91 134.92,144.37C134.37,144.45 133.28,144.6 132.74,144.68C133.33,147.2 134.06,149.93 136.55,151.23C136.75,141.55 137.2,131.72 134.88,122.22C136.07,122.46 137.26,122.69 138.45,122.91Z" style="fill:rgb(242,215,158);fill-rule:nonzero;"/>
                </g>
                <g id="_-d7ba80ff" serif:id="#d7ba80ff">
                    <path d="M139.75,121.36C140.3,121.27 141.39,121.08 141.94,120.99C145.56,123.18 149.86,122.95 153.9,122.44L154.78,122.82C154.74,123.25 154.67,124.09 154.63,124.51C149.56,124.33 143.89,124.9 139.75,121.36Z" style="fill:rgb(215,186,128);fill-rule:nonzero;"/>
                </g>
                <g id="_-e3c08fff" serif:id="#e3c08fff">
                    <path d="M36.75,142.18C40.73,137.06 39.81,129.88 43.67,124.67C43.82,125.31 44.13,126.59 44.29,127.23L43.99,127.97C41.42,132.62 42.56,137.97 42.57,143C42.56,147.72 43.55,152.35 44.18,157C43.53,156.77 42.23,156.29 41.57,156.06C40.97,151.35 40.82,146.6 40.6,141.86C40.27,143.19 39.95,144.51 39.64,145.84C39.24,144.19 39.11,141.83 36.75,142.18Z" style="fill:rgb(227,192,143);fill-rule:nonzero;"/>
                </g>
                <g id="_-f2dc9fff" serif:id="#f2dc9fff">
                    <path d="M86.66,126.65C88.15,129.05 89.77,131.38 91.32,133.75C94,133.88 96.8,134.35 99.35,133.24C103.25,131.62 107.53,131.87 111.63,131.15C114.43,138.2 116.62,145.54 117.95,153.01C115.23,152.09 112.59,150.97 110.05,149.63C106.37,147.47 102.73,145.25 98.95,143.28C97.81,142.56 96.81,141.67 95.95,140.63C98.65,140.71 101.35,140.96 104.05,141.14C100.93,140.42 97.72,140.29 94.53,140.31C95.13,141.74 95.75,143.16 96.37,144.59C92.93,144.74 91.55,140.75 89.49,138.61C87.06,135.11 86.27,130.84 86.66,126.65Z" style="fill:rgb(242,220,159);fill-rule:nonzero;"/>
                </g>
                <g id="_-f2dda0ff" serif:id="#f2dda0ff">
                    <path d="M42.57,143C42.56,137.97 41.42,132.62 43.99,127.97C44.22,130.58 43.89,133.95 46.35,135.64C48.98,137.61 52.8,137.61 55.12,135.15C54.53,141.17 54.39,147.26 55.3,153.26C55.24,158.68 54.92,164.25 56.83,169.44C55.62,169.7 54.3,169.95 53.21,169.17C49.42,166.77 46.86,162.92 44.4,159.26C44.35,158.7 44.24,157.57 44.18,157C43.55,152.35 42.56,147.72 42.57,143Z" style="fill:rgb(242,221,160);fill-rule:nonzero;"/>
                </g>
                <g id="_-eac0b1ff" serif:id="#eac0b1ff">
                    <path d="M61.41,135.9C62.44,137.95 63.29,140.08 64.17,142.2C61.09,144.96 59.83,148.99 57.69,152.41C58.44,146.81 59.38,141.2 61.41,135.9Z" style="fill:rgb(234,192,177);fill-rule:nonzero;"/>
                </g>
                <g id="_-f1de9dff" serif:id="#f1de9dff">
                    <path d="M64.69,138.76C68.64,138.57 71.95,135.76 75.96,135.94C78.85,135.68 81.58,136.76 84.17,137.86C83.7,144.72 82.87,151.55 82,158.37C75.82,155.65 70.03,151.03 67.66,144.52C66.91,142.48 65.77,140.63 64.69,138.76Z" style="fill:rgb(241,222,157);fill-rule:nonzero;"/>
                </g>
                <g id="_-dec5a9ff" serif:id="#dec5a9ff">
                    <path d="M86.19,138.54C87.29,138.57 88.39,138.59 89.49,138.61C91.55,140.75 92.93,144.74 96.37,144.59C97.24,144.17 98.09,143.72 98.95,143.28C102.73,145.25 106.37,147.47 110.05,149.63L109.39,150.09C109.63,150.5 110.1,151.32 110.34,151.73C110.43,153.5 110.5,155.28 110.56,157.05C109.99,157.23 108.85,157.57 108.28,157.74C108.35,155.46 108.4,153.17 108.46,150.89C105.04,148.97 101.6,147.09 98.15,145.23C97.81,146.68 97.5,148.14 97.2,149.6C94.17,146.86 91.32,143.92 88.33,141.13C87.45,142.22 86.57,143.32 85.69,144.41C85.79,142.45 85.98,140.49 86.19,138.54Z" style="fill:rgb(222,197,169);fill-rule:nonzero;"/>
                </g>
                <g id="_-9d5e51ff" serif:id="#9d5e51ff">
                    <path d="M94.53,140.31C97.72,140.29 100.93,140.42 104.05,141.14C101.35,140.96 98.65,140.71 95.95,140.63C96.81,141.67 97.81,142.56 98.95,143.28C98.09,143.72 97.24,144.17 96.37,144.59C95.75,143.16 95.13,141.74 94.53,140.31Z" style="fill:rgb(157,94,81);fill-rule:nonzero;"/>
                    <path d="M56.26,151.23C56.61,151.52 57.33,152.11 57.69,152.41C56.8,156.03 58.25,159.56 59.2,163C58.42,165.28 58.06,168.1 60.63,169.37C70.12,174.69 81.54,173.91 92.02,173.18C93,173.07 94.95,172.86 95.93,172.75C95.4,173.1 94.36,173.8 93.83,174.15C84.5,174.6 74.92,175.38 65.85,172.55C63.98,173.65 62.19,174.91 60.23,175.87C58.97,175.78 57.72,175.67 56.46,175.55C56.64,174.78 56.81,174 56.99,173.24C57.41,174.7 58.31,175.78 59.99,175.71C61.66,175.04 62.26,173.33 63.01,171.87C61.07,170.44 59.08,169.07 57.02,167.82C56.96,169.21 56.9,170.59 56.84,171.98C56.55,171.85 55.98,171.57 55.69,171.43C53.54,170.53 51.86,168.89 50.18,167.35C49.47,167.35 48.05,167.36 47.34,167.36C47.27,164.77 45.38,162.74 44.47,160.41L44.4,159.26C46.86,162.92 49.42,166.77 53.21,169.17C54.3,169.95 55.62,169.7 56.83,169.44C54.92,164.25 55.24,158.68 55.3,153.26C55.54,152.75 56.02,151.73 56.26,151.23Z" style="fill:rgb(157,94,81);fill-rule:nonzero;"/>
                    <path d="M108.28,157.74C108.85,157.57 109.99,157.23 110.56,157.05C110.94,156.97 111.71,156.79 112.1,156.71C111.61,157.28 110.63,158.44 110.14,159.02C111.62,165.1 116.11,170.5 122.21,172.31C120.73,172.69 119.28,173.18 117.84,173.67C116.05,171.9 114.35,170.05 112.42,168.43C111.21,168.25 109.99,168.11 108.77,168C110.21,167.45 111.63,166.83 113.06,166.24C112.41,165.16 111.74,164.1 111.14,162.99C110.87,162.07 110.32,160.23 110.04,159.31C103.68,159.74 96.96,163.38 90.71,160.6C96.63,160.13 102.7,160 108.28,157.74Z" style="fill:rgb(157,94,81);fill-rule:nonzero;"/>
                </g>
                <g id="_-fefbedff" serif:id="#fefbedff">
                    <path d="M88.33,141.13C91.32,143.92 94.17,146.86 97.2,149.6C97.5,148.14 97.81,146.68 98.15,145.23C101.6,147.09 105.04,148.97 108.46,150.89C108.4,153.17 108.35,155.46 108.28,157.74C102.7,160 96.63,160.13 90.71,160.6C96.96,163.38 103.68,159.74 110.04,159.31C110.32,160.23 110.87,162.07 111.14,162.99C108.72,164.17 106.02,164.2 103.43,164.69C98.99,166.51 95.47,169.94 92.02,173.18C81.54,173.91 70.12,174.69 60.63,169.37C58.06,168.1 58.42,165.28 59.2,163C58.25,159.56 56.8,156.03 57.69,152.41C59.83,148.99 61.09,144.96 64.17,142.2C68.16,149.94 74.19,157.13 82.69,160.01C84.5,155.01 85.38,149.71 85.69,144.41C86.57,143.32 87.45,142.22 88.33,141.13M60.01,158.14C61.08,161.22 65.12,161.36 67.82,162.18C70.05,162.21 73.36,163.61 74.61,161.04C69.54,161.2 64.68,160.03 60.01,158.14Z" style="fill:rgb(254,251,237);fill-rule:nonzero;"/>
                </g>
                <g id="_-342b29ff" serif:id="#342b29ff">
                    <path d="M153.57,144C153.9,142.8 154.24,141.61 154.62,140.43C155.48,140.54 157.21,140.75 158.08,140.86C162.86,142.25 166.97,145.02 170.86,148.04C177.53,150.43 184.59,154.83 185.52,162.54C185.73,164.72 185.23,166.83 184.03,168.65C182.23,166.17 179.5,164.7 176.7,163.65C175.82,162.44 174.94,161.24 173.94,160.13C167.14,154.73 157.23,152.71 153.57,144Z" style="fill:rgb(52,43,41);fill-rule:nonzero;"/>
                </g>
                <g id="_-a35044ff" serif:id="#a35044ff">
                    <path d="M130.21,152.04C131,150.76 131.7,149.44 132.39,148.11C132.89,153.35 134.41,158.54 137.65,162.77C137.61,164.69 137.59,166.62 137.63,168.55C135.86,165.9 133.26,164.01 131.14,161.67C130.13,159.57 130.57,157.07 130.33,154.8C130.3,154.11 130.24,152.73 130.21,152.04Z" style="fill:rgb(163,80,68);fill-rule:nonzero;"/>
                </g>
                <g id="_-d8b884ff" serif:id="#d8b884ff">
                    <path d="M148.75,150.13C150.82,152.13 152.61,154.54 155.26,155.82C158.59,157.4 162.2,158.24 165.7,159.33C168.37,160.06 171.19,161.26 173.94,160.13C174.94,161.24 175.82,162.44 176.7,163.65C171.19,162.86 165.93,160.99 160.55,159.62C155.62,158.27 150.2,155.43 148.75,150.13Z" style="fill:rgb(216,184,132);fill-rule:nonzero;"/>
                </g>
                <g id="_-f2d69eff" serif:id="#f2d69eff">
                    <path d="M110.34,151.73C113.16,152.76 116.24,153.46 118.67,155.3C120.1,158.46 120.55,161.94 121.54,165.24C125.61,162.88 127.67,158.47 130.33,154.8C130.57,157.07 130.13,159.57 131.14,161.67C133.26,164.01 135.86,165.9 137.63,168.55C137.72,169.74 137.81,170.92 137.91,172.1C132.88,174.3 127.42,172.91 122.21,172.31C116.11,170.5 111.62,165.1 110.14,159.02C110.63,158.44 111.61,157.28 112.1,156.71C111.71,156.79 110.94,156.97 110.56,157.05C110.5,155.28 110.43,153.5 110.34,151.73Z" style="fill:rgb(242,214,158);fill-rule:nonzero;"/>
                </g>
                <g id="_-f1dbccff" serif:id="#f1dbccff">
                    <path d="M41.57,156.06C42.23,156.29 43.53,156.77 44.18,157C44.24,157.57 44.35,158.7 44.4,159.26L44.47,160.41L43.16,161.81C42.14,160.05 41.8,158.04 41.57,156.06Z" style="fill:rgb(241,219,204);fill-rule:nonzero;"/>
                </g>
                <g id="_-936d6aff" serif:id="#936d6aff">
                    <path d="M60.01,158.14C64.68,160.03 69.54,161.2 74.61,161.04C73.36,163.61 70.05,162.21 67.82,162.18C65.12,161.36 61.08,161.22 60.01,158.14Z" style="fill:rgb(147,109,106);fill-rule:nonzero;"/>
                </g>
                <g id="_-f1d89eff" serif:id="#f1d89eff">
                    <path d="M43.16,161.81L44.47,160.41C45.38,162.74 47.27,164.77 47.34,167.36C45.37,168.71 43.86,170.56 42.22,172.27C39.13,173.19 35.82,172.7 32.63,172.75C32.38,171.73 32.13,170.71 31.89,169.7C32.75,169.26 33.63,168.86 34.51,168.46C37.06,169.05 39.83,169.26 42.31,168.24C44.18,166.53 43.47,163.98 43.15,161.82L43.16,161.81Z" style="fill:rgb(241,216,158);fill-rule:nonzero;"/>
                </g>
                <g id="_-e8be9dff" serif:id="#e8be9dff">
                    <path d="M38.98,164.57C40.41,163.71 41.8,162.79 43.15,161.82C43.47,163.98 44.18,166.53 42.31,168.24C39.83,169.26 37.06,169.05 34.51,168.46C34.42,168.15 34.25,167.54 34.16,167.23C35.76,166.33 37.41,165.52 38.98,164.57Z" style="fill:rgb(232,190,157);fill-rule:nonzero;"/>
                </g>
                <g id="_-ccaca7ff" serif:id="#ccaca7ff">
                    <path d="M137.65,162.77C140.82,161.24 143.95,164.28 146.96,165.11C146.64,166.71 146.3,168.31 145.96,169.91C150.38,169.2 155.25,168.24 159.19,171.04C159.42,172.81 159.37,175.09 161.6,175.5C168.53,177.58 175.49,174.09 182.5,174.52C173.48,178.27 163.47,177.32 153.97,176.67C149.36,176.55 144.41,178.37 140.08,176.01C138.55,175.22 137.07,173.86 135.22,174.39C133.82,175.08 132.43,175.79 131.03,176.49C127.44,173.29 122.28,174.04 117.84,173.67C119.28,173.18 120.73,172.69 122.21,172.31C127.42,172.91 132.88,174.3 137.91,172.1C137.81,170.92 137.72,169.74 137.63,168.55C137.59,166.62 137.61,164.69 137.65,162.77M138.77,163.13C138.7,164.82 138.63,166.51 138.56,168.2C139.65,168.98 140.74,169.76 141.82,170.56C143.14,169.15 144.78,167.78 144.93,165.71C142.85,164.9 140.8,164.04 138.77,163.13M141.03,173.35C141.14,174.54 141.44,175.99 142.98,175.89C148.18,176.51 153.32,174.67 158.55,175.15C157.98,172.67 155.37,172.25 153.33,171.59C153.89,171.12 154.45,170.64 155.02,170.17C150.15,169.99 145.44,171.41 141.03,173.35Z" style="fill:rgb(204,172,167);fill-rule:nonzero;"/>
                </g>
                <g id="_-f3d7cbff" serif:id="#f3d7cbff">
                    <path d="M111.14,162.99C111.74,164.1 112.41,165.16 113.06,166.24C111.63,166.83 110.21,167.45 108.77,168C104.71,168.15 99.89,167.66 97.02,171.17C95.97,171.91 96.59,173.18 96.74,174.16C99.26,174.39 101.6,175.37 104.06,175.86C106.93,176.16 109.83,175.82 112.71,175.68C112.62,173.26 112.53,170.85 112.42,168.43C114.35,170.05 116.05,171.9 117.84,173.67C117.43,177.11 113.68,177.44 110.98,178.05C109.91,175.99 107.4,176.72 106.1,178.09C101.65,178.47 97.08,177.33 93.83,174.15C94.36,173.8 95.4,173.1 95.93,172.75C94.95,172.86 93,173.07 92.02,173.18C95.47,169.94 98.99,166.51 103.43,164.69C106.02,164.2 108.72,164.17 111.14,162.99Z" style="fill:rgb(243,215,203);fill-rule:nonzero;"/>
                </g>
                <g id="_-fefcf9ff" serif:id="#fefcf9ff">
                    <path d="M138.77,163.13C140.8,164.04 142.85,164.9 144.93,165.71C144.78,167.78 143.14,169.15 141.82,170.56C140.74,169.76 139.65,168.98 138.56,168.2C138.63,166.51 138.7,164.82 138.77,163.13Z" style="fill:rgb(254,252,249);fill-rule:nonzero;"/>
                </g>
                <g id="_-dbd2d9ff" serif:id="#dbd2d9ff">
                    <path d="M185.52,162.54C187.88,162.64 190.1,163.4 191.96,164.87C191.94,166.26 191.93,167.65 191.94,169.04C190.69,169.85 189.45,170.67 188.23,171.51C186.71,170.73 185.14,169.98 184.03,168.65C185.23,166.83 185.73,164.72 185.52,162.54Z" style="fill:rgb(219,210,217);fill-rule:nonzero;"/>
                </g>
                <g id="_-d9c9adff" serif:id="#d9c9adff">
                    <path d="M42.22,172.27C43.86,170.56 45.37,168.71 47.34,167.36C46.49,169.25 45.66,171.14 44.86,173.04C44.35,173.3 43.33,173.82 42.82,174.08C37.19,174.45 31.53,174.32 25.93,173.6C27.85,172.21 29.8,170.83 31.89,169.7C32.13,170.71 32.38,171.73 32.63,172.75C35.82,172.7 39.13,173.19 42.22,172.27Z" style="fill:rgb(217,201,173);fill-rule:nonzero;"/>
                </g>
                <g id="_-fdf8eaff" serif:id="#fdf8eaff">
                    <path d="M47.34,167.36C48.05,167.36 49.47,167.35 50.18,167.35C51.86,168.89 53.54,170.53 55.69,171.43C55.41,172.28 54.85,173.98 54.57,174.83C51.2,175.18 47.89,174.52 44.86,173.04C45.66,171.14 46.49,169.25 47.34,167.36Z" style="fill:rgb(253,248,234);fill-rule:nonzero;"/>
                </g>
                <g id="_-f2d0c0ff" serif:id="#f2d0c0ff">
                    <path d="M57.02,167.82C59.08,169.07 61.07,170.44 63.01,171.87C62.26,173.33 61.66,175.04 59.99,175.71C58.31,175.78 57.41,174.7 56.99,173.24C56.81,174 56.64,174.78 56.46,175.55C57.72,175.67 58.97,175.78 60.23,175.87C54.57,178.6 48.19,176.45 42.82,174.08C43.33,173.82 44.35,173.3 44.86,173.04C47.89,174.52 51.2,175.18 54.57,174.83C54.85,173.98 55.41,172.28 55.69,171.43C55.98,171.57 56.55,171.85 56.84,171.98C56.9,170.59 56.96,169.21 57.02,167.82Z" style="fill:rgb(242,208,192);fill-rule:nonzero;"/>
                </g>
                <g id="_-fdfae8ff" serif:id="#fdfae8ff">
                    <path d="M97.02,171.17C99.89,167.66 104.71,168.15 108.77,168C109.99,168.11 111.21,168.25 112.42,168.43C112.53,170.85 112.62,173.26 112.71,175.68C109.83,175.82 106.93,176.16 104.06,175.86C101.6,175.37 99.26,174.39 96.74,174.16C96.59,173.18 95.97,171.91 97.02,171.17Z" style="fill:rgb(253,250,232);fill-rule:nonzero;"/>
                </g>
                <g id="_-f3d19fff" serif:id="#f3d19fff">
                    <path d="M141.03,173.35C145.44,171.41 150.15,169.99 155.02,170.17C154.45,170.64 153.89,171.12 153.33,171.59C155.37,172.25 157.98,172.67 158.55,175.15C153.32,174.67 148.18,176.51 142.98,175.89C141.44,175.99 141.14,174.54 141.03,173.35Z" style="fill:rgb(243,209,159);fill-rule:nonzero;"/>
                </g>
                <g id="_-dcd4dbff" serif:id="#dcd4dbff">
                    <path d="M135.22,174.39C137.07,173.86 138.55,175.22 140.08,176.01C139.25,177.93 138.43,179.86 137.61,181.8C133.96,179.73 129.62,180.11 125.83,178.49C126.36,178.18 127.41,177.54 127.93,177.23C130.52,177.52 133.12,177.63 135.73,177.67C135.56,176.58 135.39,175.48 135.22,174.39Z" style="fill:rgb(220,212,219);fill-rule:nonzero;"/>
                </g>
                <g id="_-c8b0acff" serif:id="#c8b0acff">
                    <path d="M106.1,178.09C107.4,176.72 109.91,175.99 110.98,178.05C109.38,178.5 107.72,178.25 106.1,178.09Z" style="fill:rgb(200,176,172);fill-rule:nonzero;"/>
                </g>
            </g>
        </g>
    </g>
</svg>
