<?xml version="1.0" encoding="UTF-8" standalone="no"?>
<!DOCTYPE svg PUBLIC "-//W3C//DTD SVG 1.1//EN" "http://www.w3.org/Graphics/SVG/1.1/DTD/svg11.dtd">
<svg width="100%" height="100%" viewBox="0 0 102 111" version="1.1" xmlns="http://www.w3.org/2000/svg" xmlns:xlink="http://www.w3.org/1999/xlink" xml:space="preserve" xmlns:serif="http://www.serif.com/" style="fill-rule:evenodd;clip-rule:evenodd;stroke-linejoin:round;stroke-miterlimit:2;">
    <g transform="matrix(1.01402,0,0,1.01402,-715.388,-2467.23)">
        <g>
            <path d="M749.811,2503.33c0.878,2.15 2.118,4.16 3.693,5.93c-0.621,0.48 -1.281,0.93 -1.98,1.33c-8.351,4.82 -19.046,1.96 -23.867,-6.4c-4.821,-8.35 -1.956,-19.04 6.395,-23.86c0.699,-0.41 1.414,-0.76 2.141,-1.05c0.753,2.27 1.887,4.36 3.327,6.21c0.229,-1.42 0.643,-2.79 1.217,-4.07c-0.56,-0.97 -1.03,-2.01 -1.395,-3.09c1.156,-0.24 2.323,-0.35 3.483,-0.34c0.908,-1.15 1.967,-2.17 3.147,-3.04c-2.425,-0.38 -4.926,-0.33 -7.381,0.17c-0.106,-0.77 -0.161,-1.57 -0.161,-2.38c-0,-9.64 7.829,-17.47 17.472,-17.47c9.642,0 17.471,7.83 17.471,17.47c0,0.81 -0.055,1.61 -0.161,2.38c-2.61,-0.53 -5.272,-0.55 -7.84,-0.09c1.142,0.85 2.169,1.85 3.052,2.97c1.343,-0.05 2.698,0.06 4.037,0.33c-0.434,1.29 -1.016,2.51 -1.723,3.64c0.526,1.3 0.89,2.68 1.067,4.11c1.668,-1.98 2.971,-4.29 3.805,-6.8c0.727,0.29 1.442,0.64 2.141,1.05c8.351,4.82 11.217,15.51 6.395,23.86c-4.821,8.36 -15.516,11.22 -23.867,6.4c-0.698,-0.4 -1.359,-0.85 -1.98,-1.33c1.642,-1.85 2.92,-3.95 3.803,-6.2c-1.322,0.57 -2.735,0.98 -4.21,1.18c-0.567,0.98 -1.232,1.91 -1.99,2.77c-0.74,-0.84 -1.39,-1.74 -1.948,-2.69c-1.445,-0.15 -2.835,-0.49 -4.143,-0.99Zm-4.423,-11.47l0.003,0.01l1.923,-0.73c-0.367,-0.97 -0.567,-2.02 -0.567,-3.12c-0,-0.03 -0,-0.07 0.001,-0.1l-1.124,-0.01l0,-0.01l-2.314,-0.02c-0.001,0.04 -0.001,0.09 -0.001,0.13c-0,1.53 0.279,2.99 0.787,4.34l1.292,-0.49Zm4.869,5.68l0.002,0l1.01,-1.79c-0.961,-0.54 -1.811,-1.26 -2.507,-2.1l-0.863,0.71l-0.005,-0.01l-1.789,1.47c0.965,1.17 2.144,2.17 3.475,2.92l0.677,-1.2Zm-4.945,-13.15l-0.002,0l1.938,0.69c0.369,-1.05 0.929,-2.01 1.639,-2.84l-0.857,-0.73l0.004,-0.01l-1.756,-1.51c-0.985,1.15 -1.762,2.48 -2.274,3.94l1.308,0.46Zm15.672,13.15l0.677,1.2c1.331,-0.75 2.51,-1.75 3.475,-2.92l-1.789,-1.47l-0.005,0.01l-0.863,-0.71c-0.696,0.84 -1.546,1.56 -2.507,2.1l1.01,1.79l0.002,0Zm4.869,-5.68l1.292,0.49c0.508,-1.35 0.787,-2.81 0.787,-4.34c-0,-0.04 -0,-0.09 -0.001,-0.13l-2.314,0.02l-0,0.01l-1.124,0.01c0.001,0.03 0.001,0.07 0.001,0.1c-0,1.1 -0.2,2.15 -0.567,3.12l1.923,0.73l0.003,-0.01Zm0.076,-7.47l1.308,-0.46c-0.512,-1.46 -1.289,-2.79 -2.274,-3.94l-1.756,1.51l0.004,0.01l-0.857,0.73c0.71,0.83 1.27,1.79 1.639,2.84l1.938,-0.69l-0.002,0Zm-4.746,-5.78l0.71,-1.19c-1.29,-0.77 -2.731,-1.31 -4.268,-1.56l-0.225,1.38l-0.15,0.91l-0.183,1.11c1.106,0.19 2.144,0.57 3.072,1.12l1.049,-1.76l-0.005,-0.01Zm-11.125,0l-0.005,0.01l1.049,1.76c0.928,-0.55 1.966,-0.93 3.072,-1.12l-0.183,-1.11l-0.15,-0.91l-0.225,-1.38c-1.537,0.25 -2.978,0.79 -4.268,1.56l0.71,1.19Zm7.404,19.23l-0.204,-1.1c-0.531,0.1 -1.078,0.15 -1.638,0.15c-0.559,0 -1.106,-0.05 -1.637,-0.15l-0.204,1.1l-0.003,0l-0.425,2.27c0.736,0.14 1.494,0.21 2.269,0.21c0.776,0 1.534,-0.07 2.27,-0.21l-0.425,-2.27l-0.003,0Zm-51.962,-19.3l-0,-6.63c-0,-8.32 4.44,-16.01 11.648,-20.17l3.53,-2.04c-2.753,4.22 -4.427,9.38 -5.18,14.82c-0.14,0.24 -0.276,0.49 -0.406,0.73c-4.314,3.71 -7.758,8.19 -9.592,13.29Zm33.66,-39.51l4.813,-2.78c7.207,-4.16 16.088,-4.16 23.295,0l4.813,2.78c-3.157,-0.21 -6.375,0.11 -9.553,0.88c-2.132,-0.61 -4.364,-0.94 -6.687,-0.94c-2.296,0 -4.524,0.37 -6.667,1.05c-3.328,-0.84 -6.704,-1.22 -10.014,-0.99Zm51.403,10.67l3.53,2.04c7.208,4.16 11.648,11.85 11.648,20.17l-0,6.63c-1.688,-4.69 -4.739,-8.86 -8.578,-12.39c-0.264,-0.56 -0.554,-1.11 -0.868,-1.65c-0.232,-0.4 -0.477,-0.8 -0.733,-1.18c-0.823,-4.99 -2.448,-9.71 -4.999,-13.62Zm15.178,44.92l-0,8.27c-0,8.32 -4.44,16.01 -11.648,20.17l-3.863,2.23c1.833,-2.68 3.199,-5.71 4.148,-8.93c1.356,-1.35 2.54,-2.87 3.517,-4.56c1.661,-2.87 2.644,-5.93 3.062,-9.07c2.055,-2.51 3.7,-5.23 4.784,-8.11Zm-33.683,41.16l-4.79,2.77c-7.207,4.16 -16.088,4.16 -23.295,0l-4.79,-2.77c3.996,0.25 8.167,-0.39 12.266,-1.69c1.432,0.31 2.898,0.47 4.395,0.47c1.446,0 2.856,-0.13 4.228,-0.38c4.009,1.24 8.081,1.85 11.986,1.6Zm-51.047,-10.49l-3.863,-2.23c-7.208,-4.16 -11.648,-11.85 -11.648,-20.17l-0,-8.27c1.086,2.89 2.735,5.61 4.795,8.13c0.486,2.76 1.425,5.44 2.896,7.99c0.93,1.61 2.049,3.06 3.325,4.36c0.951,3.69 2.425,7.16 4.495,10.19Zm16.112,-73.21c5.038,-5.95 11.462,-10.12 18.718,-10.12c7.835,0 14.47,4.21 19.517,10.21c-4.354,-0.65 -8.91,-0.67 -13.299,-0.17c-0.61,0.07 -1.172,0.23 -1.675,0.47c-1.444,-0.32 -2.944,-0.48 -4.482,-0.48c-1.539,0 -3.039,0.16 -4.482,0.48c-0.504,-0.24 -1.066,-0.4 -1.676,-0.47c-4.162,-0.48 -8.473,-0.48 -12.621,0.08Zm-15.072,44.37l-3.964,-6.94c-3.409,-7.76 -4.285,-16.3 -0.088,-23.57c4.038,-7 12.195,-10.38 20.961,-11.21l6.639,-0.01c-6.245,3.58 -10.456,10.32 -10.456,18.02c-0,1.13 0.089,2.24 0.262,3.31c-1.019,0.39 -2.021,0.87 -2.997,1.43c-6.956,4.02 -10.709,11.46 -10.357,18.97Zm10.873,23.75c-7.267,-1.5 -13.67,-4.94 -17.143,-10.96c-3.737,-6.47 -3.606,-13.91 -1.266,-20.98c1.646,4.51 4.12,8.83 7.061,12.63c0.457,0.6 0.993,1.06 1.6,1.38c0.423,1.22 0.967,2.41 1.634,3.57c0.77,1.33 1.665,2.55 2.662,3.64c0.042,0.55 0.189,1.12 0.432,1.68c1.362,3.15 3.052,6.22 5.02,9.04Zm59.615,-6.21l-10.87,6.38c-0.939,0.29 -1.901,0.54 -2.879,0.76c2.234,-3.09 4.097,-6.51 5.539,-10.02c0.284,-0.69 0.42,-1.39 0.393,-2.07c0.842,-0.98 1.604,-2.05 2.271,-3.2c0.667,-1.16 1.211,-2.35 1.635,-3.57c0.606,-0.32 1.142,-0.78 1.6,-1.38c2.613,-3.38 4.859,-7.17 6.482,-11.14c2.204,6.95 2.256,14.22 -1.405,20.56c-0.782,1.35 -1.711,2.58 -2.766,3.68Zm0.192,-49.7l0.001,0.01c0.035,0.23 1.215,2.54 2.172,3.83c0.565,1.32 0.982,2.67 1.263,4.04l0.455,4.29c0.092,6.92 -2.75,14.11 -6.881,20.2c0.432,-7.58 -3.326,-15.13 -10.346,-19.18c-0.975,-0.56 -1.978,-1.04 -2.997,-1.43c0.173,-1.07 0.263,-2.18 0.263,-3.31c-0,-7.72 -4.226,-14.46 -10.489,-18.04l6.344,0c8.17,0.72 15.851,3.63 20.215,9.59Zm-27.229,68.19c3.933,-1.75 7.448,-4.49 10.461,-7.84c5.095,-0.74 9.933,-2.3 13.97,-4.8c-1.996,4.3 -5.015,7.96 -9.274,10.42c-4.549,2.62 -9.814,3.13 -15.157,2.22Zm-55.593,-35.41c-1.811,-3.16 -2.87,-6.61 -2.87,-10.26c-0,-5.7 2.233,-10.77 5.763,-15.05c-0.751,3.86 -0.563,7.88 0.332,11.84c-1.894,4.36 -3.076,8.94 -3.225,13.47Zm57.806,-55.04c4.715,-0.42 9.393,0.37 13.65,2.82c5.133,2.97 8.393,8.06 10.172,14.01c-3.249,-2.73 -7.306,-4.62 -11.732,-5.78c-3.293,-4.6 -7.373,-8.52 -12.09,-11.05Zm-48.202,17.5c1.732,-6.23 5.04,-11.6 10.363,-14.68c4.52,-2.61 9.513,-3.33 14.522,-2.73c-4.442,2.5 -8.396,6.31 -11.67,10.77c-5.062,1.23 -9.68,3.39 -13.215,6.64Zm26.914,72.83c-5.578,1.08 -11.101,0.63 -15.845,-2.1c-4.693,-2.71 -7.88,-6.88 -9.853,-11.75c4.234,2.73 9.394,4.39 14.829,5.13c3.144,3.72 6.816,6.79 10.869,8.72Zm33.994,-19.56c-4.905,10.11 -13.492,18.89 -24.577,18.89c-10.178,0 -18.652,-8.54 -23.774,-18.45c6.262,3.76 14.328,4.1 21.097,0.2c0.976,-0.57 1.888,-1.2 2.735,-1.89c0.846,0.69 1.759,1.32 2.734,1.89c7.02,4.05 15.435,3.53 21.785,-0.64Zm20.722,-15.41c-0.231,-4.01 -1.26,-8.06 -2.863,-11.95l-0.021,-0.21c1.15,-4.17 1.543,-8.45 0.901,-12.56c3.11,4.08 5.042,8.84 5.042,14.14c-0,3.78 -1.133,7.33 -3.059,10.58Z" style="fill:url(#_Linear1);"/>
        </g>
    </g>
    <defs>
        <linearGradient id="_Linear1" x1="0" y1="0" x2="1" y2="0" gradientUnits="userSpaceOnUse" gradientTransform="matrix(7.84545e-15,128.126,-128.126,7.84545e-15,755.62,2422.86)"><stop offset="0" style="stop-color:rgb(255,181,30);stop-opacity:1"/><stop offset="0.58" style="stop-color:rgb(255,165,173);stop-opacity:1"/><stop offset="1" style="stop-color:rgb(255,158,238);stop-opacity:1"/></linearGradient>
    </defs>
</svg>
