<?xml version="1.0" encoding="UTF-8" standalone="no"?>
<!DOCTYPE svg PUBLIC "-//W3C//DTD SVG 1.1//EN" "http://www.w3.org/Graphics/SVG/1.1/DTD/svg11.dtd">
<svg width="100%" height="100%" viewBox="0 0 32 32" version="1.1" xmlns="http://www.w3.org/2000/svg" xmlns:xlink="http://www.w3.org/1999/xlink" xml:space="preserve" xmlns:serif="http://www.serif.com/" style="fill-rule:evenodd;clip-rule:evenodd;stroke-linejoin:round;stroke-miterlimit:2;">
    <g transform="matrix(1,0,0,1,-4652.58,-1029.23)">
        <g transform="matrix(1,0,0,1,2785.07,0)">
            <g transform="matrix(0.228055,0,0,0.228055,1860.36,1022.14)">
                <path d="M100,79.846C110.916,79.846 119.899,88.829 119.899,99.745C119.899,110.661 110.916,119.644 100,119.644C89.084,119.644 80.101,110.661 80.101,99.745C80.113,88.833 89.088,79.858 100,79.846M100,68.342C82.773,68.342 68.597,82.518 68.597,99.745C68.597,116.972 82.773,131.148 100,131.148C117.227,131.148 131.403,116.972 131.403,99.745C131.403,82.518 117.227,68.342 100,68.342Z" style="fill:rgb(91,35,35);fill-rule:nonzero;"/>
            </g>
        </g>
        <g transform="matrix(1,0,0,1,2785.07,0)">
            <g transform="matrix(0.228055,0,0,0.228055,1860.36,1022.14)">
                <path d="M90.41,99.745C90.41,105.006 94.739,109.335 100,109.335C105.261,109.335 109.59,105.006 109.59,99.745C109.59,94.484 105.261,90.155 100,90.155C94.739,90.155 90.41,94.484 90.41,99.745Z" style="fill:rgb(91,35,35);fill-rule:nonzero;"/>
            </g>
        </g>
        <g transform="matrix(1,0,0,1,2785.07,0)">
            <g transform="matrix(0.228055,0,0,0.228055,1860.36,1022.14)">
                <path d="M100,31.086L109.59,59.295L90.41,59.295L100,31.086ZM58.3,58.677L76.93,63.743L63.365,77.307L58.3,58.677ZM58.932,141.445L63.998,122.815L77.562,136.378L58.932,141.445ZM141.698,140.811L123.07,135.745L136.633,122.183L141.698,140.811ZM141.066,58.045L136,76.675L122.438,63.11L141.066,58.045ZM31.341,99.745L59.55,90.155L59.55,109.335L31.341,99.745ZM100,168.402L90.41,140.193L109.59,140.193L100,168.402ZM168.657,99.745L140.448,109.335L140.448,90.155L168.657,99.745Z" style="fill:rgb(91,35,35);fill-rule:nonzero;"/>
            </g>
        </g>
    </g>
</svg>
