<?xml version="1.0" encoding="UTF-8" standalone="no"?>
<!DOCTYPE svg PUBLIC "-//W3C//DTD SVG 1.1//EN" "http://www.w3.org/Graphics/SVG/1.1/DTD/svg11.dtd">
<svg width="100%" height="100%" viewBox="0 0 23 23" version="1.1" xmlns="http://www.w3.org/2000/svg" xmlns:xlink="http://www.w3.org/1999/xlink" xml:space="preserve" xmlns:serif="http://www.serif.com/" style="fill-rule:evenodd;clip-rule:evenodd;stroke-linejoin:round;stroke-miterlimit:2;">
    <g transform="matrix(1,0,0,1,-2658.8,-1033.44)">
        <g transform="matrix(1,0,0,1,787.075,0)">
            <g transform="matrix(-0.129188,0,0,0.129188,1895.92,1031.8)">
                <path d="M83.634,23.408C84.653,21.389 84.4,18.961 82.987,17.195C81.573,15.429 79.26,14.651 77.066,15.203C62.823,19.078 49.364,26.612 38.184,37.793C3.945,72.031 3.945,127.559 38.184,161.816C72.422,196.074 127.949,196.055 162.207,161.816C173.386,150.638 180.92,137.181 184.801,122.942C185.348,120.748 184.567,118.436 182.802,117.023C181.037,115.61 178.61,115.354 176.589,116.369C167.467,120.762 157.242,123.223 146.446,123.223C107.997,123.223 76.78,92.007 76.78,53.557C76.78,42.76 79.242,32.533 83.634,23.408Z" style="fill:rgb(221,221,221);"/>
            </g>
        </g>
    </g>
</svg>
