<?xml version="1.0" standalone="no"?><!DOCTYPE svg PUBLIC "-//W3C//DTD SVG 1.1//EN" "http://www.w3.org/Graphics/SVG/1.1/DTD/svg11.dtd"><svg t="1705123203936" class="icon" viewBox="0 0 1317 1024" version="1.1" xmlns="http://www.w3.org/2000/svg" p-id="3518" xmlns:xlink="http://www.w3.org/1999/xlink" width="257.2265625" height="200"><path d="M853.728 936.576l-168.576-397.152q-14.272 28-90.56 174.56t-113.44 222.56q-0.576 0.576-15.712 0.288t-15.136-0.864q-46.848-110.272-146.016-335.424t-148.288-340.576q-12-28.576-38.016-61.44t-59.136-57.44-58.272-24.576q0-2.848-0.288-13.728t-0.288-15.424l333.152 0 0 28.576q-22.272 1.152-45.44 9.152t-38.016 24.576-5.728 36.576q14.848 33.728 123.712 285.152t134.56 308.576q17.728-34.848 80-152.288t74.848-141.44q-10.848-22.272-72-160.576t-77.728-168.576q-21.728-39.424-114.848-40.576l0-28.576 293.152 0.576 0 26.848q-34.272 1.152-53.44 14.272t-7.136 39.424q18.848 40 49.728 108.288t49.152 107.136q62.848-122.272 98.848-207.424 13.728-31.424-5.728-45.44t-73.728-15.136q0.576-4 0.576-14.272l0-13.728q36.576 0 97.44-0.288t102.848-0.576 52.864-0.288l0 28q-35.424 1.152-68 18.848t-51.424 46.272l-121.728 252.576q7.424 18.848 72.864 165.728t69.44 156.576l252-581.152q-8-21.728-28.288-35.712t-37.152-18.016-31.712-4.576l0-28.576 262.848 2.272 0.576 1.152-0.576 25.152q-79.424 2.272-114.848 82.848-300.576 694.848-319.424 737.728l-28 0z" p-id="3519"></path></svg>