<?xml version="1.0" encoding="UTF-8" standalone="no"?>
<!DOCTYPE svg PUBLIC "-//W3C//DTD SVG 1.1//EN" "http://www.w3.org/Graphics/SVG/1.1/DTD/svg11.dtd">
<svg width="100%" height="100%" viewBox="0 0 188 315" version="1.1" xmlns="http://www.w3.org/2000/svg" xmlns:xlink="http://www.w3.org/1999/xlink" xml:space="preserve" xmlns:serif="http://www.serif.com/" style="fill-rule:evenodd;clip-rule:evenodd;stroke-linejoin:round;stroke-miterlimit:2;">
    <g transform="matrix(1,0,0,1,-1062.99,-370.289)">
        <g transform="matrix(4.16667,0,0,4.16667,1060.23,366.206)">
            <path d="M33.2,1.11C37.95,1.74 39.47,6.84 41.82,10.26C42.82,11.28 42.25,12.83 42.5,14.1C43.53,14.64 44.56,15.18 45.59,15.73C45.26,17.79 45.54,19.88 45.42,21.95C44.84,22.28 43.69,22.92 43.12,23.25C40.48,23.48 38.22,24.89 35.8,25.83C32.61,27.13 29.42,28.67 27.32,31.5C26,31.17 26.3,34.05 24.49,33.53L24.56,34.55L23.52,34.5L23.52,35.34C21.01,36.59 20.73,39.51 19.81,41.85C18.61,44.19 17.32,46.58 17.27,49.27L16.47,49.51C16.36,49.99 16.16,50.95 16.06,51.43C16.83,51.42 18.38,51.42 19.15,51.41C22.8,49.72 26.68,48.09 29.48,45.12C28.42,44.32 27.25,43.61 26.4,42.57C25.1,41.26 25.44,39.28 25.2,37.61C27.82,36.19 30.98,36.63 33.47,34.93C36.2,34.04 38.9,35.45 41.22,36.79C42.1,37.75 41.91,40.82 43.56,40.24C43.44,41.7 43.79,43.05 44.62,44.27L43.77,44.58C41.46,47.92 43.13,52.28 41.83,55.94C41.61,60.54 41.24,65.13 41.06,69.73C40.42,71.92 40.46,74.21 40.39,76.47C38.88,76.49 37.37,76.5 35.86,76.52C34.36,73.99 32.98,70.91 29.94,69.96C27.75,68.79 25.12,73.47 23.2,70.61C25.54,68.67 27.88,66.71 30.55,65.22C30.51,63.15 30.15,61.17 29,59.4C27.67,62.2 26.67,65.17 24.81,67.68C23.29,68.08 22.33,69.3 21.32,70.4C20.1,70.52 18.91,70.78 17.75,71.19C16.29,70.65 14.74,70.9 13.22,70.79C11.19,70.53 9.8,68.84 8.46,67.46C3.73,61.78 0.32,54.53 0.69,47C2.05,41.72 2.33,36.18 4.03,30.95C6.65,22.05 12.36,14.09 20.15,9.01C23.86,7.76 27.91,8.27 31.31,6.07C31.48,4.3 32.04,2.62 32.7,0.98L33.2,1.11Z" style="fill:rgb(230,33,41);fill-rule:nonzero;"/>
        </g>
    </g>
</svg>
