<?xml version="1.0" encoding="UTF-8" standalone="no"?>
<!DOCTYPE svg PUBLIC "-//W3C//DTD SVG 1.1//EN" "http://www.w3.org/Graphics/SVG/1.1/DTD/svg11.dtd">
<svg width="100%" height="100%" viewBox="0 0 32 32" version="1.1" xmlns="http://www.w3.org/2000/svg" xmlns:xlink="http://www.w3.org/1999/xlink" xml:space="preserve" xmlns:serif="http://www.serif.com/" style="fill-rule:evenodd;clip-rule:evenodd;stroke-linejoin:round;stroke-miterlimit:2;">
    <g transform="matrix(1,0,0,1,-1845.12,-528.641)">
        <g transform="matrix(0.169143,0,0,0.169143,1661.96,435.612)">
            <g transform="matrix(0.184755,0,0,0.184755,1114.86,550)">
                <path d="M342.444,322.924c-18.874,2.193 -33.268,17.521 -34.606,36.851c-0.577,8.329 -0.396,8.894 18.483,57.475c42.952,110.53 53.358,137.132 55.108,140.876c4.24,9.067 10.202,17.597 17.651,25.253c5.716,5.875 9.486,9.034 15.862,13.293c11.206,7.484 16.767,9.553 60.372,22.464c42.476,12.577 65.682,20.936 85.679,30.861c25.906,12.858 43.981,27.484 55.414,44.838c8.203,12.452 15.468,34.781 18.629,57.258c1.236,8.786 1.244,28.208 0.015,36.151c-2.667,17.239 -7.994,31.685 -16.143,43.774c-4.334,6.429 -2.826,5.353 3.475,-2.482c17.832,-22.171 35.997,-60.064 45.266,-94.426c11.217,-41.587 12.743,-86.244 4.391,-128.511c-16.265,-82.309 -68.226,-153.342 -141.408,-193.31c-4.598,-2.512 -22.112,-11.692 -45.856,-24.037c-3.603,-1.874 -8.516,-4.439 -10.918,-5.7c-2.402,-1.262 -7.315,-3.827 -10.918,-5.7c-3.603,-1.873 -13.975,-7.277 -23.049,-12.008c-9.074,-4.732 -19.227,-10.026 -22.563,-11.765c-10.169,-5.302 -16.992,-8.864 -22.079,-11.527c-23.528,-12.317 -33.487,-17.296 -36.326,-18.16c-2.978,-0.906 -10.543,-2.069 -12.441,-1.913c-0.4,0.033 -2.217,0.233 -4.038,0.445Z" style="fill:url(#_Radial1);"/>
            </g>
        </g>
        <g transform="matrix(0.169143,0,0,0.169143,1661.96,435.612)">
            <g transform="matrix(0.184755,0,0,0.184755,1114.86,550)">
                <path d="M393.737,735.544c-1.304,0.772 -3.134,1.89 -4.068,2.483c-0.935,0.594 -3.009,1.883 -4.61,2.866c-5.877,3.607 -21.507,13.238 -34.938,21.529c-8.827,5.449 -10.137,6.261 -21.35,13.22c-4.004,2.484 -8.262,5.102 -9.463,5.818c-1.201,0.716 -6.332,3.876 -11.403,7.022c-5.071,3.145 -13.914,8.605 -19.652,12.132c-5.738,3.526 -16.001,9.857 -22.806,14.068c-6.806,4.21 -15.759,9.731 -19.895,12.268c-4.137,2.536 -7.958,4.986 -8.492,5.444c-0.793,0.68 -37.585,23.471 -56.046,34.718c-14.021,8.541 -30.241,14.254 -46.845,16.498c-7.73,1.044 -22.358,1.048 -30.066,0.006c-20.901,-2.822 -40.155,-10.617 -56.645,-22.929c-6.469,-4.83 -18.646,-16.998 -23.302,-23.284c-10.971,-14.811 -18.068,-30.698 -21.743,-48.674c-0.846,-4.137 -1.646,-7.63 -1.778,-7.764c-0.343,-0.347 0.277,5.902 1.397,14.072c1.164,8.497 3.644,20.787 6.316,31.298c20.675,81.345 79.508,147.507 159.152,178.985c22.934,9.06 46.077,14.77 71.258,17.57c9.462,1.06 36.245,1.48 46.12,0.73c45.287,-3.43 84.719,-16.76 125.171,-42.325c3.603,-2.277 10.372,-6.545 15.042,-9.486c4.671,-2.94 10.566,-6.678 13.102,-8.305c2.535,-1.628 5.592,-3.551 6.793,-4.273c1.201,-0.723 3.603,-2.232 5.338,-3.355c1.735,-1.122 9.159,-5.818 16.498,-10.435l29.348,-18.537l10.077,-6.365l0.363,-0.229l1.11,-0.701l0.528,-0.334l7.419,-4.686l25.64,-16.195c32.67,-20.529 42.412,-27.736 57.59,-42.604c6.328,-6.197 15.868,-16.777 16.342,-18.12c0.096,-0.273 1.792,-2.889 3.768,-5.813c8.032,-11.885 13.388,-26.444 16.044,-43.613c1.229,-7.943 1.221,-27.365 -0.015,-36.151c-2.389,-16.987 -7.817,-36.255 -13.669,-48.524c-9.597,-20.118 -30.041,-38.398 -59.41,-53.12c-8.109,-4.065 -16.483,-7.785 -17.418,-7.736c-0.443,0.023 -27.773,16.728 -60.733,37.124c-32.96,20.396 -61.566,38.099 -63.567,39.341c-2.002,1.243 -5.441,3.344 -7.643,4.668l-18.859,11.698Z" style="fill:url(#_Radial2);fill-rule:nonzero;"/>
            </g>
        </g>
        <g transform="matrix(0.169143,0,0,0.169143,1661.96,435.612)">
            <g transform="matrix(0.184755,0,0,0.184755,1114.86,550)">
                <path d="M0.141,637.697l0.141,142.055l1.839,8.249c5.749,25.791 15.71,44.386 33.027,61.657c8.145,8.124 14.374,13.022 23.2,18.245c18.678,11.053 38.78,16.506 60.798,16.496c23.061,-0.012 43.01,-5.764 63.567,-18.329c3.469,-2.12 17.062,-10.489 30.206,-18.598l23.898,-14.743l0,-337.086l-0.007,-154.186c-0.005,-98.368 -0.185,-156.787 -0.496,-161.37c-1.96,-28.801 -14.005,-55.278 -34.259,-75.305c-6.216,-6.146 -11.527,-10.251 -27.349,-21.139c-7.873,-5.419 -22.285,-15.344 -32.026,-22.057c-9.741,-6.713 -25.79,-17.772 -35.665,-24.577c-9.875,-6.803 -23.959,-16.51 -31.298,-21.57c-15.29,-10.542 -16.486,-11.276 -21.108,-12.929c-6.012,-2.151 -12.383,-2.941 -18.439,-2.287c-17.654,1.907 -31.785,14.653 -35.459,31.981c-0.571,2.696 -0.677,38.575 -0.684,233.312l-0.008,230.127l-0.019,-0l0.141,142.054Z" style="fill:url(#_Linear3);fill-rule:nonzero;"/>
            </g>
        </g>
        <g transform="matrix(0.169143,0,0,0.169143,1661.96,435.612)">
            <g transform="matrix(1,0,0,1,-787.075,0)">
                <clipPath id="_clip4">
                    <path d="M1902.04,694.298l-0.052,-0.235l-0.026,-26.245l-0.026,-26.246l0.003,0l0.002,-42.517c0.001,-35.978 0.021,-42.607 0.126,-43.105c0.679,-3.202 3.29,-5.557 6.551,-5.909c1.119,-0.121 2.296,0.025 3.407,0.423c0.854,0.305 1.075,0.441 3.9,2.388c1.356,0.935 3.958,2.729 5.782,3.986c1.825,1.257 4.79,3.3 6.59,4.54c1.799,1.241 4.462,3.074 5.916,4.075c2.924,2.012 3.905,2.77 5.053,3.906c3.742,3.7 5.968,8.592 6.33,13.913c0.057,0.847 0.091,11.64 0.092,29.814l0.001,28.486l-0,62.249c0.024,-0.017 0.039,-0.027 0.045,-0.032c0.098,-0.085 0.804,-0.537 1.569,-1.006c0.764,-0.469 2.418,-1.489 3.675,-2.266c1.258,-0.778 3.154,-1.948 4.214,-2.6c1.06,-0.651 2.694,-1.66 3.631,-2.241c0.937,-0.581 1.885,-1.165 2.106,-1.297c0.222,-0.133 1.009,-0.616 1.749,-1.075c2.071,-1.286 2.313,-1.436 3.944,-2.443c2.482,-1.532 5.369,-3.311 6.455,-3.977c0.296,-0.182 0.679,-0.42 0.852,-0.53c0.173,-0.109 0.511,-0.316 0.752,-0.459l3.484,-2.161c0.407,-0.244 1.042,-0.633 1.412,-0.862c0.37,-0.23 5.655,-3.5 11.744,-7.269c6.09,-3.768 11.139,-6.854 11.221,-6.859c0.04,-0.002 0.156,0.034 0.329,0.1c-3.17,-1.348 -7.096,-2.672 -13.119,-4.456c-8.056,-2.385 -9.083,-2.767 -11.154,-4.15c-1.178,-0.787 -1.874,-1.37 -2.93,-2.456c-1.377,-1.414 -2.478,-2.99 -3.261,-4.665c-0.324,-0.692 -2.246,-5.607 -10.182,-26.028c-3.488,-8.976 -3.521,-9.08 -3.415,-10.619c0.247,-3.571 2.907,-6.403 6.394,-6.808c0.336,-0.039 0.672,-0.076 0.746,-0.082c0.351,-0.029 1.748,0.186 2.298,0.353c0.525,0.16 2.365,1.08 6.712,3.355c0.94,0.492 2.2,1.15 4.079,2.13c0.616,0.321 2.492,1.299 4.169,2.173c1.676,0.875 3.592,1.873 4.258,2.219c0.666,0.346 1.574,0.82 2.017,1.053c0.444,0.233 1.352,0.707 2.017,1.053c4.387,2.281 7.623,3.977 8.473,4.441c13.52,7.384 23.12,20.508 26.125,35.715c1.543,7.809 1.262,16.06 -0.811,23.743c-1.712,6.349 -5.068,13.35 -8.363,17.446c-1.164,1.447 -1.443,1.646 -0.642,0.458c0.109,-0.161 0.215,-0.326 0.319,-0.492c-0.098,0.157 -0.198,0.311 -0.301,0.463c-0.365,0.54 -0.678,1.023 -0.696,1.074c-0.087,0.248 -1.85,2.203 -3.019,3.347c-2.804,2.747 -4.604,4.079 -10.64,7.872l-4.737,2.992l-1.371,0.866l-0.098,0.061l-0.205,0.13l-0.067,0.042l-1.861,1.176l-5.423,3.425c-1.356,0.853 -2.727,1.721 -3.048,1.928c-0.32,0.207 -0.764,0.486 -0.986,0.62c-0.222,0.133 -0.787,0.488 -1.255,0.789c-0.469,0.301 -1.558,0.991 -2.421,1.535c-0.862,0.543 -2.113,1.331 -2.779,1.752c-7.473,4.723 -14.759,7.186 -23.126,7.82c-1.824,0.138 -6.772,0.061 -8.521,-0.135c-4.652,-0.517 -8.928,-1.572 -13.165,-3.246c-14.715,-5.816 -25.584,-18.04 -29.404,-33.069c-0.494,-1.941 -0.952,-4.212 -1.167,-5.782c-0.188,-1.375 -0.3,-2.456 -0.271,-2.589Zm40.34,11.594l-1.106,0.683c-2.429,1.498 -4.94,3.044 -5.581,3.436c1.866,-1.139 4.56,-2.8 6.687,-4.119Zm-6.708,4.132c-0.977,0.596 -1.947,1.109 -2.921,1.542c0.911,-0.397 1.79,-0.853 2.628,-1.363c0.095,-0.058 0.193,-0.118 0.293,-0.179Zm-7.716,3.026c-1.291,0.233 -2.619,0.346 -4.007,0.347c1.031,-0.001 2.062,-0.049 2.775,-0.146c0.412,-0.055 0.823,-0.123 1.232,-0.201Zm-4.033,0.347c-1.432,-0.001 -2.821,-0.127 -4.169,-0.379c0.467,0.092 0.939,0.17 1.415,0.234c0.707,0.096 1.73,0.144 2.754,0.145Zm-10.218,-2.494c-0.332,-0.175 -0.662,-0.36 -0.989,-0.554c-1.172,-0.693 -2.097,-1.356 -3.083,-2.231c0.398,0.36 0.768,0.672 1.071,0.898c0.952,0.711 1.955,1.341 3.001,1.887Zm-6.04,-4.72c-0.713,-0.775 -1.352,-1.57 -1.923,-2.399c0.21,0.313 0.429,0.623 0.657,0.93c0.293,0.396 0.747,0.918 1.266,1.469Zm-4.202,-6.757c-0.254,-0.664 -0.483,-1.355 -0.69,-2.078c0.198,0.709 0.428,1.401 0.69,2.078Zm104.961,-27.784c2.134,1.293 3.937,2.704 5.377,4.205c-1.441,-1.514 -3.224,-2.908 -5.377,-4.205Zm9.279,10.771c0.681,2.005 1.254,4.373 1.559,6.54c-0.322,-2.289 -0.874,-4.569 -1.559,-6.54Z"/>
                </clipPath>
                <g clip-path="url(#_clip4)">
                    <rect x="1887.08" y="540" width="155" height="220" style="fill:rgb(202,214,228);fill-opacity:0.69;"/>
                </g>
            </g>
        </g>
        <g transform="matrix(1,0,0,1,784.513,-3.99906)">
            <g transform="matrix(3.31275,0,0,0.50503,822.005,512.117)">
                <rect x="72.025" y="40.637" width="9.66" height="63.363" style="fill:none;"/>
            </g>
        </g>
    </g>
    <defs>
        <radialGradient id="_Radial1" cx="0" cy="0" r="1" gradientUnits="userSpaceOnUse" gradientTransform="matrix(-346.463,-399.84,287.703,-249.295,654.126,722.251)"><stop offset="0" style="stop-color:rgb(0,202,204);stop-opacity:1"/><stop offset="1" style="stop-color:rgb(4,143,206);stop-opacity:1"/></radialGradient>
        <radialGradient id="_Radial2" cx="0" cy="0" r="1" gradientUnits="userSpaceOnUse" gradientTransform="matrix(526.002,-225.395,375.628,876.6,88.8183,915.135)"><stop offset="0" style="stop-color:rgb(0,187,236);stop-opacity:1"/><stop offset="1" style="stop-color:rgb(39,86,169);stop-opacity:1"/></radialGradient>
        <linearGradient id="_Linear3" x1="0" y1="0" x2="1" y2="0" gradientUnits="userSpaceOnUse" gradientTransform="matrix(5.41538e-14,884.399,-884.399,5.41538e-14,118.409,0)"><stop offset="0" style="stop-color:rgb(0,187,236);stop-opacity:1"/><stop offset="1" style="stop-color:rgb(39,86,169);stop-opacity:1"/></linearGradient>
    </defs>
</svg>
