<?xml version="1.0" encoding="UTF-8" standalone="no"?>
<!DOCTYPE svg PUBLIC "-//W3C//DTD SVG 1.1//EN" "http://www.w3.org/Graphics/SVG/1.1/DTD/svg11.dtd">
<svg width="100%" height="100%" viewBox="0 0 41 41" version="1.1" xmlns="http://www.w3.org/2000/svg" xmlns:xlink="http://www.w3.org/1999/xlink" xml:space="preserve" xmlns:serif="http://www.serif.com/" style="fill-rule:evenodd;clip-rule:evenodd;stroke-linejoin:round;stroke-miterlimit:2;">
    <g transform="matrix(1,0,0,1,-1472.46,-2610.34)">
        <g transform="matrix(0.788704,0,0,0.788704,347.094,553.424)">
            <path d="M1449.32,2607.96L1449.32,2630.43L1426.86,2630.43C1426.86,2618.02 1436.92,2607.96 1449.32,2607.96Z" style="fill:rgb(255,98,253);"/>
        </g>
        <g transform="matrix(0.788704,0,0,-0.788704,347.094,4707.43)">
            <path d="M1449.32,2607.96L1449.32,2630.43L1426.86,2630.43C1426.86,2618.02 1436.92,2607.96 1449.32,2607.96Z" style="fill:rgb(37,64,120);"/>
        </g>
        <g transform="matrix(-0.788704,0,0,0.788704,2638.01,575.887)">
            <path d="M1449.32,2607.96L1449.32,2630.43L1426.86,2630.43C1426.86,2618.02 1436.92,2607.96 1449.32,2607.96Z" style="fill:rgb(37,64,120);"/>
        </g>
        <g transform="matrix(-0.788704,0,0,-0.788704,2638.01,4684.96)">
            <path d="M1449.32,2607.96L1449.32,2630.43L1426.86,2630.43C1426.86,2618.02 1436.92,2607.96 1449.32,2607.96Z" style="fill:rgb(0,120,255);"/>
        </g>
    </g>
</svg>
