<?xml version="1.0" encoding="UTF-8" standalone="no"?>
<!DOCTYPE svg PUBLIC "-//W3C//DTD SVG 1.1//EN" "http://www.w3.org/Graphics/SVG/1.1/DTD/svg11.dtd">
<svg width="100%" height="100%" viewBox="0 0 631 181" version="1.1" xmlns="http://www.w3.org/2000/svg" xmlns:xlink="http://www.w3.org/1999/xlink" xml:space="preserve" xmlns:serif="http://www.serif.com/" style="fill-rule:evenodd;clip-rule:evenodd;stroke-linejoin:round;stroke-miterlimit:2;">
    <g transform="matrix(1,0,0,1,-357.283,-2839.37)">
        <g transform="matrix(1.00012,0,0,1,11.0856,5.90551)">
            <path d="M382.177,3011.81L346.158,3011.81L346.158,2834.65L382.177,2834.65L382.177,2834.76C431.478,2837.1 470.75,2875.84 470.75,2923.23C470.75,2970.61 431.478,3009.36 382.177,3011.7L382.177,3011.81ZM382.177,2879.16L382.177,2967.3C405.708,2965.04 424.102,2946.16 424.102,2923.23C424.102,2900.3 405.708,2881.41 382.177,2879.16Z" style="fill:rgb(5,42,131);"/>
        </g>
        <g transform="matrix(1.00012,0,0,1,149.865,5.90551)">
            <path d="M346.158,3011.81L346.158,2834.65L382.177,2834.65L382.177,2975.2L440.635,2975.2L440.635,3011.81L346.158,3011.81Z" style="fill:rgb(5,42,131);"/>
        </g>
        <g transform="matrix(1.00012,0,0,0.746667,368.074,768.898)">
            <rect x="346.158" y="2834.65" width="36.019" height="177.165" style="fill:rgb(5,42,131);"/>
        </g>
        <g transform="matrix(0.967325,0,0,0.6,440.547,1138.58)">
            <path d="M346.158,3037.4L346.158,2834.65L382.177,2834.65L382.177,2893.12L402.934,2893.12L402.934,2953.34L382.177,2953.34L382.177,3032.48C382.177,3044.49 385.136,3056.01 390.402,3064.5C395.668,3072.99 402.812,3077.76 410.26,3077.76L410.26,3133.86L405.987,3133.86C390.119,3133.86 374.901,3123.7 363.681,3105.61C352.461,3087.52 346.158,3062.98 346.158,3037.4Z" style="fill:rgb(5,42,131);"/>
        </g>
        <g transform="matrix(2.79226,0,0,0.161971,-80.7365,2474.73)">
            <path d="M368.848,2834.65C366.952,2751.24 362.239,2692.12 356.733,2692.12C349.554,2692.12 343.726,2792.59 343.726,2916.35C343.726,3040.1 349.554,3140.58 356.733,3140.58C360.565,3140.58 364.202,3111.44 366.673,3060.95L376.614,3205.56C371.672,3306.54 364.397,3364.81 356.733,3364.81C342.375,3364.81 330.719,3163.86 330.719,2916.35C330.719,2668.84 342.375,2467.89 356.733,2467.89C371.09,2467.89 382.747,2668.84 382.747,2916.35C382.747,2947.71 382.556,2978.98 382.177,3009.66L382.177,3011.81L346.158,3011.81L346.158,2834.65L368.848,2834.65Z" style="fill:rgb(5,42,131);"/>
        </g>
        <circle cx="732.283" cy="2861.67" r="20.223" style="fill:rgb(252,200,0);"/>
        <path d="M669.685,2937.99L669.685,2960.43C669.685,2992.4 643.774,3018.31 611.811,3018.31L608.268,3018.31L608.268,2979.92L609.45,2979.92C624.452,2979.92 636.614,2967.76 636.614,2952.76L636.614,2933.86C636.614,2901.89 662.525,2875.98 694.488,2875.98L694.488,2913.19C680.79,2913.19 669.685,2924.29 669.685,2937.99Z" style="fill:rgb(5,42,131);"/>
    </g>
</svg>
