<?xml version="1.0" standalone="no"?><!DOCTYPE svg PUBLIC "-//W3C//DTD SVG 1.1//EN" "http://www.w3.org/Graphics/SVG/1.1/DTD/svg11.dtd"><svg t="1705123543709" class="icon" viewBox="0 0 1024 1024" version="1.1" xmlns="http://www.w3.org/2000/svg" p-id="16073" xmlns:xlink="http://www.w3.org/1999/xlink" width="200" height="200"><path d="M1023.792 116.96C1007.309 56.308 968.305 17.794 908.467 0.604c-6.038-1.687-795.957 0.435-803.682 3.046C53.76 20.676 18.945 54.076 2.135 105.537c-2.502 7.67-2.937 804.39-0.598 811.57 17.244 52.603 52.114 87.745 104.934 104.826 7.072 2.339 800.473 2.883 807.817 0.598 51.733-16.32 87.037-49.829 104.989-101.018 3.427-9.465 5.93-799.167 4.515-804.552zM851.186 349.569c79.639-4.243 48.958 4.19 54.779 81.326-4.896 19.312 13.654 86.276-16.32 81.598-13.708-2.448-32.312 4.732-43.954-2.448-8.594-8.432 6.039-12.947 6.365-20.617-2.557-43.519 12.185-89.377-8.377-131.318-3.427-5.657 2.23-8.486 7.507-8.54z m-232.934 82.958c0-25.24 5.44-50.971-7.18-76.158-5.767-11.315 7.017-10.335 13.653-8.268 64.952 19.638 65.605 120.873 17.462 156.776-7.017 7.126-38.079 17.027-31.986-1.034 14.47-22.466 8.214-47.435 8.05-71.316z m-64.789-65.93a54.072 54.072 0 0 1 46.946-19.312c0.435 8.758-6.473 12.566-11.532 18.55-2.448 43.518-6.583 92.912 3.59 134.636 13.6 6.854 2.557 20.997-8.813 12.511-20.943 1.523-29.266-13.98-38.079-28.396-22.901-36.501-19.637-88.67 7.888-117.99z m-166.296-17.028c16.32-0.707 32.64 0 48.959 0 23.609 10.88 28.559 51.353 54.398 74.309-1.414-24.588 7.834-43.519-8.486-61.416-8.16-8.867-3.427-13.001 6.8-13.545 9.955 1.305 24.316-4.515 31.116 3.862s-8.595 11.696-10.118 19.692a62.232 62.232 0 0 1-3.155 9.629c4.732 14.633-2.612 29.157-0.708 44.28 2.122 6.8-7.398 6.745-6.8 0-13.708 0-7.506 8.377-4.242 12.838 11.75 15.884 13.327 33.727 11.695 52.277-0.598 7.398 3.318 18.169-8.486 19.801s-24.37 4.352-32.204-9.846c-28.559-45.75-49.285-96.83-83.937-138.607-7.289-7.507-3.97-12.838 5.168-13.274z m-7.126 150.902c25.567-29.81 3.754-64.952 14.47-100.637 28.287 28.613-7.997 76.157 23.663 102.16 13.002 15.34-54.126 15.395-38.133-1.523zM224.842 349.568c10.336 2.612 69.902-8.431 61.035 9.52-12.946 18.17-5.44 38.08-6.636 57.119 0.272 24.588-3.754 50.808 2.992 74.634 3.318 6.528 15.72 12.566 6.908 20.019-28.015 20.508-65.278-14.307-63.755-45.586 0.327-14.198 0-28.396 0-43.845-3.481-20.345 6.31-43.519-8.431-63.864-3.754-5.277 2.774-7.942 7.887-7.997z m-98.298 10.88c-10.39-24.262 47.545-6.473 54.399 4.189 19.583 26.764 6.038 52.277-21.216 67.29 44.934 15.287 18.55 40.038 36.067 51.788 18.278 6.147 7.942 15.884 1.36 22.249-11.206 10.88-25.785 10.88-40.092 6.69-35.033-11.858-7.616-54.397-31.116-75.667-2.665-2.394-1.251-6.42 0.87-9.357 15.885-22.086 14.253-44.389-0.272-66.91zM58.22 510.207c-14.96-8.813 5.005-23.01 3.536-36.937-4.08-32.639 1.251-66.529-2.013-99.44-11.478-34.053 13.001-22.412 36.61-24.697 33.619-4.134 13.6 52.984 18.822 73.438h-0.38c1.686 22.739-3.917 48.959 2.937 70.446 17.788 19.91 2.829 19.257-11.478 19.42-15.776-1.088-35.522 4.842-48.034-2.23z m271.992 108.525c-5.93 14.742-14.415 70.283-34.108 34.87-1.958-4.679 0.544-10.88-4.08-14.688-11.478 4.895-5.004 25.295-18.332 23.88-17.462-2.502-9.737-25.404-21.76-34.706-14.36 8.432-8.105 33.129-24.424 36.991-6.31 0-7.344-7.072-9.52-11.967s-0.816-12.349-8.432-11.642c-9.737 2.666-4.895 22.14-16.754 23.174-8.595 0.326-7.29-8.16-9.846-13.219-3.971-6.473-11.696-29.157-18.822-12.403-0.272 0.653 0 1.578-0.599 1.904-7.887 6.256-2.72 23.229-15.72 23.283s-9.466-16.32-16.919-23.391c-12.348 3.155-5.113 23.608-18.604 23.608-11.152-0.38-11.37-13.6-14.633-21.759-1.523-9.41-14.688-31.823-4.678-37.644 12.892-0.761 11.75 18.17 17.951 29.05 18.17-33.075 18.17-33.075 37.753-1.306 9.193-10.064 5.113-32.64 26.764-29.756 5.113 0.652 5.44 0.761 16.32 25.186 11.858-2.665 10.39-45.858 28.94-13.708 17.407 23.99 27.742-43.9 47.271 7.67a59.838 59.838 0 0 0 4.624 6.745c11.968-4.352 5.44-24.153 18.659-23.826s7.779 18.713 17.027 24.48c12.185-3.809 5.004-24.48 18.277-24.154 7.562 1.632 5.277 8.323 3.808 13.328z m26.22-257.468c-23.609 28.015-6.854 69.848-11.37 103.738 1.524 19.8-17.733 55.54-40.308 45.586-9.792-17.245 33.346-8.813 26.22-74.09-2.013-20.999 5.44-44.444-3.482-63.865-3.808-6.8-17.407-13.6-7.888-20.671 5.277-7.017 51.08-6.8 36.991 9.302z m67.291 305.175c-33.89 4.515-13.11-51.352-27.906-52.005a15.776 15.776 0 0 0-15.885 10.173c-6.8 11.26 3.047 36.556-11.26 40.091-6.528 0-7.507-5.059-7.616-9.791 3.155-15.123-9.52-48.578 11.804-51.298 38.08-3.21 40.636-1.251 41.126 38.786 10.88 19.04 22.14 13.926 24.044-6.8 1.686-8.323-5.44-23.772 6.038-23.5 10.281 0 9.846 16.32 10.553 27.2 1.687 22.575-14.415 25.567-30.735 27.144z m91.009-11.75c0 4.733-1.687 10.227-7.562 10.227-13.763-2.285-6.364-22.14-8.54-31.986 0-7.235-1.741-13.872-10.88-14.307-17.136 0.707-8.486 23.01-10.88 33.999 1.034 17.68-19.257 15.395-14.742-1.523 2.829-11.587-8.323-49.285 8.976-46.837 44.226-8.813 45.695 10.444 43.79 50.427z m169.777 8.976c-13.6 4.297-29.538 7.344-42.594-4.46l-0.326-4.026c-7.888-1.687-11.478 5.44-17.136 8.432-17.299 9.193-34.38 4.188-43.519-13.872l-5.44-0.707c-11.314 31.66-62.068 20.127-58.315-12.62-6.147-32.368 41.56-50.265 56.248-18.768 2.394 1.305 4.733 3.59 7.616 0.925 11.86-18.06 28.668-21.76 45.586-10.88 4.896 3.21 7.344 9.955 14.307 10.227 0.653-11.968 1.251-23.99 1.85-35.957 15.068-8.65 12.729 9.52 12.457 21.759 30.952-4.08 41.451 3.046 42.376 28.885 0.707 12.294 0 26.819-13.11 31.062z m11.804-184.955a107.328 107.328 0 0 1-12.13-50.917c-4.57-70.01 86.112-104.118 62.667-64.897-12.403 32.64-2.394 70.174-5.44 104.554 0 11.532-0.272 23.065 7.344 32.965 2.502 3.264 4.515 7.398 1.305 10.88-22.358 9.41-44.987-14.307-53.746-32.585z m76.158 135.996c-2.121 12.186-19.529 1.034-28.287 3.264-8.595 27.2-8.105 28.07 19.583 32.204 3.264 0.49 7.29 0 7.67 4.515-6.364 25.023-43.518 10.88-46.782-13.164-4.95-22.304 11.913-46.076 35.468-39.602 6.908 1.25 13.436 5.004 12.022 13.164z m-7.724-111.625c10.88-14.797 7.235-31.116 7.507-47.055 0.435-23.718 0-47.435 0-71.153a43.519 43.519 0 0 0-3.155-19.855c-2.503-5.06-9.847-10.118-4.244-16.32 6.42-6.8 14.362-1.632 20.672 1.414 55.269 25.73 60.382 114.836 11.315 153.567-6.963 8.16-41.18 18.93-32.422-0.217zM923.1 664.97c-15.558 0-5.44-17.027-6.963-26.547s3.047-21.76-10.88-22.031c-12.946 0-10.879 12.076-12.51 21.76s5.439 25.131-8.324 24.914c-16.32 0 4.515-43.954-14.96-43.9-26.11-1.414-2.012 43.519-22.248 45.858-13.002-15.34-23.5 0.653-35.033 1.795-33.89 7.561-50.59-34.108-27.2-56.9 26.82-26.112 41.616 12.946 58.969-4.733 16.32-8.54 42.485 1.305 61.416-3.427 18.821-2.285 25.676 8.377 26.165 38.078-2.176 8.051 4.134 25.622-8.758 25.513z m60.274-179.134c-7.997 20.073-26.383 25.839-47.436 25.893-5.711-1.088-14.36 3.264-17.842-4.352s6.038-9.356 9.139-14.143c8.214-12.675 7.126-44.117-3.645-55.541-6.147-6.528-8.813-10.118-1.469-18.006a42.376 42.376 0 0 0 1.251-54.997c-28.613-28.287 55.378-15.72 57.935 7.888 20.454 36.937-33.945 45.477-12.675 63.157 18.495 13.545 22.031 31.279 14.415 50.481z" fill="#96B97E" p-id="16074"></path><path d="M806.579 616.556c-19.475-1.306-19.42 35.413-1.306 35.74 19.475 1.196 19.149-35.523 1.306-35.74z m-148.888 5.222v0.38c-7.072 38.08 26.492 36.611 23.282 9.847-3.21-13.164-9.9-19.583-23.282-10.227z m-59.295-3.21a39.765 39.765 0 0 0-4.678 22.848c6.147 4.896 9.792 16.646 20.943 8.269 16.048-10.554 3.21-42.322-16.265-31.116z m-61.47 4.461c-17.407 35.305 42.104 42.05 20.835-3.916-7.942-4.026-15.721-4.407-20.835 3.916z" fill="#96B97E" p-id="16075"></path></svg>